<svg width="20" height="20" viewBox="0 0 20 20" fill="none" xmlns="http://www.w3.org/2000/svg">
<path id="Vector" d="M13.0231 6.46525C12.9758 6.34005 12.952 6.20705 12.9532 6.07308V2.05087C12.9532 1.78418 13.0585 1.52841 13.246 1.33984C13.4334 1.15126 13.6877 1.04532 13.9528 1.04532C14.2179 1.04532 14.4722 1.15126 14.6596 1.33984C14.8471 1.52841 14.9524 1.78418 14.9524 2.05087V3.29564L14.7754 3.47318L14.9524 3.6497H15.2024V3.39898L18.2411 0.351485C18.3307 0.246222 18.441 0.160729 18.565 0.100372C18.6891 0.0400156 18.8241 0.00609836 18.9618 0.000749324C19.0995 -0.00459971 19.2367 0.0187349 19.365 0.0692886C19.4933 0.119842 19.6098 0.196524 19.7072 0.29452C19.8046 0.392516 19.8809 0.50971 19.9311 0.638748C19.9814 0.767786 20.0046 0.905881 19.9993 1.04436C19.9939 1.18285 19.9602 1.31873 19.9002 1.44349M13.0231 6.46525C13.0723 6.58877 13.1453 6.70126 13.2379 6.79619C13.3306 6.89113 13.4411 6.96662 13.5629 7.0183M13.0231 6.46525L13.257 6.37674C13.2567 6.37609 13.2565 6.37544 13.2562 6.37479M13.0231 6.46525L13.2554 6.37285C13.2557 6.3735 13.256 6.37414 13.2562 6.37479M13.5629 7.0183C13.6874 7.06598 13.8196 7.08985 13.9528 7.08869H17.9512C18.2164 7.08869 18.4706 6.98275 18.6581 6.79417C18.8455 6.60559 18.9509 6.34983 18.9509 6.08314C18.9509 5.81645 18.8455 5.56068 18.6581 5.3721C18.4706 5.18353 18.2164 5.07759 17.9512 5.07759H16.7144L16.5392 5.25384L16.3619 5.07759V4.82759H16.6104L19.6506 1.76931C19.7552 1.67917 19.8402 1.56824 19.9002 1.44349M13.5629 7.0183L13.6605 6.78814C13.6592 6.78757 13.6578 6.787 13.6565 6.78642M13.5629 7.0183L13.6524 6.78484C13.6537 6.78537 13.6551 6.7859 13.6565 6.78642M19.9002 1.44349L19.6749 1.33513C19.72 1.2413 19.7454 1.13904 19.7494 1.03477C19.7534 0.930503 19.736 0.826557 19.6982 0.729475C19.6604 0.632398 19.603 0.544336 19.5299 0.470773L19.707 0.294699L19.5299 0.470771C19.4568 0.397213 19.3694 0.33974 19.2734 0.301878C19.1773 0.264016 19.0745 0.246558 18.9715 0.250561C18.8685 0.254564 18.7674 0.279945 18.6744 0.325164C18.5815 0.370384 18.4988 0.434491 18.4315 0.513543L18.4251 0.521037L18.4182 0.528007L15.1294 3.82622L14.7024 4.25448V3.6497V2.05087C14.7024 1.85001 14.6231 1.65767 14.4823 1.51609C14.3416 1.37456 14.1511 1.29532 13.9528 1.29532C13.7545 1.29532 13.5639 1.37456 13.4233 1.51609C13.2825 1.65767 13.2032 1.85001 13.2032 2.05087V6.07308V6.07523H13.2032C13.2023 6.17756 13.2203 6.27913 13.2562 6.37479M19.9002 1.44349L19.6749 1.33513C19.6298 1.42895 19.5659 1.51227 19.4874 1.57991L19.4801 1.58621L19.4733 1.59306L16.1846 4.90133L15.7608 5.32759H16.3619H17.9512C18.1496 5.32759 18.3401 5.40683 18.4808 5.54836C18.6215 5.68994 18.7009 5.88228 18.7009 6.08314C18.7009 6.284 18.6215 6.47634 18.4808 6.61792C18.3401 6.75945 18.1496 6.83869 17.9512 6.83869L13.9528 6.83868L13.9506 6.8387C13.8502 6.83957 13.7505 6.82185 13.6565 6.78642M13.6565 6.78642C13.5668 6.74776 13.4854 6.69179 13.4169 6.62158C13.3478 6.5508 13.2932 6.46695 13.2562 6.37479M12.8823 12.3333L12.6512 12.2039C11.6575 11.6479 10.7445 10.9573 9.93761 10.1515L9.93632 10.1502C9.13533 9.33858 8.44891 8.4202 7.89626 7.42084L7.78522 7.22003L7.9758 7.09223L8.39563 6.81067L8.40947 6.80139L8.42442 6.79403C8.81203 6.60312 9.11615 6.27453 9.27784 5.87116C9.43945 5.468 9.44722 5.01891 9.29967 4.61033C9.13729 4.17034 9.00404 3.72003 8.90079 3.26235L12.8823 12.3333ZM12.8823 12.3333L12.9981 12.095M12.8823 12.3333L12.9981 12.095M12.9981 12.095L13.2179 11.6426C13.408 11.2521 13.7348 10.9464 14.135 10.7841C14.5347 10.622 14.9798 10.6141 15.3848 10.7619C15.8219 10.9282 16.2704 11.0625 16.7268 11.1637C16.7633 11.1721 16.8027 11.1818 16.8443 11.1921C17.0161 11.2345 17.2263 11.2863 17.4273 11.2903C18.0455 11.4066 18.6059 11.7329 19.0143 12.2153C19.4268 12.7025 19.6588 13.3186 19.6705 13.9589L19.6705 16.9733L19.6705 16.9744C19.6723 17.3661 19.5915 17.7536 19.4334 18.1114C19.2754 18.4691 19.0438 18.7888 18.754 19.0496C18.2495 19.5018 17.5973 19.751 16.922 19.75H16.9216H16.5573C12.429 19.2338 8.58826 17.3504 5.64069 14.3961C2.68946 11.4381 0.801792 7.57511 0.276182 3.41723L0.276196 3.41723L0.275836 3.41461C0.22179 3.02066 0.252763 2.61963 0.366627 2.23885C0.48049 1.85807 0.674546 1.50654 0.935494 1.20817C1.19644 0.909801 1.51813 0.671598 1.87862 0.509682C2.23911 0.347767 2.62998 0.265913 3.02464 0.269641V0.269652H3.027H6.02584V0.269679M12.9981 12.095L6.02584 0.269679M6.02584 0.269679L6.0295 0.269625M6.02584 0.269679L6.0295 0.269625M6.0295 0.269625C6.68394 0.260054 7.32049 0.485835 7.82448 0.906634C8.32725 1.32641 8.66519 1.9128 8.77744 2.56082M6.0295 0.269625L8.77744 2.56082M18.2012 17.0722L18.2013 17.0742C18.201 17.2522 18.1631 17.4282 18.09 17.5905C18.0169 17.7527 17.9102 17.8976 17.7769 18.0153L17.7753 18.0168C17.6373 18.1366 17.4758 18.2262 17.3012 18.2798C17.1266 18.3333 16.9428 18.3496 16.7615 18.3276L16.7597 18.3273C12.9606 17.8373 9.43206 16.089 6.7305 13.3585C4.02897 10.628 2.30817 7.07065 1.83922 3.24775L1.83878 3.24416L1.83881 3.24416C1.81929 3.06347 1.83639 2.88067 1.8891 2.70677C1.9418 2.53287 2.02903 2.37144 2.1456 2.23225L2.14893 2.22827L2.14897 2.22831C2.26597 2.09433 2.41009 1.98686 2.57178 1.91312C2.73349 1.83938 2.90901 1.8011 3.08666 1.80087L3.08698 1.80087L6.08318 1.80087C6.37315 1.79507 6.65596 1.89078 6.88326 2.07141C7.11129 2.25263 7.26911 2.5079 7.32994 2.79312L7.33165 2.80114L7.33283 2.80927C7.37192 3.07795 7.42076 3.34325 7.47935 3.60519L7.47965 3.60654L7.47965 3.60654C7.59256 4.12482 7.74282 4.63414 7.92924 5.13046L8.01057 5.34699L7.80099 5.44488L6.40153 6.09848L6.40051 6.09896C6.31086 6.14034 6.23013 6.19916 6.16298 6.27213C6.09584 6.3451 6.04361 6.43078 6.00936 6.52427C5.97512 6.61777 5.95956 6.7172 5.96361 6.81682C5.96765 6.91639 5.9912 7.01414 6.03285 7.10444C7.44602 10.1492 9.87834 12.5968 12.9038 14.0193C13.0847 14.0925 13.2869 14.0918 13.4675 14.0172L13.4782 14.0127L13.4783 14.013C13.5717 13.9794 13.6575 13.9275 13.7309 13.8601C13.8038 13.7932 13.863 13.7125 13.9049 13.6224L14.5237 12.2168L14.6176 12.0034L14.8371 12.0823C15.3442 12.2648 15.8618 12.4164 16.3871 12.5363L18.2012 17.0722ZM18.2012 17.0722L18.1813 13.9383C18.1868 13.648 18.0921 13.3646 17.9129 13.1364C17.7329 12.9072 17.4788 12.748 17.1943 12.6866L17.1862 12.6848M18.2012 17.0722L17.1862 12.6848M17.1862 12.6848L17.178 12.6836M17.1862 12.6848L17.178 12.6836M17.178 12.6836C16.9111 12.6443 16.6477 12.5953 16.3875 12.5364L17.178 12.6836ZM8.77744 2.56082C8.80824 2.7972 8.84928 3.03436 8.90077 3.26227L8.77744 2.56082Z" fill="#55079B" stroke="white" stroke-width="0.5"/>
</svg>
