<svg width="15" height="20" viewBox="0 0 15 20" fill="none" xmlns="http://www.w3.org/2000/svg">
<path d="M5.15625 14.7822V19.1485C5.15625 19.6185 5.59209 19.9996 6.12977 19.9996C6.66724 19.9996 7.10328 19.6185 7.10328 19.1485V14.9387C6.35757 14.9307 5.70765 14.8688 5.15625 14.7822ZM8.9259 16.5077C8.95247 15.8229 9.05051 15.2646 9.18816 14.81C8.67843 14.8819 8.09111 14.9316 7.42795 14.9387V19.1485C7.42795 19.6185 7.8637 19.9996 8.40147 19.9996C8.93885 19.9996 9.37498 19.6185 9.37498 19.1485V17.2163C9.29914 17.1779 9.22944 17.1295 9.16801 17.072C9.00358 16.9183 8.91772 16.7179 8.9259 16.5077Z" fill="#55079B"/>
<path d="M7.26999 14.7305C8.03908 14.7305 8.70658 14.6677 9.26879 14.5775C9.69376 13.3813 10.374 12.989 10.6121 12.8851C10.6778 12.845 10.7487 12.8153 10.8226 12.7955C10.5476 12.4988 10.3808 12.1161 10.3808 11.6979C10.3808 11.3268 10.5131 10.9841 10.7347 10.7041L9.79711 6.49721C9.93455 6.65583 10.0769 6.84443 10.22 7.0676C10.6504 7.73965 11.0858 8.72876 11.4061 10.1803C11.6586 10.0635 11.9429 9.99624 12.2446 9.99624C12.3862 9.99624 12.5236 10.012 12.6562 10.0394C11.9447 6.7232 10.6331 5.40035 9.73085 4.87343C9.31757 4.6321 8.99005 4.55742 8.84556 4.53493C8.68002 4.49711 7.98036 4.34766 7.26999 4.34766C6.55951 4.34766 5.85986 4.49711 5.69431 4.53493C5.54982 4.55733 5.22221 4.6321 4.80883 4.87352C3.8086 5.45775 2.30575 7.02069 1.67467 11.192L0 12.3949L2.80664 15.652L4.22778 14.6315L4.51251 14.427C5.19613 14.5898 6.1187 14.7305 7.26999 14.7305ZM1.66434 11.5363C1.72113 11.7631 1.92627 11.9449 2.19381 11.977C2.22163 11.9804 2.24935 11.9821 2.27668 11.9821C2.58681 11.9821 2.85657 11.7721 2.8983 11.4838C2.94678 11.1483 3.00097 10.8324 3.05969 10.5343L4.65796 9.38653L7.10627 12.2278L2.85522 15.2806L0.406909 12.4393L1.66434 11.5363ZM4.32146 7.06125C4.46412 6.83914 4.60619 6.65186 4.74354 6.49412L4.08174 9.46368L3.72969 9.71647L3.14275 10.138C3.46264 8.70399 3.89418 7.72651 4.32146 7.06125Z" fill="#55079B"/>
<path d="M7.26562 3.91303C8.43059 3.91303 9.37498 3.03707 9.37498 1.95652C9.37498 0.875962 8.43059 0 7.26562 0C6.10065 0 5.15625 0.875962 5.15625 1.95652C5.15625 3.03707 6.10065 3.91303 7.26562 3.91303Z" fill="#55079B"/>
<path d="M9.37529 16.5106C9.36615 16.7627 9.57576 16.9742 9.84336 16.9828C9.84899 16.983 9.85453 16.9831 9.86007 16.9831C10.1202 16.9831 10.3353 16.7885 10.3443 16.5416C10.3743 15.7061 10.5093 15.1306 10.6639 14.7377V16.9105V19.3476C10.6639 19.7082 10.9739 20.0004 11.3564 20.0004C11.739 20.0004 12.049 19.7082 12.049 19.3476V17.2585H12.326V19.3476C12.326 19.7082 12.636 20.0004 13.0185 20.0004C13.4011 20.0004 13.7111 19.7082 13.7111 19.3476V16.1518V14.7303C13.8649 15.1227 14.0004 15.7003 14.0307 16.5415C14.0396 16.7885 14.2548 16.983 14.5149 16.983C14.5204 16.983 14.526 16.9829 14.5316 16.9827C14.7992 16.9741 15.0088 16.7627 14.9997 16.5105C14.8998 13.7321 13.7027 13.1719 13.5665 13.1171C13.5658 13.1169 13.5652 13.1168 13.5645 13.1166C13.5023 13.0717 13.4256 13.0439 13.3416 13.0439H13.1644C12.8835 13.2183 12.5481 13.3206 12.1874 13.3206C11.8267 13.3206 11.4912 13.2183 11.2104 13.0439H11.0332C10.9485 13.0439 10.8711 13.0722 10.8087 13.1179L10.8084 13.1172C10.6722 13.172 9.4752 13.7322 9.37529 16.5106Z" fill="#55079B"/>
<path d="M12.1875 13.0435C12.9641 13.0435 13.5937 12.3622 13.5937 11.5217C13.5937 10.6813 12.9641 10 12.1875 10C11.4108 10 10.7812 10.6813 10.7812 11.5217C10.7812 12.3622 11.4108 13.0435 12.1875 13.0435Z" fill="#55079B"/>
<path d="M2.50579 13.1019L2.55966 13.1741C2.57235 13.1912 2.57526 13.2015 2.56276 13.2182C2.54832 13.2365 2.51809 13.2634 2.49581 13.2796C2.34902 13.3871 2.21782 13.3263 2.10281 13.1717C1.9909 13.0213 1.99371 12.8843 2.12335 12.7894C2.14661 12.7723 2.18033 12.7523 2.20125 12.7448C2.22121 12.738 2.22926 12.7444 2.24185 12.7615L2.29417 12.8318L2.38709 12.753L2.26772 12.5924C2.19186 12.6061 2.10591 12.6502 2.04216 12.6969C1.88316 12.8131 1.79014 13.0159 1.98431 13.2771C2.15542 13.507 2.35725 13.5346 2.56073 13.3857C2.63669 13.3302 2.70006 13.2619 2.73029 13.1996L2.60937 13.0369L2.50579 13.1019ZM2.78542 13.0848L2.8422 13.1612L3.31203 12.8177L3.1821 12.643L3.07958 12.7072L3.12822 12.7725C3.14305 12.7924 3.14324 12.8033 3.12105 12.8196L2.95498 12.941L2.60849 12.4751C2.59047 12.4511 2.59338 12.4381 2.61111 12.422L2.64047 12.3942L2.58456 12.319L2.34766 12.4922L2.40657 12.5715L2.46354 12.5346L2.81681 13.0092C2.83396 13.0325 2.83135 13.0437 2.81468 13.0592L2.78542 13.0848ZM3.15206 12.0356L3.33984 12.6285C3.34642 12.6499 3.34962 12.6647 3.3286 12.6846L3.30641 12.7057L3.36241 12.7809L3.5811 12.6208L3.52219 12.5417L3.46822 12.5764L3.42471 12.4422L3.65551 12.2733L3.74291 12.3319C3.765 12.3468 3.76558 12.3604 3.74785 12.3765L3.71743 12.4049L3.77343 12.4801L4.0144 12.3039L3.95549 12.2247L3.90084 12.2584L3.2567 11.8274L3.03598 11.989L3.09489 12.0681L3.15206 12.0356ZM3.26823 11.9879L3.57267 12.2039L3.38237 12.3431L3.26523 11.9899L3.26823 11.9879ZM4.18706 12.0508L3.83311 11.5747C3.81664 11.5526 3.81926 11.5415 3.83602 11.526L3.86509 11.5001L3.80841 11.4238L3.57451 11.5948L3.63342 11.6741L3.68933 11.6378L4.04182 12.1119C4.06042 12.1368 4.05616 12.1479 4.03949 12.1633L4.0113 12.1884L4.06808 12.2648L4.30198 12.0937L4.24307 12.0145L4.18706 12.0508ZM4.1172 11.1981L3.9177 11.3441L3.97661 11.4233L4.03262 11.3871L4.3512 11.8825C4.36893 11.9085 4.36602 11.9213 4.34926 11.9367L4.32106 11.9619L4.37784 12.0383L4.59963 11.8761L4.54072 11.7969L4.48685 11.8316L4.20731 11.4097L4.20935 11.4081L4.6753 11.7045L4.76842 11.6364L4.62434 11.1L4.62637 11.0985L4.92558 11.4609C4.94534 11.4853 4.94893 11.4965 4.92955 11.5124L4.89932 11.5389L4.9561 11.6153L5.17992 11.4517L5.12101 11.3724L5.06617 11.408L4.68334 10.9562C4.66658 10.9359 4.66997 10.9194 4.6877 10.9033L4.71377 10.8796L4.65709 10.8033L4.45555 10.9507L4.61775 11.5218L4.61465 11.524L4.1172 11.1981ZM5.24038 10.958C5.32652 10.9244 5.3986 10.9058 5.44715 10.9711C5.50548 11.0494 5.46236 11.1134 5.39647 11.1615C5.36818 11.1823 5.32981 11.2042 5.30975 11.211C5.29086 11.2171 5.28175 11.2113 5.26906 11.1942L5.21838 11.1259L5.12614 11.2058L5.24706 11.3684C5.32051 11.3536 5.40316 11.3071 5.47302 11.256C5.63405 11.1382 5.66816 10.997 5.5703 10.8655C5.47243 10.734 5.35074 10.7701 5.23611 10.8092C5.14019 10.8421 5.0713 10.863 5.02353 10.7989C4.97422 10.7325 5.01472 10.6734 5.06936 10.6334C5.09271 10.6164 5.12915 10.596 5.14726 10.589C5.16722 10.5821 5.17527 10.5887 5.18786 10.6058L5.23641 10.671L5.32942 10.5921L5.21218 10.4346C5.14368 10.4475 5.05977 10.4902 4.99602 10.5368C4.8532 10.6412 4.81434 10.7844 4.90542 10.9069C5.00096 11.0353 5.12856 11.0009 5.24038 10.958Z" fill="#55079B"/>
</svg>
