<svg width="43" height="40" viewBox="0 0 43 40" fill="none" xmlns="http://www.w3.org/2000/svg">
<g id="Group 140">
<path id="Vector" d="M20.5 27.7476L20.5 27.7477C20.7423 27.8484 21.0045 27.9005 21.2698 27.9005C21.5352 27.9005 21.7974 27.8484 22.0397 27.7477L22.0438 27.746L22.0438 27.7461C22.2928 27.6553 22.5199 27.5194 22.7123 27.3463C22.7126 27.3461 22.7128 27.3459 22.7131 27.3457L31.2194 19.3472C31.6006 18.9888 31.8135 18.504 31.8135 18C31.8135 17.496 31.6006 17.0112 31.2194 16.6529C30.8381 16.2943 30.3196 16.0918 29.7778 16.0918C29.236 16.0918 28.7176 16.2942 28.3363 16.6527L20.5 27.7476ZM20.5 27.7476L20.4958 27.7461M20.5 27.7476L20.4958 27.7461M20.4958 27.7461C20.2469 27.6553 20.0197 27.5194 19.8273 27.3463M20.4958 27.7461L19.8273 27.3463M19.8273 27.3463C19.8271 27.3461 19.8268 27.3459 19.8266 27.3457M19.8273 27.3463L19.8266 27.3457M19.8266 27.3457L11.3202 19.3472C11.1315 19.1697 10.9821 18.9593 10.8803 18.7282C10.7785 18.4971 10.7262 18.2497 10.7262 18C10.7262 17.7503 10.7785 17.5029 10.8803 17.2718C10.9821 17.0407 11.1315 16.8303 11.3202 16.6529C11.509 16.4753 11.7335 16.3342 11.9809 16.2379C12.2283 16.1415 12.4937 16.0918 12.7619 16.0918C13.0301 16.0918 13.2955 16.1415 13.5429 16.2379C13.7903 16.3342 14.0147 16.4753 14.2034 16.6527L19.8266 27.3457ZM23.4655 21.2527L28.3361 16.6529H14.2036L19.0742 21.2527L19.2429 21.412V21.18V2C19.2429 1.49814 19.4548 1.0155 19.8343 0.658638C20.2141 0.301581 20.7303 0.1 21.2698 0.1C21.8093 0.1 22.3256 0.301581 22.7053 0.658638C23.0849 1.0155 23.2968 1.49814 23.2968 2V21.18V21.412L23.4655 21.2527ZM38.9772 24.6586C39.3569 24.3016 39.8732 24.1 40.4127 24.1C40.9522 24.1 41.4685 24.3016 41.8482 24.6586C42.2277 25.0155 42.4397 25.4981 42.4397 26V34C42.4397 35.5627 41.7795 37.0628 40.6022 38.1698C39.4247 39.277 37.8265 39.9 36.1587 39.9H6.38095C4.71322 39.9 3.11494 39.277 1.93744 38.1698C0.760147 37.0628 0.1 35.5627 0.1 34V26C0.1 25.4981 0.311963 25.0155 0.691482 24.6586C1.07121 24.3016 1.58748 24.1 2.12698 24.1C2.66649 24.1 3.18276 24.3016 3.56249 24.6586C3.94201 25.0155 4.15397 25.4981 4.15397 26V34C4.15397 34.559 4.39019 35.0938 4.80844 35.4871C5.22649 35.8802 5.79224 36.1 6.38095 36.1H36.1587C36.7474 36.1 37.3132 35.8802 37.7312 35.4871C38.1495 35.0938 38.3857 34.559 38.3857 34V26C38.3857 25.4981 38.5977 25.0155 38.9772 24.6586Z" fill="#55079B" stroke="white" stroke-width="0.2"/>
</g>
</svg>
