<svg width="347" height="347" viewBox="0 0 347 347" fill="none" xmlns="http://www.w3.org/2000/svg">
<path d="M205.754 0.000138152C194.547 -0.0176455 92.2948 1.54392 36.4203 85.9044C6.67846 130.809 -13.2777 204.241 15.8762 244.25C24.4856 256.065 28.9983 253.466 75.0185 281.432C138.188 319.82 137.893 329.704 164.043 338.488C198.086 349.922 248.386 349.898 286.063 321.82C328.816 289.959 335.138 237.016 341.47 183.989C347.685 131.949 353.981 79.2223 320.926 40.388C286.658 0.128222 231.582 0.0410028 205.754 0.000138152Z" fill="#F3E7FF"/>
<path d="M337.976 230.877L140.229 203.377C135.264 202.743 131.544 198.518 131.544 193.513L128.831 55.5828C128.831 55.5828 133.339 52.3331 135.894 51.0876C137.194 50.4539 138.691 50.1761 140.248 50.3748L337.406 75.5183C342.371 76.1515 346.092 80.3766 346.092 85.3818V220.855C346.092 223.279 344.984 225.416 343.271 226.825C341.693 228.123 337.976 230.877 337.976 230.877Z" fill="#D4ACF7"/>
<path d="M331.941 232.71L134.783 207.567C129.818 206.934 126.097 202.709 126.097 197.703V62.23C126.097 57.5746 130.183 53.9763 134.802 54.5652L331.96 79.7087C336.925 80.3419 340.645 84.567 340.645 89.5722V225.046C340.646 229.701 336.559 233.299 331.941 232.71Z" fill="white"/>
<path d="M327.751 227.125L139.495 203.117C135.884 202.657 133.178 199.584 133.178 195.944V65.2677C133.178 62.1584 135.908 59.7554 138.992 60.1487L327.248 84.1568C330.859 84.6173 333.564 87.6897 333.564 91.3297V222.006C333.564 225.116 330.835 227.519 327.751 227.125Z" fill="#F3E7FF"/>
<path d="M332.918 233.396C332.567 233.396 332.215 233.374 331.863 233.329L134.704 208.186C129.441 207.515 125.473 203.007 125.473 197.702V62.2289C125.473 59.8305 126.505 57.5463 128.305 55.9615C130.104 54.3766 132.501 53.6422 134.881 53.9447L332.039 79.0878C337.302 79.7592 341.27 84.2663 341.27 89.5715V225.045C341.27 227.443 340.238 229.727 338.438 231.312C336.905 232.663 334.938 233.396 332.918 233.396ZM332.02 232.089C334.045 232.347 336.082 231.723 337.612 230.375C339.143 229.027 340.021 227.084 340.021 225.045V89.5715C340.021 84.8932 336.522 80.9191 331.881 80.3274L134.723 55.1843C132.701 54.9268 130.661 55.5511 129.131 56.8992C127.6 58.247 126.722 60.1894 126.722 62.2289V197.702C126.722 202.38 130.222 206.355 134.862 206.946L332.02 232.089Z" fill="#9D69CC"/>
<path d="M216.919 312.493L14.1498 286.343C12.5627 286.14 11.6677 284.811 11.6881 283.483C11.7021 282.566 11.7764 276.112 11.7764 276.112L118.991 214.819C124.363 211.751 131.313 210.566 137.449 211.352L337.658 237.179C338.864 237.334 339.897 238.116 340.374 239.234L340.696 239.987C340.696 239.987 340.524 245.37 340.594 246.628C340.648 247.611 340.206 248.626 339.176 249.214L234.653 308.977C229.281 312.045 223.056 313.279 216.919 312.493Z" fill="#D4ACF7"/>
<path d="M39.0891 282.339L14.8749 279.211C12.1929 278.868 11.4875 275.31 13.8353 273.969L117.798 214.592C123.17 211.524 129.395 210.289 135.531 211.075L337.575 237.176C340.257 237.519 340.963 241.076 338.615 242.417L234.653 301.795C229.281 304.863 223.056 306.097 216.919 305.311L39.0891 282.339Z" fill="white"/>
<path d="M256.477 272.351L81.2787 249.553C78.8563 249.243 78.2191 246.03 80.3397 244.819L121.534 221.529C126.386 218.758 132.009 217.643 137.551 218.353L312.749 241.15C315.172 241.461 315.809 244.673 313.688 245.884L272.494 269.174C267.642 271.946 262.02 273.061 256.477 272.351Z" fill="#F3E7FF"/>
<path d="M220.49 306.162C219.271 306.162 218.052 306.085 216.84 305.931L117.897 293.24C117.555 293.196 117.313 292.883 117.357 292.541C117.401 292.199 117.716 291.961 118.056 292.001L216.999 304.691C222.962 305.456 229.121 304.233 234.343 301.251L338.305 241.874C339.316 241.297 339.517 240.292 339.369 239.543C339.221 238.795 338.651 237.942 337.496 237.794L135.451 211.694C129.489 210.93 123.328 212.152 118.108 215.134L103.542 223.454C103.242 223.624 102.861 223.521 102.689 223.221C102.518 222.921 102.622 222.54 102.922 222.368L117.488 214.049C122.943 210.934 129.382 209.659 135.61 210.455L337.656 236.555C339.148 236.747 340.302 237.824 340.594 239.301C340.887 240.777 340.231 242.213 338.925 242.959L234.963 302.336C230.568 304.846 225.537 306.162 220.49 306.162Z" fill="#D4ACF7"/>
<path d="M312.081 220.708L156.376 201.015C153.696 200.676 151.523 198.107 151.523 195.277V5.28218C151.523 2.45249 153.696 0.43348 156.376 0.772505L312.081 20.4657C314.761 20.8047 316.934 23.3733 316.934 26.203V216.198C316.934 219.028 314.761 221.047 312.081 220.708Z" fill="#D4ACF7"/>
<path d="M287.814 115.595L181.046 102.091C179.929 101.95 179.024 100.88 179.024 99.7011V89.4539C179.024 88.2749 179.929 87.4337 181.046 87.5751L287.814 101.079C288.931 101.22 289.836 102.29 289.836 103.469V113.716C289.836 114.896 288.931 115.737 287.814 115.595Z" fill="white"/>
<path d="M288.621 144.728L181.047 131.123C180.153 131.009 179.428 130.153 179.428 129.209V118.11C179.428 117.167 180.153 116.493 181.047 116.606L288.621 130.212C289.515 130.325 290.24 131.182 290.24 132.126V143.224C290.24 144.168 289.515 144.841 288.621 144.728Z" fill="white"/>
<path d="M271.841 172.921L197.021 163.457C195.793 163.302 194.797 162.126 194.797 160.829V151.007C194.797 149.71 195.793 148.786 197.021 148.941L271.841 158.404C273.069 158.559 274.064 159.736 274.064 161.032V170.855C274.064 172.151 273.069 173.076 271.841 172.921Z" fill="#F3E7FF"/>
<path d="M251.264 75.6597C260.667 67.6684 260.978 52.5862 251.957 41.9727C242.937 31.3592 228.003 29.2335 218.6 37.2248C209.197 45.2161 208.886 60.2983 217.906 70.9118C226.926 81.5253 241.861 83.651 251.264 75.6597Z" fill="#9D69CC"/>
<path d="M240.232 59.8281C243.514 57.0387 243.623 51.7742 240.474 48.0695C237.326 44.3648 232.112 43.6228 228.83 46.4122C225.548 49.2016 225.44 54.4662 228.588 58.1709C231.737 61.8756 236.95 62.6176 240.232 59.8281Z" fill="white"/>
<path d="M217.657 70.6201C220.475 67.8214 223.895 65.0801 227.539 63.4417C228.419 63.0459 229.462 63.0605 230.427 63.4841C234.135 65.113 237.021 64.9276 240.225 64.115C241.003 63.9177 241.866 64.0581 242.609 64.5216C246.616 67.0212 250.081 70.2275 252.718 74.2913C242.307 84.7564 225.63 81.0436 217.657 70.6201Z" fill="white"/>
<path d="M234.928 81.3448C221.366 79.7 210.334 67.192 210.334 53.4628C210.334 39.7338 221.366 29.9021 234.928 31.5469C248.489 33.1917 259.522 45.6997 259.522 59.4288C259.522 73.158 248.489 82.9896 234.928 81.3448ZM234.928 33.5757C222.472 32.0649 212.338 41.0956 212.338 53.7059C212.338 66.3162 222.472 77.8051 234.928 79.3159C247.384 80.8268 257.518 71.7961 257.518 59.1857C257.518 46.5756 247.384 35.0866 234.928 33.5757Z" fill="#F3E7FF"/>
<path d="M36.9695 173.19C31.1997 175.331 26.3008 179.839 22.9675 185.772C14.4624 200.912 -7.73581 245.289 2.76375 279.555C15.6246 321.528 124.353 320.405 152.689 302.542C159.889 298.004 189.345 267.388 151.538 241.939C116.884 218.612 102.562 235.736 86.5826 226.545C70.6032 217.355 59.0616 180.473 53.1663 175.231C49.3591 171.847 43.436 170.79 36.9695 173.19Z" fill="#A982CC"/>
<path d="M70.4156 274.19C70.2557 274.19 70.0959 274.129 69.974 274.008C55.6065 259.65 22.1953 257.95 21.8593 257.934C21.5148 257.919 21.2485 257.627 21.2643 257.282C21.2802 256.937 21.5799 256.677 21.917 256.687C23.308 256.751 56.1501 258.427 70.8572 273.124C71.1012 273.368 71.1012 273.763 70.8575 274.007C70.7357 274.129 70.5755 274.19 70.4156 274.19Z" fill="#D4ACF7"/>
<path d="M104.075 274.979C103.99 274.979 103.904 274.962 103.822 274.924C92.6176 269.94 84.7095 274.411 84.631 274.456C84.3336 274.63 83.9515 274.53 83.777 274.232C83.603 273.935 83.7027 273.553 83.9999 273.378C84.3416 273.178 92.51 268.524 104.329 273.783C104.644 273.923 104.786 274.292 104.646 274.608C104.543 274.84 104.314 274.979 104.075 274.979Z" fill="#D4ACF7"/>
<path d="M155.098 301.539C155.198 301.867 167.202 315.433 167.202 315.433L159.2 318.584L149.534 306.818L155.098 301.539Z" fill="white"/>
<path d="M159.2 319.209C159.017 319.209 158.838 319.128 158.717 318.981L149.051 307.214C148.843 306.961 148.866 306.59 149.104 306.365L154.669 301.086C154.826 300.937 155.049 300.881 155.258 300.935C155.427 300.98 155.567 301.092 155.648 301.242C156.133 301.931 163.081 309.834 167.67 315.02C167.805 315.172 167.857 315.381 167.81 315.58C167.763 315.778 167.621 315.941 167.431 316.015L159.429 319.165C159.354 319.195 159.276 319.209 159.2 319.209ZM150.386 306.871L159.394 317.836L166.143 315.179C158.617 306.67 155.978 303.607 155.038 302.458L150.386 306.871Z" fill="#263238"/>
<path d="M159.063 313.059C159.371 312.38 159.905 311.604 160.823 311.11C162.206 310.367 163.918 310.62 165.125 311.625C168.142 314.138 176.329 321.243 180.961 328.047C182.598 330.451 181.645 333.513 177.752 333.302C171.372 332.957 161.3 329.95 153.085 322.286C152.142 321.407 151.7 320.11 151.938 318.842C152.132 317.806 152.449 316.512 152.955 315.295C153.439 314.132 154.708 313.505 155.933 313.796L157.036 314.058C157.864 314.255 158.711 313.835 159.063 313.059Z" fill="white"/>
<path d="M178.137 333.938C178.002 333.938 177.863 333.934 177.719 333.927C171.01 333.563 160.904 330.435 152.659 322.744C151.546 321.706 151.047 320.205 151.324 318.727C151.581 317.355 151.936 316.119 152.378 315.056C152.98 313.608 154.535 312.821 156.077 313.189L157.181 313.451C157.713 313.577 158.266 313.305 158.494 312.802C158.944 311.809 159.647 311.034 160.528 310.561C162.089 309.721 164.097 309.957 165.524 311.146C168.777 313.854 176.843 320.888 181.478 327.696C182.458 329.136 182.625 330.816 181.913 332.078C181.512 332.79 180.497 333.938 178.137 333.938ZM155.322 314.349C154.548 314.349 153.836 314.802 153.531 315.536C153.122 316.519 152.793 317.67 152.552 318.958C152.354 320.012 152.712 321.086 153.511 321.831C161.511 329.294 171.296 332.328 177.786 332.679C179.262 332.763 180.338 332.328 180.825 331.465C181.302 330.619 181.157 329.444 180.445 328.399C175.899 321.723 167.937 314.781 164.725 312.106C163.685 311.24 162.236 311.061 161.119 311.661C160.473 312.008 159.972 312.566 159.632 313.318C159.158 314.364 158.003 314.933 156.892 314.666L155.788 314.404C155.632 314.367 155.476 314.349 155.322 314.349Z" fill="#263238"/>
<path d="M176.427 330.783C172.727 330.783 165.745 329.205 154.714 320.845C154.439 320.636 154.385 320.244 154.594 319.97C154.803 319.695 155.194 319.641 155.469 319.849C172.183 332.516 179.047 329.139 179.114 329.103C179.419 328.942 179.797 329.058 179.958 329.363C180.119 329.668 180.003 330.047 179.698 330.208C179.587 330.266 178.545 330.783 176.427 330.783Z" fill="#263238"/>
<path d="M169.496 323.61C169.344 323.61 169.192 323.555 169.071 323.444C168.818 323.209 168.803 322.814 169.037 322.561L172.277 319.065C172.512 318.812 172.907 318.797 173.16 319.032C173.413 319.266 173.428 319.662 173.193 319.915L169.954 323.41C169.831 323.543 169.663 323.61 169.496 323.61Z" fill="#263238"/>
<path d="M166.63 321.254C166.471 321.254 166.312 321.194 166.19 321.073C165.945 320.83 165.943 320.434 166.186 320.189L169.754 316.594C169.996 316.349 170.391 316.347 170.637 316.591C170.882 316.833 170.883 317.229 170.64 317.474L167.073 321.069C166.951 321.192 166.79 321.254 166.63 321.254Z" fill="#263238"/>
<path d="M130.065 308.793L126.379 324.978L120.318 320.365L123.12 304.808L130.065 308.793Z" fill="white"/>
<path d="M126.378 325.603C126.244 325.603 126.11 325.56 126 325.475L119.94 320.862C119.754 320.72 119.662 320.485 119.704 320.254L122.505 304.697C122.541 304.497 122.672 304.327 122.856 304.241C123.041 304.155 123.255 304.164 123.431 304.265L130.375 308.251C130.613 308.388 130.735 308.664 130.674 308.932L126.988 325.117C126.941 325.324 126.791 325.493 126.592 325.565C126.522 325.591 126.45 325.603 126.378 325.603ZM121.001 320.099L125.985 323.894L129.353 309.105L123.577 305.79L121.001 320.099Z" fill="#263238"/>
<path d="M128.466 322.046C128.096 327.082 127.207 337.209 123.398 344.39C122.376 346.317 118.387 346.173 116.938 343.546C113.918 338.07 110.059 328.764 112.33 317.528C112.507 316.65 113.093 315.907 113.906 315.531C114.859 315.089 116.366 314.535 118.512 314.144C119.58 313.949 120.594 314.699 120.724 315.778L121.203 319.738L121.708 319.081C122.467 318.093 123.802 317.75 124.943 318.251C125.558 318.521 126.237 318.82 126.851 319.089C127.999 319.594 128.558 320.794 128.466 322.046Z" fill="white"/>
<path d="M120.752 346.321C118.93 346.321 117.221 345.353 116.392 343.848C111.526 335.027 109.954 326.13 111.717 317.404C111.934 316.335 112.653 315.422 113.643 314.964C114.564 314.537 116.137 313.942 118.4 313.529C119.079 313.406 119.783 313.57 120.338 313.978C120.895 314.389 121.262 315.017 121.345 315.702L121.65 318.231C122.61 317.383 123.986 317.147 125.195 317.679L127.103 318.517C128.426 319.099 129.206 320.501 129.09 322.091C128.617 328.52 127.57 337.856 123.95 344.683C123.412 345.696 122.233 346.308 120.794 346.32C120.78 346.32 120.765 346.321 120.752 346.321ZM118.852 314.738C118.777 314.738 118.7 314.745 118.624 314.758C116.49 315.147 115.023 315.701 114.168 316.098C113.538 316.389 113.079 316.97 112.941 317.652C111.239 326.079 112.767 334.69 117.485 343.245C118.236 344.607 119.719 345.083 120.783 345.071C121.741 345.063 122.532 344.69 122.846 344.097C126.762 336.714 127.548 326.024 127.843 321.999C127.922 320.929 127.446 320.033 126.6 319.661L124.692 318.823C123.812 318.437 122.789 318.699 122.203 319.462L121.698 320.119C121.543 320.32 121.283 320.407 121.038 320.34C120.793 320.273 120.613 320.065 120.582 319.813L120.104 315.853C120.061 315.503 119.881 315.195 119.597 314.985C119.377 314.822 119.118 314.738 118.852 314.738Z" fill="#263238"/>
<path d="M120.075 343.167C119.869 343.167 119.667 343.065 119.548 342.878C112.481 331.78 114.082 318.999 114.153 318.461C114.199 318.119 114.506 317.876 114.855 317.924C115.196 317.969 115.437 318.283 115.392 318.625C115.375 318.753 113.786 331.503 120.602 342.207C120.787 342.498 120.701 342.884 120.41 343.069C120.306 343.135 120.19 343.167 120.075 343.167Z" fill="#263238"/>
<path d="M127.225 329.572C127.168 329.572 127.11 329.564 127.052 329.548L122.339 328.189C122.007 328.093 121.816 327.747 121.912 327.416C122.007 327.084 122.354 326.893 122.685 326.988L127.398 328.347C127.73 328.443 127.921 328.789 127.825 329.12C127.747 329.394 127.497 329.572 127.225 329.572Z" fill="#263238"/>
<path d="M126.319 333.671C126.246 333.671 126.172 333.659 126.099 333.631L121.649 331.957C121.326 331.835 121.163 331.475 121.284 331.152C121.406 330.829 121.767 330.666 122.089 330.787L126.54 332.462C126.862 332.584 127.026 332.944 126.904 333.267C126.81 333.517 126.572 333.671 126.319 333.671Z" fill="#263238"/>
<path d="M88.9721 234.848C88.9721 234.848 111.533 232.165 131.86 243.665C136.983 246.563 140.125 252.014 140.093 257.901C140.029 269.587 138.792 290.948 131.632 309.491C131.225 310.546 130.016 311.045 128.982 310.587L119.833 306.537C119.219 306.265 118.784 305.701 118.68 305.037C118.007 300.754 115.734 284.463 118.011 272.645C120.655 258.929 76.46 244.392 76.46 244.392L88.9721 234.848Z" fill="#263238"/>
<path d="M157.564 304.39L149.409 309.749C148.864 310.107 148.14 310.016 147.701 309.534C142.684 304.034 114.36 273.145 107.258 269.1C99.4584 264.657 84.8841 257.97 71.6481 258.049C58.4122 258.129 55.6201 248.935 55.6201 248.935L74.4945 236.739C74.4945 236.739 107.155 240.437 120.957 251.663C133.42 261.799 154.082 296.051 157.977 302.606C158.339 303.216 158.156 304.001 157.564 304.39Z" fill="#263238"/>
<path d="M139.944 274.233C139.75 274.233 139.559 274.143 139.437 273.973C133.933 266.315 125.369 256.057 120.563 252.148C115.364 247.92 106.869 244.274 95.3139 241.314C94.9796 241.228 94.7783 240.888 94.8636 240.554C94.9495 240.219 95.2881 240.016 95.6237 240.103C107.355 243.109 116.011 246.835 121.352 251.179C126.239 255.154 134.9 265.519 140.451 273.244C140.652 273.524 140.588 273.914 140.308 274.116C140.198 274.195 140.071 274.233 139.944 274.233Z" fill="#A982CC"/>
<path d="M74.1963 207.02L76.6139 211.994C79.4913 217.915 83.9162 222.946 89.4193 226.554L91.6506 228.017C93.0809 228.954 94.7815 229.391 96.4861 229.258L96.7466 229.238C99.351 229.035 101.939 229.795 104.02 231.375L98.1695 233.256C94.602 234.402 90.7166 234.133 87.374 232.438C84.172 230.815 80.256 228.15 76.9918 223.898C70.1524 214.987 68.5708 209.501 68.5708 209.501L74.1963 207.02Z" fill="white"/>
<path d="M93.7286 234.583C91.4365 234.583 89.172 234.05 87.0915 232.995C82.851 230.845 79.2859 227.912 76.4964 224.277C69.6636 215.376 68.0364 209.902 67.9706 209.673C67.884 209.373 68.0329 209.055 68.3187 208.929L73.9444 206.448C74.2532 206.312 74.6119 206.444 74.7587 206.746L77.1759 211.722C80.0028 217.538 84.3552 222.487 89.7622 226.031L91.9933 227.494C93.3008 228.351 94.8788 228.754 96.4381 228.635L96.6981 228.615C99.4579 228.396 102.192 229.203 104.399 230.878C104.584 231.019 104.676 231.251 104.637 231.481C104.598 231.71 104.434 231.899 104.212 231.97L98.361 233.85C96.8363 234.34 95.2759 234.583 93.7286 234.583ZM69.3468 209.841C69.9141 211.391 71.9886 216.353 77.487 223.517C80.1621 227.002 83.5837 229.816 87.6566 231.881C90.8459 233.497 94.5114 233.775 97.9783 232.661L102.596 231.177C100.847 230.165 98.8274 229.703 96.7951 229.861L96.5348 229.881C94.6998 230.024 92.8449 229.546 91.3081 228.539L89.077 227.077C83.4814 223.408 78.9772 218.287 76.0516 212.268L73.8973 207.834L69.3468 209.841Z" fill="#263238"/>
<path d="M66.7469 254.728C66.7469 254.728 59.3281 260.392 55.2496 258.762C51.1711 257.133 58.1909 250.156 60.2591 249.886C62.3275 249.616 66.7469 254.728 66.7469 254.728Z" fill="#263238"/>
<path d="M68.0401 171.185C71.3778 170.721 75.1823 173.643 74.8043 178.625C74.4954 182.695 70.2498 183.924 68.2851 186.097C61.9303 193.126 68.0295 200.754 63.0614 207.765C58.3291 214.443 51.1462 209.846 41.5328 217.515C33.9643 223.553 61.4747 214.379 51.8441 220.749C44.1606 225.83 29.746 225.405 21.5997 216.066C13.8538 207.185 12.0724 193.854 20.0087 187.421C27.1428 181.638 32.1795 188.385 39.7869 182.959C47.2869 177.61 45.2248 172.424 49.9091 170.19C56.3148 167.134 58.5803 172.497 68.0401 171.185Z" fill="#263238"/>
<path d="M28.5613 220.932C28.9868 218.43 29.6062 215.488 30.2373 213.548C32.1799 207.578 33.5051 203.695 40.1642 200.145C41.161 199.614 42.208 199.182 43.2796 198.824L47.3034 197.481C47.3034 197.481 63.913 192.732 70.565 199.151C71.104 199.672 71.7862 200.259 72.2227 200.946L76.5574 207.481L76.5176 207.498C72.6663 209.073 71.0542 213.677 73.1143 217.292C75.4831 221.449 78.7481 226.304 81.9969 228.323C83.0232 228.961 91.2911 232.359 91.2911 232.359C91.2911 232.359 93.3213 238.545 80.5969 243.85C67.8725 249.154 58.6008 251.076 55.9311 257.627C54.3506 261.505 47.9162 242.914 43.7733 225.494C42.9761 222.142 39.8399 219.885 36.4094 220.204L28.5613 220.932Z" fill="white"/>
<path d="M55.3879 258.77C55.359 258.77 55.3314 258.769 55.3058 258.767C54.7038 258.721 53.2944 258.612 49.5511 247.871C47.3533 241.564 45.0259 233.461 43.1656 225.638C42.4446 222.607 39.5591 220.538 36.467 220.826L28.6191 221.554C28.4281 221.575 28.2353 221.499 28.1034 221.357C27.9712 221.215 27.9131 221.019 27.9456 220.828C28.4483 217.87 29.0832 215.076 29.6432 213.355C31.5429 207.518 32.9154 203.301 39.8707 199.594C40.8488 199.072 41.8994 198.627 43.0816 198.232L47.1058 196.889C47.824 196.683 64.1664 192.108 70.9992 198.702C71.0894 198.789 71.1838 198.878 71.2805 198.969C71.7799 199.441 72.346 199.975 72.7499 200.611L77.078 207.136C77.1813 207.292 77.2093 207.486 77.1544 207.665C77.0991 207.844 76.9669 207.989 76.7932 208.059L76.7533 208.076C75.0762 208.762 73.7744 210.138 73.183 211.853C72.5957 213.554 72.7686 215.424 73.6567 216.983C76.7862 222.475 79.7839 226.212 82.3264 227.792C83.047 228.24 88.2242 230.423 91.5285 231.78C91.6973 231.85 91.8274 231.99 91.8844 232.164C91.9746 232.438 93.9443 238.963 80.8371 244.426C77.97 245.621 75.2249 246.665 72.8025 247.586C64.4858 250.75 58.477 253.035 56.5092 257.863C56.1959 258.632 55.7014 258.77 55.3879 258.77ZM37.0414 219.55C40.4852 219.55 43.5709 221.942 44.381 225.349C48.377 242.151 53.5392 256.377 55.316 257.473C55.327 257.451 55.3397 257.424 55.3531 257.391C57.5252 252.061 63.7472 249.694 72.3589 246.419C74.7721 245.501 77.5076 244.46 80.3568 243.273C90.8454 238.901 90.9002 233.984 90.7457 232.809C89.0876 232.126 82.6278 229.45 81.6671 228.854C78.9097 227.14 75.8494 223.354 72.5715 217.601C71.5052 215.731 71.2977 213.486 72.002 211.445C72.6328 209.617 73.9374 208.109 75.6346 207.22L71.702 201.291C71.3751 200.777 70.8696 200.299 70.4229 199.878C70.3228 199.783 70.2248 199.691 70.1314 199.601C63.8113 193.502 47.6382 198.035 47.4751 198.082L43.4774 199.417C42.3623 199.789 41.3744 200.208 40.4585 200.696C33.9478 204.167 32.7079 207.976 30.8319 213.741C30.3394 215.253 29.7851 217.639 29.3178 220.235L36.3518 219.582C36.5826 219.56 36.8133 219.55 37.0414 219.55Z" fill="#263238"/>
<path d="M78.1503 236.574L71.9881 234.818C71.0722 234.557 70.0866 234.793 69.3873 235.44L66.7105 237.916C66.1995 238.388 65.5279 238.645 64.8321 238.638C61.795 238.606 47.7962 235.36 46.2647 233.037C45.5076 231.889 44.3585 227.871 43.4905 224.542C42.7633 221.754 40.1243 219.904 37.2552 220.172L31.0745 220.751C31.0745 220.751 33.7227 235.568 39.0546 240.058C43.194 243.544 52.5519 244.882 65.9263 243.325C65.9263 243.325 68.714 242.852 70.9093 239.913C72.3114 238.036 76.0233 238.757 78.1643 238.104C78.9247 237.872 78.9148 236.792 78.1503 236.574Z" fill="white"/>
<path d="M55.6721 244.593C47.7188 244.593 41.8313 243.213 38.6526 240.536C33.2104 235.953 30.5697 221.475 30.4598 220.861C30.4289 220.689 30.4715 220.512 30.5773 220.373C30.6834 220.234 30.8425 220.145 31.0165 220.129L37.1975 219.55C40.3867 219.253 43.2869 221.285 44.0953 224.385C45.6818 230.469 46.4622 232.202 46.7863 232.694C48.0811 234.657 61.5061 237.978 64.8388 238.013C65.3652 238.018 65.893 237.821 66.2863 237.457L68.9635 234.981C69.8171 234.191 71.0421 233.899 72.1593 234.218L78.3219 235.973C78.9335 236.148 79.348 236.692 79.3537 237.328C79.3598 237.963 78.9547 238.515 78.3467 238.701C77.5292 238.95 76.5683 239.012 75.5507 239.078C73.8788 239.186 72.15 239.297 71.4097 240.287C69.0916 243.39 66.1548 243.92 66.0309 243.941C62.2829 244.378 58.8155 244.593 55.6721 244.593ZM31.8195 221.309C32.408 224.221 34.9904 235.819 39.4572 239.58C43.566 243.04 53.1879 244.179 65.8542 242.705C65.8478 242.705 68.405 242.222 70.4095 239.54C71.4941 238.087 73.6068 237.951 75.4706 237.831C76.4134 237.771 77.3035 237.713 77.9823 237.506C78.064 237.481 78.1051 237.425 78.1047 237.34C78.1039 237.254 78.0616 237.198 77.9795 237.175L71.8174 235.419C71.1152 235.219 70.3472 235.403 69.812 235.898L67.1352 238.374C66.5158 238.948 65.7099 239.262 64.8623 239.262C64.85 239.262 64.8379 239.262 64.826 239.262C61.8364 239.231 47.4555 235.977 45.7437 233.381C45.0921 232.393 44.1313 229.472 42.8868 224.7C42.2331 222.195 39.8912 220.558 37.3139 220.794L31.8195 221.309Z" fill="#263238"/>
<path d="M47.9923 197.59C47.9923 197.59 51.4618 186.404 51.5804 185.046C51.5804 185.046 50.4757 184.464 50.5378 182.761C50.6558 179.521 53.8692 181.126 53.8692 181.126L54.185 181.202C56.028 181.646 57.96 181.55 59.7501 180.926L63.5087 179.614C63.5087 179.614 64.2963 180.995 63.3797 183.66C62.9429 184.931 63.0278 186.407 63.2586 187.951C63.3195 188.358 63.0393 188.738 62.6322 188.801L61.6276 188.955C61.1045 190.172 60.6349 190.895 59.7656 191.676C59.528 191.89 59.216 192.007 58.8969 191.99C58.4644 191.968 57.7958 191.875 57.0464 191.561L56.4811 196.307L58.9754 196.246C58.9754 196.246 59.8746 199.221 55.1528 201.374C52.5462 202.562 48.855 202.321 46.0707 201.866C44.6423 201.632 44.2876 199.743 45.5389 199.016L47.9923 197.59Z" fill="white"/>
<path d="M50.2889 202.861C48.7578 202.861 47.246 202.69 45.9703 202.482C45.0541 202.333 44.3534 201.646 44.185 200.735C44.0177 199.827 44.4262 198.94 45.2253 198.476L47.4678 197.172C48.7444 193.048 50.5619 186.975 50.9044 185.316C50.4795 184.934 49.8629 184.134 49.9136 182.737C49.9546 181.613 50.3325 180.831 51.0374 180.412C52.1859 179.731 53.7064 180.36 54.0803 180.534L54.3317 180.594C56.0622 181.011 57.8646 180.921 59.5446 180.336L63.3032 179.024C63.5862 178.926 63.9027 179.042 64.0514 179.304C64.0893 179.37 64.9677 180.964 63.9705 183.863C63.5459 185.098 63.685 186.575 63.8768 187.858C63.9882 188.603 63.4731 189.303 62.7275 189.418L62.0604 189.52C61.5313 190.681 61.0176 191.391 60.1835 192.14C59.8212 192.466 59.3425 192.636 58.8646 192.613C58.5392 192.597 58.0907 192.544 57.5753 192.402L57.1869 195.664L58.9606 195.621C59.2461 195.634 59.4926 195.797 59.5734 196.065C59.6165 196.208 60.5713 199.589 55.4122 201.942C53.9117 202.626 52.0868 202.861 50.2889 202.861ZM52.2555 181.353C52.0404 181.353 51.8367 181.39 51.6732 181.488C51.3584 181.676 51.1865 182.112 51.162 182.783C51.1165 184.043 51.8501 184.48 51.8815 184.498C52.0923 184.619 52.224 184.857 52.2028 185.1C52.0815 186.485 48.9461 196.623 48.5889 197.775C48.5425 197.924 48.4417 198.051 48.3062 198.13L45.853 199.556C45.3373 199.856 45.3861 200.361 45.4134 200.509C45.4703 200.816 45.6992 201.172 46.1718 201.25C48.773 201.674 52.3995 201.943 54.8942 200.805C57.981 199.397 58.4115 197.693 58.4221 196.885L56.4964 196.931C56.3153 196.923 56.1409 196.861 56.0193 196.727C55.8972 196.593 55.8395 196.413 55.8611 196.233L56.4264 191.486C56.4495 191.292 56.5626 191.119 56.7323 191.021C56.9011 190.922 57.1073 190.91 57.2883 190.984C57.9562 191.264 58.5495 191.346 58.9293 191.366C59.0843 191.377 59.2307 191.317 59.3482 191.212C60.1152 190.522 60.5456 189.89 61.0539 188.708C61.1389 188.51 61.3199 188.37 61.533 188.337L62.5374 188.183C62.6045 188.173 62.6512 188.11 62.641 188.043C62.4267 186.611 62.2767 184.947 62.7886 183.457C63.292 181.993 63.2311 180.971 63.1161 180.412L59.9557 181.515C58.0491 182.181 56.0036 182.282 54.0383 181.809L53.7227 181.733C53.6767 181.722 53.6325 181.705 53.5901 181.684C53.3651 181.573 52.7779 181.353 52.2555 181.353Z" fill="#263238"/>
<path d="M57.0461 192.185C56.9574 192.185 56.8671 192.166 56.7814 192.126L56.0916 191.802C55.7793 191.656 55.6448 191.284 55.791 190.971C55.9371 190.659 56.3088 190.524 56.6219 190.671L57.3117 190.994C57.6241 191.141 57.7586 191.513 57.6123 191.825C57.5062 192.052 57.2809 192.185 57.0461 192.185Z" fill="#263238"/>
<path d="M107.875 230.735L79.418 239.389L88.9199 207.096C89.2711 205.881 90.2325 204.916 91.4672 204.541L114.562 197.518C116.029 197.072 117.397 198.372 116.98 199.816L107.875 230.735Z" fill="#263238"/>
<path d="M101.091 218.003C100.754 219.166 99.6363 220.367 98.5931 220.684C97.55 221.001 96.9769 220.315 97.3129 219.152C97.6491 217.988 98.7672 216.788 99.8102 216.471C100.854 216.154 101.427 216.84 101.091 218.003Z" fill="white"/>
<path d="M106.88 232.913L62.24 246.487C61.3178 246.768 60.3429 246.247 60.0627 245.324L59.9297 245.085L107.91 230.495L108.043 230.733C108.323 231.657 107.803 232.632 106.88 232.913Z" fill="#263238"/>
<path d="M136.612 72.3463L170.684 82.2488L194.859 55.3506L136.612 72.3463Z" fill="white"/>
<path d="M153.59 88.3323L148.833 75.8988L180.507 62.957L154.822 77.6393L161.944 79.7094L153.59 88.3323Z" fill="#F3E7FF"/>
<path d="M154.4 84.7596C154.376 84.7596 154.353 84.7584 154.329 84.755C154.011 84.7168 153.784 84.4273 153.823 84.1091L154.499 78.5404C154.537 78.222 154.833 77.9914 155.145 78.0345C155.463 78.0727 155.689 78.3622 155.651 78.6804L154.975 84.2491C154.939 84.5437 154.689 84.7596 154.4 84.7596Z" fill="white"/>
<path d="M11.095 169.662C10.9351 169.662 10.7753 169.601 10.6533 169.479C10.4092 169.236 10.4092 168.84 10.6533 168.596L12.106 167.143C12.3501 166.899 12.7453 166.899 12.9894 167.143C13.2334 167.387 13.2334 167.782 12.9894 168.026L11.5368 169.479C11.4147 169.601 11.2549 169.662 11.095 169.662Z" fill="#263238"/>
<path d="M16.5835 164.174C16.4237 164.174 16.2638 164.113 16.1418 163.991C15.8977 163.747 15.8977 163.351 16.1418 163.107L17.5949 161.655C17.839 161.411 18.2342 161.411 18.4782 161.655C18.7223 161.899 18.7223 162.294 18.4782 162.538L17.0251 163.991C16.9031 164.113 16.7434 164.174 16.5835 164.174Z" fill="#263238"/>
<path d="M18.0365 169.662C17.8766 169.662 17.717 169.601 17.5949 169.479L16.1418 168.026C15.8977 167.782 15.8977 167.387 16.1418 167.143C16.3858 166.899 16.781 166.899 17.0251 167.143L18.4782 168.596C18.7223 168.84 18.7223 169.235 18.4782 169.479C18.3562 169.601 18.1964 169.662 18.0365 169.662Z" fill="#263238"/>
<path d="M12.5478 164.174C12.3879 164.174 12.2281 164.113 12.106 163.991L10.6533 162.538C10.4092 162.294 10.4092 161.899 10.6533 161.655C10.8973 161.411 11.2925 161.411 11.5366 161.655L12.9892 163.107C13.2332 163.352 13.2332 163.747 12.9892 163.991C12.8673 164.113 12.7075 164.174 12.5478 164.174Z" fill="#263238"/>
<path d="M81.5324 16.6823C81.3594 16.6823 81.1875 16.6111 81.0643 16.4715C80.8358 16.2133 80.8598 15.8184 81.118 15.5899L82.6565 14.2283C82.9151 13.999 83.3105 14.0242 83.5381 14.282C83.7667 14.5403 83.7426 14.9351 83.4844 15.1638L81.9459 16.5254C81.8271 16.6306 81.6792 16.6823 81.5324 16.6823Z" fill="#263238"/>
<path d="M87.3458 11.5377C87.1729 11.5377 87.001 11.4666 86.8778 11.3271C86.6492 11.0685 86.6733 10.6741 86.9315 10.4453L88.4704 9.08375C88.729 8.85483 89.1244 8.87924 89.352 9.13748C89.5805 9.3961 89.5565 9.79075 89.2983 10.0193L87.7594 11.3809C87.6406 11.4861 87.4926 11.5377 87.3458 11.5377Z" fill="#263238"/>
<path d="M88.4611 17.105C88.2882 17.105 88.1162 17.0338 87.993 16.8942L86.6315 15.3554C86.4029 15.0967 86.4269 14.7023 86.6852 14.4736C86.9438 14.2443 87.3388 14.269 87.5668 14.5273L88.9284 16.0661C89.1569 16.3248 89.1329 16.7192 88.8747 16.9479C88.756 17.0533 88.6079 17.105 88.4611 17.105Z" fill="#263238"/>
<path d="M83.3172 11.2921C83.1443 11.2921 82.9723 11.221 82.8491 11.0815L81.4872 9.54267C81.2586 9.28443 81.2827 8.88959 81.5409 8.66105C81.7995 8.43176 82.1949 8.45654 82.4225 8.71478L83.7845 10.2536C84.013 10.5119 83.989 10.9067 83.7307 11.1353C83.6121 11.2404 83.464 11.2921 83.3172 11.2921Z" fill="#263238"/>
<path d="M66.7487 35.5929C66.6833 35.5929 66.6178 35.5908 66.552 35.5869C65.6972 35.5348 64.9142 35.1529 64.3474 34.5115C63.78 33.8706 63.4962 33.047 63.5486 32.1927C63.6007 31.3381 63.9826 30.5552 64.6234 29.988C65.2644 29.421 66.0826 29.1376 66.9429 29.1897C68.7063 29.2971 70.0531 30.8193 69.9458 32.5831C69.842 34.2809 68.427 35.5929 66.7487 35.5929ZM66.7442 30.4328C66.2667 30.4328 65.8117 30.6048 65.4513 30.9238C65.0601 31.2698 64.827 31.7477 64.7952 32.2687C64.7952 32.2691 64.7952 32.2691 64.7952 32.2691C64.7294 33.3452 65.5512 34.2741 66.6279 34.3399C67.7004 34.4065 68.6329 33.583 68.6987 32.5069C68.7642 31.4308 67.9423 30.5019 66.8666 30.4364C66.8256 30.434 66.7849 30.4328 66.7442 30.4328Z" fill="#263238"/>
<path d="M214.283 329.128C214.11 329.128 213.938 329.056 213.815 328.917C213.586 328.658 213.61 328.264 213.869 328.035L215.407 326.674C215.666 326.445 216.061 326.469 216.289 326.727C216.518 326.986 216.494 327.38 216.235 327.609L214.696 328.971C214.578 329.076 214.43 329.128 214.283 329.128Z" fill="#263238"/>
<path d="M220.096 323.984C219.923 323.984 219.751 323.913 219.628 323.773C219.399 323.515 219.424 323.12 219.682 322.892L221.221 321.53C221.479 321.301 221.874 321.326 222.102 321.584C222.331 321.842 222.307 322.237 222.049 322.465L220.51 323.827C220.391 323.933 220.243 323.984 220.096 323.984Z" fill="#263238"/>
<path d="M221.211 329.551C221.039 329.551 220.867 329.48 220.743 329.341L219.382 327.802C219.153 327.543 219.177 327.149 219.436 326.92C219.694 326.691 220.09 326.715 220.317 326.974L221.679 328.512C221.907 328.771 221.883 329.166 221.625 329.394C221.506 329.5 221.358 329.551 221.211 329.551Z" fill="#263238"/>
<path d="M216.068 323.738C215.895 323.738 215.723 323.667 215.6 323.527L214.238 321.988C214.009 321.73 214.034 321.335 214.292 321.106C214.55 320.877 214.945 320.902 215.173 321.16L216.535 322.699C216.763 322.958 216.74 323.352 216.481 323.581C216.363 323.686 216.215 323.738 216.068 323.738Z" fill="#263238"/>
<path d="M62.4494 134.545C60.9917 134.545 59.5225 134.498 58.0816 134.406C57.7375 134.384 57.476 134.088 57.498 133.743C57.5199 133.399 57.7952 133.132 58.1613 133.159C59.7928 133.263 61.459 133.308 63.1099 133.292C63.112 133.292 63.1139 133.292 63.1156 133.292C63.458 133.292 63.737 133.568 63.7403 133.911C63.7435 134.256 63.4661 134.538 63.1212 134.541C62.897 134.544 62.6734 134.545 62.4494 134.545ZM68.1035 134.318C67.7809 134.318 67.5077 134.07 67.4816 133.743C67.4544 133.399 67.7109 133.098 68.0547 133.07C69.6777 132.941 71.3339 132.754 72.9764 132.513C73.3209 132.464 73.6357 132.699 73.6853 133.04C73.7354 133.381 73.4991 133.699 73.1578 133.749C71.4881 133.994 69.8043 134.184 68.154 134.316C68.1368 134.317 68.1201 134.318 68.1035 134.318ZM53.1512 133.903C53.1223 133.903 53.0931 133.901 53.0638 133.897C51.4012 133.664 49.7311 133.364 48.0986 133.005C47.7618 132.931 47.5488 132.598 47.6228 132.261C47.6964 131.924 48.0295 131.709 48.367 131.785C49.9677 132.137 51.6063 132.431 53.2371 132.66C53.5788 132.708 53.8171 133.023 53.7691 133.365C53.7254 133.677 53.4579 133.903 53.1512 133.903ZM77.9848 132.876C77.6961 132.876 77.4361 132.674 77.3743 132.38C77.3031 132.042 77.519 131.711 77.8567 131.64C79.4493 131.305 81.0716 130.913 82.6797 130.476C83.0144 130.385 83.356 130.582 83.4463 130.915C83.5369 131.248 83.3405 131.592 83.0075 131.682C81.3764 132.125 79.73 132.522 78.1148 132.863C78.0711 132.871 78.0276 132.876 77.9848 132.876ZM43.3976 131.76C43.3378 131.76 43.2769 131.751 43.2166 131.733C41.6208 131.252 40.0159 130.699 38.4466 130.092C38.1244 129.967 37.9647 129.606 38.0894 129.284C38.2139 128.962 38.5769 128.802 38.897 128.927C40.4372 129.523 42.0118 130.065 43.5775 130.538C43.9077 130.637 44.0948 130.986 43.9947 131.316C43.9137 131.586 43.6655 131.76 43.3976 131.76ZM87.629 130.263C87.3666 130.263 87.1228 130.096 87.0357 129.834C86.9275 129.506 87.1057 129.153 87.433 129.044C88.9764 128.535 90.5503 127.971 92.1103 127.368C92.4329 127.244 92.7941 127.404 92.918 127.726C93.0421 128.048 92.8822 128.41 92.56 128.534C90.9809 129.144 89.3879 129.714 87.825 130.231C87.76 130.253 87.6937 130.263 87.629 130.263ZM34.0966 128.13C33.9969 128.13 33.8957 128.106 33.8016 128.056C32.3269 127.265 30.9146 126.274 29.6034 125.108C29.3455 124.879 29.3224 124.484 29.5517 124.226C29.7816 123.968 30.1756 123.945 30.4339 124.174C31.6714 125.275 33.0033 126.21 34.3923 126.955C34.6961 127.118 34.8108 127.496 34.6477 127.8C34.5351 128.01 34.3194 128.13 34.0966 128.13ZM96.957 126.666C96.7167 126.666 96.4876 126.526 96.3848 126.293C96.2458 125.977 96.3894 125.608 96.7049 125.469C98.198 124.812 99.7144 124.104 101.213 123.366C101.523 123.214 101.897 123.342 102.049 123.651C102.202 123.96 102.074 124.335 101.765 124.487C100.251 125.233 98.7177 125.948 97.2084 126.613C97.1265 126.648 97.0411 126.666 96.957 126.666ZM105.93 122.252C105.708 122.252 105.494 122.134 105.381 121.925C105.216 121.622 105.329 121.243 105.632 121.078C107.068 120.297 108.525 119.471 109.961 118.62C110.258 118.445 110.641 118.542 110.817 118.839C110.993 119.136 110.895 119.519 110.598 119.695C109.149 120.554 107.678 121.388 106.228 122.176C106.133 122.227 106.031 122.252 105.93 122.252ZM26.6484 121.588C26.4589 121.588 26.2717 121.502 26.149 121.339C25.1567 120.023 24.2448 118.571 23.4389 117.025C23.2796 116.719 23.3982 116.342 23.7041 116.183C24.0098 116.024 24.3872 116.141 24.5467 116.448C25.3211 117.933 26.1959 119.325 27.1471 120.587C27.3545 120.863 27.2996 121.254 27.024 121.462C26.9116 121.547 26.7795 121.588 26.6484 121.588ZM114.539 117.157C114.333 117.157 114.132 117.056 114.013 116.87C113.826 116.579 113.911 116.192 114.201 116.006C115.583 115.121 116.979 114.193 118.352 113.248C118.636 113.053 119.024 113.124 119.221 113.409C119.416 113.693 119.345 114.082 119.06 114.277C117.676 115.23 116.269 116.166 114.876 117.058C114.771 117.125 114.654 117.157 114.539 117.157ZM22.0107 112.778C21.7532 112.778 21.512 112.618 21.4213 112.361C20.8687 110.794 20.4054 109.151 20.0446 107.478C19.9724 107.14 20.1865 106.808 20.5238 106.735C20.8585 106.666 21.1932 106.877 21.2664 107.214C21.6158 108.836 22.0644 110.428 22.6 111.946C22.7146 112.271 22.5438 112.628 22.2186 112.743C22.1497 112.767 22.0797 112.778 22.0107 112.778ZM122.782 111.485C122.59 111.485 122.401 111.398 122.279 111.231C122.074 110.953 122.134 110.562 122.411 110.358C123.738 109.381 125.074 108.366 126.381 107.341C126.652 107.128 127.045 107.175 127.258 107.447C127.471 107.718 127.423 108.111 127.152 108.324C125.835 109.357 124.489 110.38 123.152 111.364C123.04 111.446 122.911 111.485 122.782 111.485ZM130.658 105.309C130.479 105.309 130.301 105.232 130.178 105.084C129.956 104.819 129.992 104.425 130.257 104.204C131.533 103.14 132.805 102.045 134.038 100.952C134.296 100.723 134.69 100.746 134.92 101.004C135.149 101.262 135.125 101.657 134.867 101.886C133.625 102.988 132.343 104.091 131.057 105.163C130.941 105.261 130.799 105.309 130.658 105.309ZM19.8959 103.034C19.5775 103.034 19.3055 102.791 19.2748 102.468C19.1475 101.112 19.0828 99.7363 19.0828 98.3764C19.0824 98.0527 19.086 97.7269 19.0934 97.4015C19.1011 97.0616 19.3793 96.791 19.7175 96.791C19.7224 96.791 19.7274 96.791 19.7323 96.791C20.0772 96.7992 20.3504 97.085 20.3428 97.4299C20.3354 97.7455 20.3318 98.0607 20.3322 98.3755C20.3322 99.6973 20.3948 101.035 20.5185 102.351C20.5511 102.694 20.2985 102.999 19.9553 103.031C19.9353 103.033 19.9154 103.034 19.8959 103.034ZM138.144 98.6596C137.978 98.6596 137.813 98.5942 137.69 98.4648C137.453 98.2147 137.464 97.8189 137.714 97.5818C139.358 96.0222 140.551 94.8151 141.263 94.0775C141.503 93.8287 141.899 93.8225 142.146 94.0612C142.395 94.3007 142.402 94.6965 142.162 94.9446C141.442 95.6917 140.234 96.9129 138.574 98.488C138.453 98.6027 138.298 98.6596 138.144 98.6596ZM20.1231 93.0612C20.0938 93.0612 20.0645 93.0591 20.035 93.0551C19.6933 93.0067 19.4555 92.6907 19.5039 92.3491C19.7423 90.6621 20.0838 88.9902 20.5189 87.3802C20.6088 87.0467 20.9533 86.8503 21.2851 86.9402C21.6181 87.0304 21.815 87.3732 21.7252 87.7064C21.3031 89.2668 20.972 90.888 20.741 92.5241C20.6969 92.8359 20.4294 93.0612 20.1231 93.0612ZM22.737 83.4434C22.6567 83.4434 22.575 83.4279 22.4961 83.395C22.1781 83.262 22.0281 82.8959 22.1611 82.5775C22.8208 81.0004 23.5906 79.4737 24.4484 78.0393C24.626 77.7436 25.0097 77.6473 25.3048 77.8242C25.6013 78.0011 25.6978 78.3849 25.5203 78.6806C24.6932 80.0638 23.9504 81.5372 23.3136 83.0599C23.2135 83.2995 22.9814 83.4434 22.737 83.4434ZM27.8621 74.9065C27.7217 74.9065 27.5807 74.8598 27.4644 74.7633C27.1984 74.5433 27.1613 74.1496 27.381 73.8836C28.4639 72.5744 29.6559 71.3454 30.9245 70.2302C31.1831 70.0016 31.5785 70.0272 31.8057 70.2867C32.0338 70.5457 32.0081 70.9402 31.7491 71.168C30.5308 72.2399 29.3846 73.4214 28.3439 74.6797C28.2204 74.8293 28.0418 74.9065 27.8621 74.9065ZM35.3333 68.3356C35.1263 68.3356 34.9237 68.2327 34.8051 68.0449C34.6204 67.7529 34.7075 67.3674 34.999 67.1831C36.4115 66.2903 37.9227 65.4893 39.4909 64.8016C39.8076 64.6633 40.1754 64.8073 40.314 65.1228C40.4523 65.4388 40.3087 65.8073 39.9928 65.946C38.4819 66.6085 37.0263 67.38 35.6668 68.239C35.5632 68.3044 35.4476 68.3356 35.3333 68.3356Z" fill="#9D69CC"/>
<path d="M104.791 192.946C104.726 192.946 104.66 192.936 104.595 192.915C104.268 192.807 104.09 192.454 104.198 192.126C104.203 192.109 104.776 190.367 105.637 187.349C105.732 187.018 106.078 186.827 106.41 186.92C106.741 187.015 106.933 187.361 106.839 187.693C105.97 190.737 105.39 192.5 105.384 192.517C105.298 192.78 105.053 192.946 104.791 192.946ZM107.557 183.318C107.505 183.318 107.452 183.312 107.399 183.298C107.065 183.21 106.865 182.869 106.953 182.535C107.37 180.941 107.779 179.312 108.169 177.695C108.249 177.36 108.587 177.154 108.922 177.234C109.257 177.315 109.464 177.652 109.383 177.988C108.992 179.612 108.581 181.249 108.161 182.851C108.087 183.132 107.835 183.318 107.557 183.318ZM109.9 173.592C109.855 173.592 109.81 173.588 109.764 173.578C109.428 173.504 109.215 173.17 109.289 172.833C109.645 171.219 109.991 169.576 110.317 167.951C110.385 167.613 110.714 167.395 111.052 167.461C111.39 167.529 111.609 167.858 111.542 168.197C111.214 169.83 110.867 171.481 110.509 173.102C110.445 173.394 110.186 173.592 109.9 173.592ZM111.865 163.785C111.828 163.785 111.791 163.782 111.753 163.775C111.414 163.714 111.188 163.389 111.249 163.049C111.545 161.404 111.825 159.75 112.082 158.131C112.136 157.79 112.455 157.559 112.797 157.612C113.137 157.666 113.37 157.986 113.316 158.327C113.058 159.954 112.776 161.617 112.479 163.271C112.424 163.573 112.161 163.785 111.865 163.785ZM113.43 153.907C113.402 153.907 113.373 153.905 113.345 153.901C113.003 153.854 112.763 153.539 112.81 153.198C113.035 151.544 113.243 149.879 113.427 148.25C113.465 147.907 113.773 147.657 114.118 147.699C114.46 147.738 114.707 148.048 114.668 148.39C114.483 150.029 114.274 151.703 114.048 153.366C114.005 153.68 113.737 153.907 113.43 153.907ZM114.548 143.968C114.53 143.968 114.512 143.968 114.493 143.966C114.149 143.936 113.895 143.633 113.925 143.289C114.073 141.612 114.197 139.941 114.295 138.319C114.316 137.975 114.603 137.711 114.956 137.733C115.3 137.754 115.563 138.05 115.542 138.395C115.443 140.027 115.318 141.71 115.17 143.398C115.141 143.724 114.869 143.968 114.548 143.968ZM115.15 133.991C115.144 133.991 115.137 133.991 115.131 133.99C114.786 133.98 114.515 133.691 114.526 133.346C114.578 131.692 114.604 130.041 114.604 128.438V128.368C114.604 128.023 114.884 127.743 115.229 127.743C115.574 127.743 115.854 128.023 115.854 128.368V128.438C115.854 130.054 115.827 131.719 115.775 133.386C115.764 133.724 115.486 133.991 115.15 133.991ZM115.139 123.994C114.805 123.994 114.528 123.729 114.516 123.392C114.455 121.716 114.363 120.044 114.242 118.424C114.217 118.08 114.474 117.78 114.818 117.754C115.158 117.73 115.462 117.986 115.488 118.331C115.611 119.967 115.703 121.654 115.764 123.347C115.776 123.692 115.507 123.981 115.162 123.993C115.154 123.994 115.147 123.994 115.139 123.994ZM114.383 114.026C114.071 114.026 113.801 113.793 113.764 113.475C113.565 111.809 113.327 110.155 113.057 108.558C112.999 108.218 113.228 107.896 113.568 107.838C113.904 107.778 114.231 108.009 114.288 108.35C114.562 109.966 114.803 111.641 115.004 113.327C115.045 113.67 114.8 113.981 114.458 114.021C114.432 114.025 114.408 114.026 114.383 114.026ZM112.703 104.176C112.418 104.176 112.16 103.98 112.094 103.69C111.722 102.051 111.303 100.437 110.848 98.8917C110.751 98.5606 110.94 98.2133 111.271 98.1157C111.602 98.0205 111.949 98.2076 112.047 98.5387C112.509 100.109 112.935 101.749 113.313 103.413C113.389 103.75 113.179 104.084 112.842 104.161C112.796 104.172 112.749 104.176 112.703 104.176ZM109.871 94.5985C109.618 94.5985 109.38 94.4435 109.286 94.1921C108.7 92.6228 108.057 91.0883 107.375 89.6312C107.229 89.3188 107.363 88.9471 107.676 88.8006C107.988 88.6529 108.361 88.7887 108.507 89.1016C109.203 90.5885 109.859 92.1542 110.457 93.7555C110.577 94.0788 110.413 94.4382 110.09 94.5591C110.018 94.5858 109.944 94.5985 109.871 94.5985ZM105.626 85.5666C105.411 85.5666 105.202 85.4556 105.086 85.2568C104.248 83.8195 103.343 82.4295 102.396 81.1247C102.194 80.8453 102.255 80.455 102.535 80.2523C102.814 80.0499 103.205 80.112 103.407 80.391C104.378 81.7292 105.306 83.1545 106.165 84.6271C106.339 84.9253 106.238 85.3076 105.94 85.4817C105.841 85.5394 105.733 85.5666 105.626 85.5666ZM99.7608 77.5036C99.5903 77.5036 99.4208 77.434 99.2976 77.2978C98.1954 76.0785 97.0181 74.9146 95.7988 73.8385C95.5402 73.61 95.5154 73.2155 95.7435 72.9567C95.9717 72.6977 96.3662 72.6733 96.6253 72.9014C97.88 74.009 99.0907 75.2061 100.224 76.4599C100.455 76.7157 100.436 77.1111 100.18 77.3421C100.06 77.4503 99.9106 77.5036 99.7608 77.5036ZM92.2892 70.9112C92.1656 70.9112 92.0411 70.8747 91.9322 70.799C90.5999 69.869 89.1916 68.9994 87.7466 68.2141C87.4435 68.049 87.3313 67.67 87.4961 67.3666C87.6612 67.0631 88.0415 66.9513 88.3436 67.1165C89.829 67.9237 91.2766 68.818 92.6473 69.7742C92.9303 69.9719 92.9996 70.361 92.8022 70.6441C92.6804 70.8181 92.4865 70.9112 92.2892 70.9112ZM83.5417 66.1404C83.462 66.1404 83.3807 66.1253 83.3025 66.0928C81.8144 65.4747 80.2536 64.9137 78.6635 64.4258C78.3335 64.325 78.1481 63.9756 78.2493 63.6458C78.3502 63.3157 78.7003 63.1304 79.0293 63.2318C80.6581 63.7313 82.2569 64.3055 83.7816 64.9387C84.1003 65.0713 84.2513 65.4368 84.1187 65.7552C84.0192 65.9955 83.7869 66.1404 83.5417 66.1404Z" fill="#9D69CC"/>
<path d="M283.863 322.493C283.863 322.493 263.809 283.279 273.555 245.15C273.881 243.875 278.838 245.294 279.232 244.023C279.736 242.399 275.7 238.086 276.323 236.474C278.638 230.481 281.801 224.592 286.011 218.971C286.011 218.971 293.955 230.54 298.077 248.6C298.388 249.962 293.32 253.753 293.583 255.187C293.831 256.542 299.411 255.534 299.607 256.949C302.138 275.243 299.959 298.416 283.863 322.493Z" fill="#CBA7EC"/>
<path d="M266.409 276.201C265.574 275.06 260.822 279.179 259.974 278.095C259.137 277.027 261.393 269.3 260.549 268.288C243.98 248.432 226.341 239.329 226.341 239.329C224.779 249.645 224.955 259.522 226.399 268.874C226.63 270.367 233.384 272.859 233.678 274.326C234 275.935 228.486 277.943 228.879 279.518C234.683 302.785 247.356 320.984 259.913 335.209C269.712 331.758 278.601 327.424 286.618 322.342C282.764 302.931 275.443 288.552 266.409 276.201Z" fill="#9C6AC9"/>
<path d="M271.363 322.147C271.162 322.147 270.965 322.05 270.844 321.871C266.405 315.276 262.078 308.471 257.983 301.647C257.805 301.352 257.901 300.968 258.197 300.79C258.492 300.613 258.876 300.709 259.054 301.005C263.138 307.81 267.453 314.596 271.88 321.173C272.073 321.46 271.997 321.848 271.711 322.04C271.604 322.112 271.483 322.147 271.363 322.147Z" fill="#F3E7FF"/>
<path d="M252.8 292.147C252.582 292.147 252.371 292.033 252.256 291.831C245.639 280.16 239.459 268.052 233.888 255.845L231.341 250.263C231.197 249.95 231.336 249.579 231.649 249.436C231.964 249.292 232.334 249.431 232.477 249.745L235.024 255.326C240.581 267.501 246.744 279.575 253.343 291.214C253.514 291.514 253.408 291.896 253.108 292.066C253.01 292.121 252.904 292.147 252.8 292.147Z" fill="#F3E7FF"/>
<path d="M282.729 324.683C282.729 324.683 274.792 282.774 315.82 268.228C315.82 268.228 319.257 304.81 282.729 324.683Z" fill="#BE8EE9"/>
<path d="M290.094 313.771C290.025 313.771 289.955 313.76 289.887 313.736C289.562 313.622 289.39 313.266 289.504 312.94C294.211 299.497 308.851 278.682 308.998 278.473C309.197 278.191 309.588 278.125 309.868 278.323C310.15 278.522 310.218 278.912 310.018 279.194C309.872 279.401 295.333 300.075 290.683 313.353C290.593 313.61 290.352 313.771 290.094 313.771Z" fill="#F3E7FF"/>
</svg>
