<svg width="283" height="283" viewBox="0 0 283 283" fill="none" xmlns="http://www.w3.org/2000/svg">
<path d="M249.442 149.286C250.574 134.252 247.074 118.549 242.388 104.553C235.428 83.7634 221.916 62.445 199.163 57.5242C186.041 54.6862 172.689 57.7274 161.442 64.8363C150.623 71.6742 142.185 80.5066 128.888 82.2176C115.436 83.949 101.631 83.2517 88.1069 83.2517C53.3392 83.2517 25.1224 119.778 32.1765 157.826C39.2305 195.874 72.4864 222.254 100.704 222.254C126.06 222.254 146.921 207.041 171.004 202.957C182.947 200.932 194.94 203.329 206.757 200.294C220.494 196.767 233.413 188.347 241.023 176.159C246.209 167.853 248.734 158.701 249.442 149.286Z" fill="#D4AAFF"/>
<path opacity="0.7" d="M249.442 149.286C250.574 134.252 247.074 118.549 242.388 104.553C235.428 83.7634 221.916 62.445 199.163 57.5242C186.041 54.6862 172.689 57.7274 161.442 64.8363C150.623 71.6742 142.185 80.5066 128.888 82.2176C115.436 83.949 101.631 83.2517 88.1069 83.2517C53.3392 83.2517 25.1224 119.778 32.1765 157.826C39.2305 195.874 72.4864 222.254 100.704 222.254C126.06 222.254 146.921 207.041 171.004 202.957C182.947 200.932 194.94 203.329 206.757 200.294C220.494 196.767 233.413 188.347 241.023 176.159C246.209 167.853 248.734 158.701 249.442 149.286Z" fill="white"/>
<path d="M245.374 144.009C245.374 144.009 245.374 141.193 241.433 137.253C237.492 133.312 234.959 131.06 234.959 131.06C234.959 131.06 232.988 137.534 236.647 141.475C240.307 145.416 245.374 149.076 245.374 149.076V144.009Z" fill="#D4AAFF"/>
<path d="M239.654 161.589C239.654 161.589 239.654 158.774 235.713 154.833C231.772 150.892 229.239 148.64 229.239 148.64C229.239 148.64 227.268 155.114 230.927 159.055C234.587 162.996 239.654 166.656 239.654 166.656V161.589Z" fill="#D4AAFF"/>
<path d="M245.126 148.804C245.126 148.804 245.423 146.004 249.759 142.502C254.094 138.999 256.851 137.027 256.851 137.027C256.851 137.027 258.127 143.674 254.071 147.206C250.016 150.739 244.59 153.842 244.59 153.842L245.126 148.804Z" fill="#D4AAFF"/>
<path d="M238.216 169.565C238.216 169.565 238.806 166.813 243.486 163.785C248.165 160.757 251.114 159.086 251.114 159.086C251.114 159.086 251.684 165.83 247.28 168.916C242.876 172.003 237.155 174.52 237.155 174.52L238.216 169.565Z" fill="#D4AAFF"/>
<path d="M239.515 192.202C239.515 192.202 239.515 189.387 243.456 185.446C247.398 181.505 249.931 179.253 249.931 179.253C249.931 179.253 251.902 185.727 248.242 189.668C244.582 193.61 239.515 197.269 239.515 197.269V192.202Z" fill="#D4AAFF"/>
<path d="M239.45 197.727C239.45 197.727 239.85 194.941 236.509 190.48C233.168 186.019 230.98 183.43 230.98 183.43C230.98 183.43 228.109 189.558 231.172 193.979C234.234 198.4 238.73 202.743 238.73 202.743L239.45 197.727Z" fill="#D4AAFF"/>
<path d="M235.564 214.102C235.564 214.102 235.564 211.288 239.505 207.347C243.446 203.405 245.979 201.153 245.979 201.153C245.979 201.153 247.95 207.628 244.29 211.569C240.63 215.51 235.564 219.17 235.564 219.17V214.102Z" fill="#D4AAFF"/>
<path d="M238.196 228.949C238.196 228.949 237.482 226.226 240.297 221.415C243.111 216.605 244.992 213.784 244.992 213.784C244.992 213.784 248.538 219.548 245.996 224.288C243.454 229.028 239.479 233.851 239.479 233.851L238.196 228.949Z" fill="#D4AAFF"/>
<path d="M245.731 143.287C245.5 146.296 245.158 149.409 244.652 152.028C243.094 160.077 239.199 165.27 237.641 172.54C236.083 179.81 240.556 189.176 239.358 198.514C238.16 207.852 234.526 213.045 235.564 219.276C236.603 225.508 242.056 242.385 242.056 242.385" stroke="#263238" stroke-miterlimit="10" stroke-linecap="round" stroke-linejoin="round"/>
<path d="M245.087 150.674L249.334 147.414" stroke="#263238" stroke-miterlimit="10" stroke-linecap="round" stroke-linejoin="round"/>
<path d="M245.285 146.92L243.507 143.76" stroke="#263238" stroke-miterlimit="10" stroke-linecap="round" stroke-linejoin="round"/>
<path d="M237.877 172.205C237.877 172.205 241.432 169.538 245.087 166.872" stroke="#263238" stroke-miterlimit="10" stroke-linecap="round" stroke-linejoin="round"/>
<path d="M239.654 166.656C239.654 166.656 236.692 160.847 233.333 156.995" stroke="#263238" stroke-miterlimit="10" stroke-linecap="round" stroke-linejoin="round"/>
<path d="M239.655 196.206C239.655 196.206 242.421 190.774 247.26 186.033" stroke="#263238" stroke-miterlimit="10" stroke-linecap="round" stroke-linejoin="round"/>
<path d="M238.964 200.157C238.964 200.157 237.186 195.91 235.111 192.849C233.037 189.787 232.741 189.392 232.741 189.392" stroke="#263238" stroke-miterlimit="10" stroke-linecap="round" stroke-linejoin="round"/>
<path d="M235.564 219.276C235.564 219.276 236.988 215.665 238.766 212.801C240.544 209.936 242.914 207.368 242.914 207.368" stroke="#263238" stroke-miterlimit="10" stroke-linecap="round" stroke-linejoin="round"/>
<path d="M239.479 233.851C239.479 233.851 239.062 230.479 240.544 227.616C242.026 224.751 243.704 220.998 244.396 219.517" stroke="#263238" stroke-miterlimit="10" stroke-linecap="round" stroke-linejoin="round"/>
<path d="M213.213 181.615C213.213 181.615 212.907 179.85 214.95 176.951C216.994 174.052 218.338 172.364 218.338 172.364C218.338 172.364 220.276 176.21 218.409 179.079C216.542 181.947 213.762 184.792 213.762 184.792L213.213 181.615Z" fill="#D4AAFF"/>
<path d="M218.707 192.018C218.707 192.018 218.402 190.253 220.446 187.354C222.489 184.455 223.833 182.768 223.833 182.768C223.833 182.768 225.772 186.614 223.904 189.482C222.037 192.351 219.257 195.196 219.257 195.196L218.707 192.018Z" fill="#D4AAFF"/>
<path d="M213.889 184.595C213.889 184.595 213.398 182.872 210.3 181.146C207.201 179.421 205.258 178.483 205.258 178.483C205.258 178.483 205.18 182.79 208.106 184.564C211.033 186.339 214.772 187.697 214.772 187.697L213.889 184.595Z" fill="#D4AAFF"/>
<path d="M220.475 196.864C220.475 196.864 219.806 195.203 216.543 193.812C213.28 192.421 211.249 191.693 211.249 191.693C211.249 191.693 211.624 195.984 214.721 197.442C217.817 198.899 221.678 199.856 221.678 199.856L220.475 196.864Z" fill="#D4AAFF"/>
<path d="M222.118 211.2C222.118 211.2 221.813 209.435 218.913 207.392C216.014 205.348 214.181 204.211 214.181 204.211C214.181 204.211 213.649 208.485 216.371 210.559C219.093 212.633 222.668 214.378 222.668 214.378L222.118 211.2Z" fill="#D4AAFF"/>
<path d="M222.759 214.658C222.759 214.658 222.205 212.955 223.816 209.794C225.427 206.634 226.518 204.772 226.518 204.772C226.518 204.772 228.983 208.304 227.543 211.409C226.102 214.514 223.755 217.725 223.755 217.725L222.759 214.658Z" fill="#D4AAFF"/>
<path d="M227.706 228.898C227.706 228.898 227.91 227.118 230.688 224.913C233.466 222.707 235.231 221.467 235.231 221.467C235.231 221.467 236.007 225.703 233.407 227.929C230.807 230.155 227.338 232.101 227.338 232.101L227.706 228.898Z" fill="#D4AAFF"/>
<path d="M226.974 224.505C226.974 224.505 226.668 222.74 223.769 220.697C220.87 218.653 219.037 217.516 219.037 217.516C219.037 217.516 218.504 221.789 221.227 223.864C223.949 225.938 227.524 227.683 227.524 227.683L226.974 224.505Z" fill="#D4AAFF"/>
<path d="M226.935 234.1C226.935 234.1 227.087 232.315 224.8 229.604C222.513 226.893 221.028 225.328 221.028 225.328C221.028 225.328 219.43 229.328 221.538 232.024C223.646 234.72 226.663 237.313 226.663 237.313L226.935 234.1Z" fill="#D4AAFF"/>
<path d="M212.911 181.201C213.382 183.063 213.934 184.978 214.536 186.565C216.387 191.444 219.393 194.277 221.159 198.667C222.925 203.057 221.137 209.416 222.902 215.141C224.667 220.866 227.51 223.728 227.535 227.748C227.561 231.769 225.974 242.944 225.974 242.944" stroke="#263238" stroke-miterlimit="10" stroke-linecap="round" stroke-linejoin="round"/>
<path d="M214.116 185.764L211.099 184.181" stroke="#263238" stroke-miterlimit="10" stroke-linecap="round" stroke-linejoin="round"/>
<path d="M213.585 183.432L214.356 181.257" stroke="#263238" stroke-miterlimit="10" stroke-linecap="round" stroke-linejoin="round"/>
<path d="M220.975 198.484C220.975 198.484 218.456 197.197 215.875 195.922" stroke="#263238" stroke-miterlimit="10" stroke-linecap="round" stroke-linejoin="round"/>
<path d="M219.258 195.197C219.258 195.197 220.485 191.232 222.173 188.452" stroke="#263238" stroke-miterlimit="10" stroke-linecap="round" stroke-linejoin="round"/>
<path d="M222.465 213.727C222.465 213.727 220.141 210.621 216.592 208.173" stroke="#263238" stroke-miterlimit="10" stroke-linecap="round" stroke-linejoin="round"/>
<path d="M223.328 216.129C223.328 216.129 223.981 213.273 224.95 211.127C225.918 208.982 226.061 208.702 226.061 208.702" stroke="#263238" stroke-miterlimit="10" stroke-linecap="round" stroke-linejoin="round"/>
<path d="M227.398 230.799C227.398 230.799 229.398 228.347 230.643 227.43C231.887 226.513 232.75 225.598 232.75 225.598" stroke="#263238" stroke-miterlimit="10" stroke-linecap="round" stroke-linejoin="round"/>
<path d="M227.535 227.749C227.535 227.749 226.25 225.639 224.824 224.036C223.399 222.433 221.633 221.08 221.633 221.08" stroke="#263238" stroke-miterlimit="10" stroke-linecap="round" stroke-linejoin="round"/>
<path d="M226.663 237.314C226.663 237.314 226.558 235.155 225.318 233.52C224.078 231.885 222.617 229.713 222.023 228.859" stroke="#263238" stroke-miterlimit="10" stroke-linecap="round" stroke-linejoin="round"/>
<path d="M52.453 156.963L49.9739 149.88L52.453 152.89L50.5054 142.266L53.5153 149.88L54.5783 135.005L56.3493 149.172L58.2969 146.338V149.88L60.5994 145.099L59.3593 153.422L61.4846 152.005L58.1197 156.61L52.453 156.963Z" fill="#D4AAFF"/>
<path d="M60.2451 155.193H51.0363L52.6941 173.788H58.5873L60.2451 155.193Z" fill="#263238" stroke="#263238" stroke-miterlimit="10" stroke-linecap="round" stroke-linejoin="round"/>
<path d="M77.5148 173.572H46.1443V240.019H77.5148V173.572Z" fill="white" stroke="#263238" stroke-miterlimit="10" stroke-linecap="round" stroke-linejoin="round"/>
<path d="M79.2343 173.572H61.8298V240.019H79.2343V173.572Z" fill="white" stroke="#263238" stroke-miterlimit="10" stroke-linecap="round" stroke-linejoin="round"/>
<path d="M77.2731 173.572H61.8298V240.019H77.2731V173.572Z" fill="#263238" stroke="#263238" stroke-miterlimit="10" stroke-linecap="round" stroke-linejoin="round"/>
<path d="M75.5389 224.575H61.8298V238.183H75.5389V224.575Z" fill="#D4AAFF" stroke="#263238" stroke-miterlimit="10" stroke-linecap="round" stroke-linejoin="round"/>
<path d="M75.5389 225.311H61.8298V227.055H75.5389V225.311Z" fill="white" stroke="#263238" stroke-miterlimit="10" stroke-linecap="round" stroke-linejoin="round"/>
<path d="M75.5389 235.327H61.8298V237.072H75.5389V235.327Z" fill="white" stroke="#263238" stroke-miterlimit="10" stroke-linecap="round" stroke-linejoin="round"/>
<path d="M64.4301 224.855V242.062" stroke="#263238" stroke-miterlimit="10" stroke-linecap="round" stroke-linejoin="round"/>
<path d="M69.2104 224.855V242.062" stroke="#263238" stroke-miterlimit="10" stroke-linecap="round" stroke-linejoin="round"/>
<path d="M73.4084 224.855V242.062" stroke="#263238" stroke-miterlimit="10" stroke-linecap="round" stroke-linejoin="round"/>
<path d="M75.5389 176.043H61.8298V196.051H75.5389V176.043Z" fill="#D4AAFF" stroke="#263238" stroke-miterlimit="10" stroke-linecap="round" stroke-linejoin="round"/>
<path d="M75.5389 176.879H61.8298V178.861H75.5389V176.879Z" fill="white" stroke="#263238" stroke-miterlimit="10" stroke-linecap="round" stroke-linejoin="round"/>
<path d="M75.5389 189.705H61.8298V191.687H75.5389V189.705Z" fill="white" stroke="#263238" stroke-miterlimit="10" stroke-linecap="round" stroke-linejoin="round"/>
<path d="M64.4301 176.361V195.913" stroke="#263238" stroke-miterlimit="10" stroke-linecap="round" stroke-linejoin="round"/>
<path d="M69.2104 176.361V195.913" stroke="#263238" stroke-miterlimit="10" stroke-linecap="round" stroke-linejoin="round"/>
<path d="M73.4084 176.361V195.913" stroke="#263238" stroke-miterlimit="10" stroke-linecap="round" stroke-linejoin="round"/>
<path d="M75.5389 200.157H61.8298V220.165H75.5389V200.157Z" fill="#D4AAFF" stroke="#263238" stroke-miterlimit="10" stroke-linecap="round" stroke-linejoin="round"/>
<path d="M75.5389 200.993H61.8298V202.975H75.5389V200.993Z" fill="white" stroke="#263238" stroke-miterlimit="10" stroke-linecap="round" stroke-linejoin="round"/>
<path d="M75.5389 213.819H61.8298V215.801H75.5389V213.819Z" fill="white" stroke="#263238" stroke-miterlimit="10" stroke-linecap="round" stroke-linejoin="round"/>
<path d="M64.4301 200.476V220.027" stroke="#263238" stroke-miterlimit="10" stroke-linecap="round" stroke-linejoin="round"/>
<path d="M69.2104 200.476V220.027" stroke="#263238" stroke-miterlimit="10" stroke-linecap="round" stroke-linejoin="round"/>
<path d="M73.4084 200.476V220.027" stroke="#263238" stroke-miterlimit="10" stroke-linecap="round" stroke-linejoin="round"/>
<path d="M77.5154 195.774H61.8298V198.049H77.5154V195.774Z" fill="white" stroke="#263238" stroke-miterlimit="10" stroke-linecap="round" stroke-linejoin="round"/>
<path d="M77.5154 220.04H61.8298V222.315H77.5154V220.04Z" fill="white" stroke="#263238" stroke-miterlimit="10" stroke-linecap="round" stroke-linejoin="round"/>
<path d="M77.5154 173.572V240.019" stroke="#263238" stroke-miterlimit="10" stroke-linecap="round" stroke-linejoin="round"/>
<path d="M59.619 173.573V240.02H61.8298V176.043H77.2437V173.549L59.619 173.573Z" fill="white" stroke="#263238" stroke-miterlimit="10" stroke-linecap="round" stroke-linejoin="round"/>
<path d="M61.8298 176.042V173.572" stroke="#263238" stroke-miterlimit="10" stroke-linecap="round" stroke-linejoin="round"/>
<path d="M77.3966 143.048C75.7467 139.877 75.0551 137.598 75.0551 137.073C75.0551 136.035 77.3394 135.411 77.3394 135.411C80.8696 133.542 97.4828 136.242 104.959 137.488C112.434 138.734 117.626 138.734 117.626 138.734C117.626 138.734 118.665 137.903 119.911 136.865C121.156 135.827 126.971 128.974 129.255 128.351C131.54 127.727 133.616 129.181 133.616 129.181C133.616 129.181 137.354 131.466 136.731 131.881C136.108 132.297 126.971 140.188 124.686 141.641C122.402 143.095 117.626 142.472 113.473 143.303C109.897 144.017 95.4062 144.901 92.0837 145.172C92.0837 145.172 88.7613 146.21 84.608 144.548" fill="white"/>
<mask id="mask0_696_3078" style="mask-type:luminance" maskUnits="userSpaceOnUse" x="75" y="128" width="62" height="18">
<path d="M77.3966 143.048C75.7467 139.877 75.0551 137.598 75.0551 137.073C75.0551 136.035 77.3394 135.411 77.3394 135.411C80.8696 133.542 97.4828 136.242 104.959 137.488C112.434 138.734 117.626 138.734 117.626 138.734C117.626 138.734 118.665 137.903 119.911 136.865C121.156 135.827 126.971 128.974 129.255 128.351C131.54 127.727 133.616 129.181 133.616 129.181C133.616 129.181 137.354 131.466 136.731 131.881C136.108 132.297 126.971 140.188 124.686 141.641C122.402 143.095 117.626 142.472 113.473 143.303C109.897 144.017 95.4062 144.901 92.0837 145.172C92.0837 145.172 88.7613 146.21 84.608 144.548" fill="white"/>
</mask>
<g mask="url(#mask0_696_3078)">
<path d="M133.616 129.182C133.616 129.182 131.54 127.729 129.255 128.351C126.971 128.975 121.156 135.827 119.911 136.866C118.665 137.904 117.626 138.735 117.626 138.735C117.626 138.735 112.435 138.735 104.959 137.489C97.4828 136.243 80.8696 133.543 77.3394 135.412C77.3394 135.412 75.0551 136.035 75.0551 137.073C75.0551 137.311 75.1988 137.912 75.5073 138.789C75.7037 138.86 75.8175 138.9 75.8175 138.9C75.8175 138.9 79.9662 138.463 88.9187 138.682C97.8711 138.9 118.585 140.123 119.91 140.604C120.508 140.82 124.491 139.912 128.938 138.351C132.318 135.584 136.325 132.152 136.73 131.881C137.354 131.467 133.616 129.182 133.616 129.182Z" fill="#D4AAFF"/>
</g>
<mask id="mask1_696_3078" style="mask-type:luminance" maskUnits="userSpaceOnUse" x="75" y="128" width="62" height="18">
<path d="M77.3966 143.048C75.7467 139.877 75.0551 137.598 75.0551 137.073C75.0551 136.035 77.3394 135.411 77.3394 135.411C80.8696 133.542 97.4828 136.242 104.959 137.488C112.434 138.734 117.626 138.734 117.626 138.734C117.626 138.734 118.665 137.903 119.911 136.865C121.156 135.827 126.971 128.974 129.255 128.351C131.54 127.727 133.616 129.181 133.616 129.181C133.616 129.181 137.354 131.466 136.731 131.881C136.108 132.297 126.971 140.188 124.686 141.641C122.402 143.095 117.626 142.472 113.473 143.303C109.897 144.017 95.4062 144.901 92.0837 145.172C92.0837 145.172 88.7613 146.21 84.608 144.548" fill="white"/>
</mask>
<g mask="url(#mask1_696_3078)">
<path opacity="0.5" d="M133.616 129.182C133.616 129.182 131.54 127.729 129.255 128.351C126.971 128.975 121.156 135.827 119.911 136.866C118.665 137.904 117.626 138.735 117.626 138.735C117.626 138.735 112.435 138.735 104.959 137.489C97.4828 136.243 80.8696 133.543 77.3394 135.412C77.3394 135.412 75.0551 136.035 75.0551 137.073C75.0551 137.311 75.1988 137.912 75.5073 138.789C75.7037 138.86 75.8175 138.9 75.8175 138.9C75.8175 138.9 79.9662 138.463 88.9187 138.682C97.8711 138.9 118.585 140.123 119.91 140.604C120.508 140.82 124.491 139.912 128.938 138.351C132.318 135.584 136.325 132.152 136.73 131.881C137.354 131.467 133.616 129.182 133.616 129.182Z" fill="white"/>
</g>
<path d="M77.3966 143.048C75.7467 139.877 75.0551 137.598 75.0551 137.073C75.0551 136.035 77.3394 135.411 77.3394 135.411C80.8696 133.542 97.4828 136.242 104.959 137.488C112.434 138.734 117.626 138.734 117.626 138.734C117.626 138.734 118.665 137.903 119.911 136.865C121.156 135.827 126.971 128.974 129.255 128.351C131.54 127.727 133.616 129.181 133.616 129.181C133.616 129.181 137.354 131.466 136.731 131.881C136.108 132.297 126.971 140.188 124.686 141.641C122.402 143.095 117.626 142.472 113.473 143.303C109.897 144.017 95.4062 144.901 92.0837 145.172C92.0837 145.172 88.7613 146.21 84.608 144.548" stroke="#263238" stroke-miterlimit="10" stroke-linecap="round" stroke-linejoin="round"/>
<path d="M159.415 161.51C160.176 160.056 161.688 159.151 163.33 159.151H201.084C201.084 159.151 203.813 159.151 202.994 164.336C202.176 169.522 190.987 201.178 188.257 210.73C185.528 220.281 184.982 240.476 184.982 240.476H139.681C139.681 240.477 143.311 192.254 159.415 161.51Z" fill="white"/>
<mask id="mask2_696_3078" style="mask-type:luminance" maskUnits="userSpaceOnUse" x="139" y="159" width="65" height="82">
<path d="M159.415 161.51C160.176 160.056 161.688 159.151 163.33 159.151H201.084C201.084 159.151 203.813 159.151 202.994 164.336C202.176 169.522 190.987 201.178 188.257 210.73C185.528 220.281 184.982 240.476 184.982 240.476H139.681C139.681 240.477 143.311 192.254 159.415 161.51Z" fill="white"/>
</mask>
<g mask="url(#mask2_696_3078)">
<path opacity="0.16" d="M176.419 159.152H163.33C161.688 159.152 160.176 160.057 159.415 161.511C143.311 192.255 139.682 240.477 139.682 240.477H159.994L165 221.454L185.887 225.761C186.035 224.165 186.205 222.541 186.4 220.941L185.945 215.824C185.945 215.824 181.666 211.32 180.315 210.194C178.964 209.067 179.864 207.04 179.639 198.257C179.414 189.473 171.531 183.167 168.603 177.761C165.675 172.356 170.18 168.978 174.234 163.572C175.678 161.646 176.262 160.208 176.419 159.152Z" fill="black"/>
</g>
<path d="M159.415 161.51C160.176 160.056 161.688 159.151 163.33 159.151H201.084C201.084 159.151 203.813 159.151 202.994 164.336C202.176 169.522 190.987 201.178 188.257 210.73C185.528 220.281 184.982 240.476 184.982 240.476H139.681C139.681 240.476 143.311 192.254 159.415 161.51Z" stroke="#263238" stroke-miterlimit="10" stroke-linecap="round" stroke-linejoin="round"/>
<path d="M194.534 168.158C190.717 177.064 182.631 212.304 181.334 240.477H184.982C184.982 240.477 185.528 220.282 188.257 210.731C190.987 201.179 202.175 169.523 202.994 164.337C203.813 159.152 201.084 159.152 201.084 159.152C201.084 159.152 197.594 161.019 194.534 168.158Z" fill="#263238" stroke="#263238" stroke-miterlimit="10" stroke-linecap="round" stroke-linejoin="round"/>
<path d="M128.217 150.364C128.217 150.364 122.195 146.833 119.911 140.603C117.626 134.374 137.77 124.406 146.492 123.783C155.214 123.159 157.706 125.444 162.897 134.373C168.088 143.303 171.619 155.555 168.919 161.578C166.22 167.6 161.651 169.053 164.974 174.038C168.296 179.022 177.641 193.143 177.018 199.788C176.395 206.433 169.958 212.248 160.613 212.871C151.268 213.494 138.808 207.887 128.425 198.75C118.042 189.613 120.741 176.114 124.479 171.753C128.217 167.392 133.824 165.731 134.239 161.37C134.654 157.009 128.217 150.364 128.217 150.364Z" fill="#263238" stroke="#263238" stroke-miterlimit="10" stroke-linecap="round" stroke-linejoin="round"/>
<path d="M153.882 140.509C157.083 146.463 161.083 154.439 162.332 159.256C164.518 167.688 153.275 172.998 156.398 177.058" stroke="white" stroke-miterlimit="10" stroke-linecap="round" stroke-linejoin="round"/>
<path d="M149.527 132.709C149.527 132.709 150.771 134.83 152.495 137.959" stroke="white" stroke-miterlimit="10" stroke-linecap="round" stroke-linejoin="round"/>
<path d="M166.302 147.69C166.668 148.827 166.918 149.979 167.017 151.135" stroke="white" stroke-miterlimit="10" stroke-linecap="round" stroke-linejoin="round"/>
<path d="M151.713 129.586C151.713 129.586 161.547 136.855 165.473 145.554" stroke="white" stroke-miterlimit="10" stroke-linecap="round" stroke-linejoin="round"/>
<path d="M138.034 135.062C131.009 137.037 120.91 140.232 121.731 142.079" stroke="white" stroke-miterlimit="10" stroke-linecap="round" stroke-linejoin="round"/>
<path d="M144.53 133.333C144.53 133.333 143.027 133.704 140.792 134.304" stroke="white" stroke-miterlimit="10" stroke-linecap="round" stroke-linejoin="round"/>
<path d="M135.835 129.668C138.414 128.817 142.663 127.843 148.278 128.024" stroke="white" stroke-miterlimit="10" stroke-linecap="round" stroke-linejoin="round"/>
<path d="M132.974 130.834C132.974 130.834 133.654 130.457 134.946 129.978" stroke="white" stroke-miterlimit="10" stroke-linecap="round" stroke-linejoin="round"/>
<path d="M75.0551 137.073C75.0551 137.106 75.0579 137.146 75.063 137.192C75.0579 137.146 75.0551 137.106 75.0551 137.073ZM77.3966 143.048C76.0574 140.474 75.3494 138.487 75.1303 137.55C75.3488 138.487 76.0569 140.473 77.3966 143.048ZM75.0681 137.224C75.0732 137.263 75.0788 137.302 75.0879 137.349C75.0788 137.303 75.0737 137.263 75.0681 137.224ZM75.0952 137.385C75.1049 137.435 75.1162 137.488 75.1298 137.548C75.1156 137.488 75.1049 137.435 75.0952 137.385ZM77.3966 143.048C79.0086 146.148 81.5352 150.099 85.23 154.101C92.7058 162.2 114.303 183.382 116.38 184.836C118.456 186.289 117.833 190.443 116.38 194.596C114.926 198.749 109.527 204.771 109.734 211.417C109.942 218.062 112.019 228.238 111.811 230.314C111.603 232.391 106.412 239.451 106.412 239.451H159.99C159.99 239.451 153.315 230.968 153.315 228.061C153.315 225.154 162.482 187.951 162.897 185.251C163.313 182.551 161.651 180.682 158.328 180.475C155.006 180.267 142.338 177.567 141.715 175.49C141.092 173.414 145.038 165.523 145.038 165.523L132.578 166.146C132.578 166.146 131.954 171.545 131.124 172.584C130.293 173.622 129.047 171.545 126.141 170.091C123.233 168.638 117.626 167.392 115.55 165.73C113.473 164.069 93.5372 145.379 93.5372 145.379" fill="white"/>
<mask id="mask3_696_3078" style="mask-type:luminance" maskUnits="userSpaceOnUse" x="75" y="137" width="88" height="103">
<path d="M75.0551 137.073C75.0551 137.106 75.0579 137.146 75.063 137.192C75.0579 137.146 75.0551 137.106 75.0551 137.073ZM77.3966 143.048C76.0574 140.474 75.3494 138.487 75.1303 137.55C75.3488 138.487 76.0569 140.473 77.3966 143.048ZM75.0681 137.224C75.0732 137.263 75.0788 137.302 75.0879 137.349C75.0788 137.303 75.0737 137.263 75.0681 137.224ZM75.0952 137.385C75.1049 137.435 75.1162 137.488 75.1298 137.548C75.1156 137.488 75.1049 137.435 75.0952 137.385ZM77.3966 143.048C79.0086 146.148 81.5352 150.099 85.23 154.101C92.7058 162.2 114.303 183.382 116.38 184.836C118.456 186.289 117.833 190.443 116.38 194.596C114.926 198.749 109.527 204.771 109.734 211.417C109.942 218.062 112.019 228.238 111.811 230.314C111.603 232.391 106.412 239.451 106.412 239.451H159.99C159.99 239.451 153.315 230.968 153.315 228.061C153.315 225.154 162.482 187.951 162.897 185.251C163.313 182.551 161.651 180.682 158.328 180.475C155.006 180.267 142.338 177.567 141.715 175.49C141.092 173.414 145.038 165.523 145.038 165.523L132.578 166.146C132.578 166.146 131.954 171.545 131.124 172.584C130.293 173.622 129.047 171.545 126.141 170.091C123.233 168.638 117.626 167.392 115.55 165.73C113.473 164.069 93.5372 145.379 93.5372 145.379" fill="white"/>
</mask>
<g mask="url(#mask3_696_3078)">
<path d="M118.728 167.335C119.767 169.146 120.799 170.78 120.799 170.78C120.799 170.78 124.293 172.745 125.167 172.745C126.04 172.745 131.28 175.584 131.28 175.584C131.28 175.584 135.648 174.492 134.119 170.78C133.85 170.127 133.197 169.22 132.298 168.164C132.038 169.812 131.618 171.967 131.124 172.584C130.293 173.623 129.048 171.545 126.141 170.092C124.241 169.142 121.195 168.281 118.728 167.335Z" fill="#D4AAFF"/>
<path d="M108.068 158.927C101.653 152.987 93.5373 145.38 93.5373 145.38L88.8174 144.698L88.2644 145.014C88.2644 145.014 101.584 156.806 104.423 158.115C106.182 158.927 107.102 158.817 108.068 158.927Z" fill="#D4AAFF"/>
<path d="M114.787 165.075C114.633 164.94 114.463 164.788 114.277 164.621C114.535 165.049 114.685 165.321 114.685 165.321C114.685 165.321 114.722 165.224 114.787 165.075Z" fill="#D4AAFF"/>
</g>
<mask id="mask4_696_3078" style="mask-type:luminance" maskUnits="userSpaceOnUse" x="75" y="137" width="88" height="103">
<path d="M75.0551 137.073C75.0551 137.106 75.0579 137.146 75.063 137.192C75.0579 137.146 75.0551 137.106 75.0551 137.073ZM77.3966 143.048C76.0574 140.474 75.3494 138.487 75.1303 137.55C75.3488 138.487 76.0569 140.473 77.3966 143.048ZM75.0681 137.224C75.0732 137.263 75.0788 137.302 75.0879 137.349C75.0788 137.303 75.0737 137.263 75.0681 137.224ZM75.0952 137.385C75.1049 137.435 75.1162 137.488 75.1298 137.548C75.1156 137.488 75.1049 137.435 75.0952 137.385ZM77.3966 143.048C79.0086 146.148 81.5352 150.099 85.23 154.101C92.7058 162.2 114.303 183.382 116.38 184.836C118.456 186.289 117.833 190.443 116.38 194.596C114.926 198.749 109.527 204.771 109.734 211.417C109.942 218.062 112.019 228.238 111.811 230.314C111.603 232.391 106.412 239.451 106.412 239.451H159.99C159.99 239.451 153.315 230.968 153.315 228.061C153.315 225.154 162.482 187.951 162.897 185.251C163.313 182.551 161.651 180.682 158.328 180.475C155.006 180.267 142.338 177.567 141.715 175.49C141.092 173.414 145.038 165.523 145.038 165.523L132.578 166.146C132.578 166.146 131.954 171.545 131.124 172.584C130.293 173.622 129.047 171.545 126.141 170.091C123.233 168.638 117.626 167.392 115.55 165.73C113.473 164.069 93.5372 145.379 93.5372 145.379" fill="white"/>
</mask>
<g mask="url(#mask4_696_3078)">
<g opacity="0.5">
<path d="M118.728 167.335C119.767 169.146 120.799 170.78 120.799 170.78C120.799 170.78 124.293 172.745 125.167 172.745C126.04 172.745 131.28 175.584 131.28 175.584C131.28 175.584 135.648 174.492 134.119 170.78C133.85 170.127 133.197 169.22 132.298 168.164C132.038 169.812 131.618 171.967 131.124 172.584C130.293 173.623 129.048 171.545 126.141 170.092C124.241 169.142 121.195 168.281 118.728 167.335Z" fill="white"/>
<path d="M108.068 158.927C101.653 152.987 93.5373 145.38 93.5373 145.38L88.8174 144.698L88.2644 145.014C88.2644 145.014 101.584 156.806 104.423 158.115C106.182 158.927 107.102 158.817 108.068 158.927Z" fill="white"/>
<path d="M114.787 165.075C114.633 164.94 114.463 164.788 114.277 164.621C114.535 165.049 114.685 165.321 114.685 165.321C114.685 165.321 114.722 165.224 114.787 165.075Z" fill="white"/>
</g>
</g>
<path d="M77.3966 143.048C79.0086 146.148 81.5352 150.099 85.23 154.101C92.7058 162.2 114.303 183.382 116.38 184.836C118.456 186.289 117.833 190.443 116.38 194.596C114.926 198.749 109.527 204.771 109.734 211.417C109.942 218.062 112.019 228.238 111.811 230.314C111.603 232.391 106.412 239.451 106.412 239.451H159.99C159.99 239.451 153.315 230.968 153.315 228.061C153.315 225.154 162.482 187.951 162.897 185.251C163.313 182.551 161.651 180.682 158.328 180.475C155.006 180.267 142.338 177.567 141.715 175.49C141.092 173.414 145.038 165.523 145.038 165.523L132.578 166.146C132.578 166.146 131.954 171.545 131.124 172.584C130.293 173.622 129.047 171.545 126.141 170.091C123.233 168.638 117.626 167.392 115.55 165.73C113.473 164.069 93.5372 145.379 93.5372 145.379M75.0551 137.073C75.0551 137.106 75.0579 137.146 75.063 137.192C75.0579 137.146 75.0551 137.106 75.0551 137.073ZM77.3966 143.048C76.0574 140.474 75.3494 138.487 75.1303 137.55C75.3488 138.487 76.0569 140.473 77.3966 143.048ZM75.0681 137.224C75.0732 137.263 75.0788 137.302 75.0879 137.349C75.0788 137.303 75.0737 137.263 75.0681 137.224ZM75.0952 137.385C75.1049 137.435 75.1162 137.488 75.1298 137.548C75.1156 137.488 75.1049 137.435 75.0952 137.385Z" stroke="#263238" stroke-miterlimit="10" stroke-linecap="round" stroke-linejoin="round"/>
<path d="M93.5372 145.38C93.5372 145.38 86.9065 145.503 83.2009 142.452" stroke="#263238" stroke-miterlimit="10" stroke-linecap="round" stroke-linejoin="round"/>
<path d="M141.715 175.491C141.092 173.415 145.038 165.523 145.038 165.523L132.578 166.147C132.578 166.147 131.954 171.546 131.124 172.584C130.293 173.623 129.047 171.546 126.141 170.092C125.919 169.981 125.678 169.872 125.427 169.764L124.672 181.604C124.672 181.604 125.764 193.066 138.862 190.882C144.165 189.998 149.826 185.268 154.686 179.95C149.687 179.025 142.191 177.077 141.715 175.491Z" fill="white"/>
<mask id="mask5_696_3078" style="mask-type:luminance" maskUnits="userSpaceOnUse" x="124" y="165" width="31" height="27">
<path d="M141.715 175.491C141.092 173.415 145.038 165.523 145.038 165.523L132.578 166.147C132.578 166.147 131.954 171.546 131.124 172.584C130.293 173.623 129.047 171.546 126.141 170.092C125.919 169.981 125.678 169.872 125.427 169.764L124.672 181.604C124.672 181.604 125.764 193.066 138.862 190.882C144.165 189.998 149.826 185.268 154.686 179.95C149.687 179.025 142.191 177.077 141.715 175.491Z" fill="white"/>
</mask>
<g mask="url(#mask5_696_3078)">
<path d="M141.363 167.088C141.363 167.088 140.609 171.31 140.006 175.983C139.404 180.656 138.951 184.124 138.951 184.124L141.715 175.492L144.83 166.335C144.83 166.335 141.815 166.335 141.363 167.088Z" fill="#D4AAFF"/>
</g>
<mask id="mask6_696_3078" style="mask-type:luminance" maskUnits="userSpaceOnUse" x="124" y="165" width="31" height="27">
<path d="M141.715 175.491C141.092 173.415 145.038 165.523 145.038 165.523L132.578 166.147C132.578 166.147 131.954 171.546 131.124 172.584C130.293 173.623 129.047 171.546 126.141 170.092C125.919 169.981 125.678 169.872 125.427 169.764L124.672 181.604C124.672 181.604 125.764 193.066 138.862 190.882C144.165 189.998 149.826 185.268 154.686 179.95C149.687 179.025 142.191 177.077 141.715 175.491Z" fill="white"/>
</mask>
<g mask="url(#mask6_696_3078)">
<path opacity="0.5" d="M141.363 167.088C141.363 167.088 140.609 171.31 140.006 175.983C139.404 180.656 138.951 184.124 138.951 184.124L141.715 175.492L144.83 166.335C144.83 166.335 141.815 166.335 141.363 167.088Z" fill="white"/>
</g>
<path d="M141.715 175.491C141.092 173.415 145.038 165.523 145.038 165.523L132.578 166.147C132.578 166.147 131.954 171.546 131.124 172.584C130.293 173.623 129.047 171.546 126.141 170.092C125.919 169.981 125.678 169.872 125.427 169.764L124.672 181.604C124.672 181.604 125.764 193.066 138.862 190.882C144.165 189.998 149.826 185.268 154.686 179.95C149.687 179.025 142.191 177.077 141.715 175.491Z" stroke="#263238" stroke-miterlimit="10" stroke-linecap="round" stroke-linejoin="round"/>
<path d="M131.124 172.584C130.293 173.622 129.047 171.545 126.14 170.091C124.303 169.172 121.387 168.336 118.965 167.426C118.28 165.803 117.376 163.684 116.795 162.407C115.757 160.123 114.095 161.577 114.095 161.577C114.095 161.577 113.057 160.538 112.019 158.255C110.981 155.97 109.319 156.178 107.035 155.763C104.75 155.347 99.9743 150.986 99.9743 150.986C99.9743 150.986 97.7391 149.312 96.812 148.445C95.7395 150.564 93.1613 154.288 87.5947 156.611C96.4719 165.889 114.491 183.514 116.379 184.836C118.456 186.289 117.833 190.443 116.379 194.596C114.926 198.749 109.526 204.771 109.734 211.417C109.942 218.062 112.018 228.238 111.81 230.314C111.625 232.165 107.483 237.972 106.585 239.212L108.696 239.451H119.684C119.624 233.884 119.627 211.151 123.44 202.072C127.802 191.689 131.124 172.584 131.124 172.584Z" fill="#D4AAFF"/>
<mask id="mask7_696_3078" style="mask-type:luminance" maskUnits="userSpaceOnUse" x="87" y="148" width="45" height="92">
<path d="M131.124 172.584C130.293 173.622 129.047 171.545 126.14 170.091C124.303 169.172 121.387 168.336 118.965 167.426C118.28 165.803 117.376 163.684 116.795 162.407C115.757 160.123 114.095 161.577 114.095 161.577C114.095 161.577 113.057 160.538 112.019 158.255C110.981 155.97 109.319 156.178 107.035 155.763C104.75 155.347 99.9743 150.986 99.9743 150.986C99.9743 150.986 97.7391 149.312 96.812 148.445C95.7395 150.564 93.1613 154.288 87.5947 156.611C96.4719 165.889 114.491 183.514 116.379 184.836C118.456 186.289 117.833 190.443 116.379 194.596C114.926 198.749 109.526 204.771 109.734 211.417C109.942 218.062 112.018 228.238 111.81 230.314C111.625 232.165 107.483 237.972 106.585 239.212L108.696 239.451H119.684C119.624 233.884 119.627 211.151 123.44 202.072C127.802 191.689 131.124 172.584 131.124 172.584Z" fill="white"/>
</mask>
<g mask="url(#mask7_696_3078)">
<path opacity="0.16" d="M126.14 170.092C124.303 169.173 121.387 168.337 118.965 167.427C118.28 165.804 117.376 163.685 116.795 162.408C115.757 160.124 114.095 161.578 114.095 161.578C114.095 161.578 113.057 160.539 112.019 158.256C110.981 155.971 109.319 156.179 107.035 155.764C104.75 155.348 99.9743 150.987 99.9743 150.987C99.9743 150.987 97.7391 149.313 96.812 148.446C96.4543 149.152 95.9245 150.038 95.178 150.989C98.8898 154.126 102.989 157.455 104.422 158.116C107.26 159.426 107.916 158.334 110.099 159.645C112.283 160.955 114.685 165.322 114.685 165.322C114.685 165.322 115.995 161.828 117.087 164.23C118.179 166.632 120.799 170.781 120.799 170.781C120.799 170.781 124.292 172.746 125.166 172.746C125.85 172.746 129.207 174.484 130.632 175.238C130.95 173.583 131.124 172.584 131.124 172.584C130.294 173.623 129.047 171.546 126.14 170.092Z" fill="black"/>
</g>
<path d="M131.124 172.584C130.293 173.622 129.047 171.545 126.14 170.091C124.303 169.172 121.387 168.336 118.965 167.426C118.28 165.803 117.376 163.684 116.795 162.407C115.757 160.123 114.095 161.577 114.095 161.577C114.095 161.577 113.057 160.538 112.019 158.255C110.981 155.97 109.319 156.178 107.035 155.763C104.75 155.347 99.9743 150.986 99.9743 150.986C99.9743 150.986 97.7391 149.312 96.812 148.445C95.7395 150.564 93.1613 154.288 87.5947 156.611C96.4719 165.889 114.491 183.514 116.379 184.836C118.456 186.289 117.833 190.443 116.379 194.596C114.926 198.749 109.526 204.771 109.734 211.417C109.942 218.062 112.018 228.238 111.81 230.314C111.625 232.165 107.483 237.972 106.585 239.212L108.696 239.451H119.684C119.624 233.884 119.627 211.151 123.44 202.072C127.802 191.689 131.124 172.584 131.124 172.584Z" stroke="#263238" stroke-miterlimit="10" stroke-linecap="round" stroke-linejoin="round"/>
<path d="M131.272 171.863C131.272 171.863 128.691 171.069 127.102 172.458C125.513 173.848 123.131 180.997 121.74 188.742C120.35 196.486 123.441 202.072 123.441 202.072C123.441 202.072 126.705 193.508 127.698 189.337C128.691 185.168 131.272 171.863 131.272 171.863Z" fill="#D4AAFF"/>
<mask id="mask8_696_3078" style="mask-type:luminance" maskUnits="userSpaceOnUse" x="121" y="171" width="11" height="32">
<path d="M131.272 171.863C131.272 171.863 128.691 171.069 127.102 172.458C125.513 173.848 123.131 180.997 121.74 188.742C120.35 196.486 123.441 202.072 123.441 202.072C123.441 202.072 126.705 193.508 127.698 189.337C128.691 185.168 131.272 171.863 131.272 171.863Z" fill="white"/>
</mask>
<g mask="url(#mask8_696_3078)">
<path opacity="0.16" d="M126.32 173.121C126.32 173.121 128.185 172.671 128.956 172.928C129.728 173.185 130.757 174.022 130.757 174.022L131.272 171.862C131.272 171.862 130.049 171.192 128.763 171.449C127.477 171.707 126.32 173.121 126.32 173.121Z" fill="black"/>
</g>
<path d="M131.272 171.863C131.272 171.863 128.691 171.069 127.102 172.458C125.513 173.848 123.131 180.997 121.74 188.742C120.35 196.486 123.441 202.072 123.441 202.072C123.441 202.072 126.705 193.508 127.698 189.337C128.691 185.168 131.272 171.863 131.272 171.863Z" stroke="#263238" stroke-miterlimit="10" stroke-linecap="round" stroke-linejoin="round"/>
<path d="M113.888 172.538L117.211 186.036L109.735 169.008" stroke="#263238" stroke-miterlimit="10" stroke-linecap="round" stroke-linejoin="round"/>
<path d="M135.78 239.451H159.99C159.99 239.451 153.315 230.968 153.315 228.061C153.315 225.153 162.482 187.951 162.897 185.251C163.313 182.551 161.651 180.682 158.328 180.474C155.006 180.267 142.338 177.567 141.715 175.49C141.715 175.49 136.939 192.311 135.277 203.733C133.853 213.527 135.33 233.857 135.78 239.451Z" fill="#D4AAFF"/>
<mask id="mask9_696_3078" style="mask-type:luminance" maskUnits="userSpaceOnUse" x="134" y="175" width="29" height="65">
<path d="M135.78 239.451H159.99C159.99 239.451 153.315 230.968 153.315 228.061C153.315 225.153 162.482 187.951 162.897 185.251C163.313 182.551 161.651 180.682 158.328 180.474C155.006 180.267 142.338 177.567 141.715 175.49C141.715 175.49 136.939 192.311 135.277 203.733C133.853 213.527 135.33 233.857 135.78 239.451Z" fill="white"/>
</mask>
<g mask="url(#mask9_696_3078)">
<path opacity="0.16" d="M158.328 180.474C155.605 180.304 146.61 178.46 143.108 176.657L144.378 179.6C144.378 179.6 147.544 181.409 151.765 182.163C155.986 182.917 159.906 182.765 162.469 186.534C162.511 186.596 162.552 186.661 162.594 186.724C162.755 185.998 162.86 185.488 162.897 185.251C163.312 182.551 161.651 180.682 158.328 180.474Z" fill="black"/>
</g>
<path d="M135.78 239.451H159.99C159.99 239.451 153.315 230.968 153.315 228.061C153.315 225.153 162.482 187.951 162.897 185.251C163.313 182.551 161.651 180.682 158.328 180.474C155.006 180.267 142.338 177.567 141.715 175.49C141.715 175.49 136.939 192.311 135.277 203.733C133.853 213.527 135.33 233.857 135.78 239.451Z" stroke="#263238" stroke-miterlimit="10" stroke-linecap="round" stroke-linejoin="round"/>
<path d="M141.715 175.491C141.715 175.491 135.311 195.888 135.277 203.733C135.277 203.733 144.379 192.713 145.571 184.969C146.762 177.224 141.715 175.491 141.715 175.491Z" fill="#D4AAFF"/>
<mask id="mask10_696_3078" style="mask-type:luminance" maskUnits="userSpaceOnUse" x="135" y="175" width="11" height="29">
<path d="M141.715 175.491C141.715 175.491 135.311 195.888 135.277 203.733C135.277 203.733 144.379 192.713 145.571 184.969C146.762 177.224 141.715 175.491 141.715 175.491Z" fill="white"/>
</mask>
<g mask="url(#mask10_696_3078)">
<path opacity="0.16" d="M140.609 178.093C140.609 178.093 143.474 177.791 145.584 180.505C145.584 180.505 144.328 176.809 141.715 175.491L140.609 178.093Z" fill="black"/>
</g>
<path d="M141.715 175.491C141.715 175.491 135.311 195.888 135.277 203.733C135.277 203.733 144.379 192.713 145.571 184.969C146.762 177.224 141.715 175.491 141.715 175.491Z" stroke="#263238" stroke-miterlimit="10" stroke-linecap="round" stroke-linejoin="round"/>
<path d="M210.119 235.619C210.119 235.619 214.81 235.812 217.881 236.255C220.952 236.697 224.06 236.745 224.06 236.745C224.06 236.745 222.381 233.318 220.555 232.352C218.729 231.386 215.458 229.647 212.709 230.032C209.961 230.417 206.036 233.167 206.351 234.075C206.667 234.981 208.148 235.357 210.119 235.619Z" fill="white"/>
<mask id="mask11_696_3078" style="mask-type:luminance" maskUnits="userSpaceOnUse" x="206" y="229" width="19" height="8">
<path d="M210.119 235.619C210.119 235.619 214.81 235.812 217.881 236.255C220.952 236.697 224.06 236.745 224.06 236.745C224.06 236.745 222.381 233.318 220.555 232.352C218.729 231.386 215.458 229.647 212.709 230.032C209.961 230.417 206.036 233.167 206.351 234.075C206.667 234.981 208.148 235.357 210.119 235.619Z" fill="white"/>
</mask>
<g mask="url(#mask11_696_3078)">
<path d="M210.119 235.619C210.119 235.619 214.81 235.812 217.881 236.255C220.952 236.697 224.06 236.745 224.06 236.745C224.06 236.745 222.381 233.318 220.555 232.352C218.729 231.386 215.458 229.647 212.709 230.032C209.961 230.417 206.036 233.167 206.351 234.075C206.667 234.981 208.148 235.357 210.119 235.619Z" fill="#D4AAFF"/>
</g>
<mask id="mask12_696_3078" style="mask-type:luminance" maskUnits="userSpaceOnUse" x="206" y="229" width="19" height="8">
<path d="M210.119 235.619C210.119 235.619 214.81 235.812 217.881 236.255C220.952 236.697 224.06 236.745 224.06 236.745C224.06 236.745 222.381 233.318 220.555 232.352C218.729 231.386 215.458 229.647 212.709 230.032C209.961 230.417 206.036 233.167 206.351 234.075C206.667 234.981 208.148 235.357 210.119 235.619Z" fill="white"/>
</mask>
<g mask="url(#mask12_696_3078)">
<path opacity="0.5" d="M210.119 235.619C210.119 235.619 214.81 235.812 217.881 236.255C220.952 236.697 224.06 236.745 224.06 236.745C224.06 236.745 222.381 233.318 220.555 232.352C218.729 231.386 215.458 229.647 212.709 230.032C209.961 230.417 206.036 233.167 206.351 234.075C206.667 234.981 208.148 235.357 210.119 235.619Z" fill="white"/>
</g>
<path d="M210.119 235.619C210.119 235.619 214.81 235.812 217.881 236.255C220.952 236.697 224.06 236.745 224.06 236.745C224.06 236.745 222.381 233.318 220.555 232.352C218.729 231.386 215.458 229.647 212.709 230.032C209.961 230.417 206.036 233.167 206.351 234.075C206.667 234.981 208.148 235.357 210.119 235.619Z" stroke="#263238" stroke-miterlimit="10" stroke-linecap="round" stroke-linejoin="round"/>
<path d="M217.887 234.219C217.887 234.219 221.604 232.287 222.537 232.312C223.469 232.336 229.634 236.516 229.327 237.184C229.021 237.852 227.849 238.126 227.379 237.906C226.696 237.586 222.543 235.819 222.543 235.819L219.824 236.457L217.887 234.219Z" fill="white"/>
<mask id="mask13_696_3078" style="mask-type:luminance" maskUnits="userSpaceOnUse" x="217" y="232" width="13" height="6">
<path d="M217.887 234.219C217.887 234.219 221.604 232.287 222.537 232.312C223.469 232.336 229.634 236.516 229.327 237.184C229.021 237.852 227.849 238.126 227.379 237.906C226.696 237.586 222.543 235.819 222.543 235.819L219.824 236.457L217.887 234.219Z" fill="white"/>
</mask>
<g mask="url(#mask13_696_3078)">
<path d="M217.887 234.219C217.887 234.219 221.604 232.287 222.537 232.312C223.469 232.336 229.634 236.516 229.327 237.184C229.021 237.852 227.559 238.393 227.379 237.906C227.198 237.418 222.543 235.819 222.543 235.819L219.824 236.457L217.887 234.219Z" fill="#D4AAFF"/>
</g>
<mask id="mask14_696_3078" style="mask-type:luminance" maskUnits="userSpaceOnUse" x="217" y="232" width="13" height="6">
<path d="M217.887 234.219C217.887 234.219 221.604 232.287 222.537 232.312C223.469 232.336 229.634 236.516 229.327 237.184C229.021 237.852 227.849 238.126 227.379 237.906C226.696 237.586 222.543 235.819 222.543 235.819L219.824 236.457L217.887 234.219Z" fill="white"/>
</mask>
<g mask="url(#mask14_696_3078)">
<path opacity="0.5" d="M217.887 234.219C217.887 234.219 221.604 232.287 222.537 232.312C223.469 232.336 229.634 236.516 229.327 237.184C229.021 237.852 227.559 238.393 227.379 237.906C227.198 237.418 222.543 235.819 222.543 235.819L219.824 236.457L217.887 234.219Z" fill="white"/>
</g>
<path d="M217.887 234.219C217.887 234.219 221.604 232.287 222.537 232.312C223.469 232.336 229.634 236.516 229.327 237.184C229.021 237.852 227.849 238.126 227.379 237.906C226.696 237.586 222.543 235.819 222.543 235.819L219.824 236.457L217.887 234.219Z" stroke="#263238" stroke-miterlimit="10" stroke-linecap="round" stroke-linejoin="round"/>
<path d="M215.254 231.04C215.254 231.04 220.215 230.879 221.199 231.382C222.183 231.885 226.632 239.507 225.963 240.064C225.293 240.621 223.454 240.452 223.511 239.838C223.567 239.225 219.411 235.132 219.411 235.132L216.179 234.422L215.254 231.04Z" fill="white"/>
<mask id="mask15_696_3078" style="mask-type:luminance" maskUnits="userSpaceOnUse" x="215" y="231" width="12" height="10">
<path d="M215.254 231.04C215.254 231.04 220.215 230.879 221.199 231.382C222.183 231.885 226.632 239.507 225.963 240.064C225.293 240.621 223.454 240.452 223.511 239.838C223.567 239.225 219.411 235.132 219.411 235.132L216.179 234.422L215.254 231.04Z" fill="white"/>
</mask>
<g mask="url(#mask15_696_3078)">
<path d="M215.254 231.04C215.254 231.04 220.215 230.879 221.199 231.382C222.183 231.885 226.632 239.507 225.963 240.064C225.293 240.621 223.454 240.452 223.511 239.838C223.567 239.225 219.411 235.132 219.411 235.132L216.179 234.422L215.254 231.04Z" fill="#D4AAFF"/>
</g>
<mask id="mask16_696_3078" style="mask-type:luminance" maskUnits="userSpaceOnUse" x="215" y="231" width="12" height="10">
<path d="M215.254 231.04C215.254 231.04 220.215 230.879 221.199 231.382C222.183 231.885 226.632 239.507 225.963 240.064C225.293 240.621 223.454 240.452 223.511 239.838C223.567 239.225 219.411 235.132 219.411 235.132L216.179 234.422L215.254 231.04Z" fill="white"/>
</mask>
<g mask="url(#mask16_696_3078)">
<path opacity="0.5" d="M215.254 231.04C215.254 231.04 220.215 230.879 221.199 231.382C222.183 231.885 226.632 239.507 225.963 240.064C225.293 240.621 223.454 240.452 223.511 239.838C223.567 239.225 219.411 235.132 219.411 235.132L216.179 234.422L215.254 231.04Z" fill="white"/>
</g>
<path d="M215.254 231.04C215.254 231.04 220.215 230.879 221.199 231.382C222.183 231.885 226.632 239.507 225.963 240.064C225.293 240.621 223.454 240.452 223.511 239.838C223.567 239.225 219.411 235.132 219.411 235.132L216.179 234.422L215.254 231.04Z" stroke="#263238" stroke-miterlimit="10" stroke-linecap="round" stroke-linejoin="round"/>
<path d="M212.321 230.017C212.321 230.017 217.341 229.854 218.337 230.363C219.332 230.872 223.835 238.586 223.157 239.149C222.48 239.712 220.619 239.541 220.676 238.921C220.733 238.3 216.527 234.158 216.527 234.158L213.257 233.439L212.321 230.017Z" fill="white"/>
<mask id="mask17_696_3078" style="mask-type:luminance" maskUnits="userSpaceOnUse" x="212" y="229" width="12" height="11">
<path d="M212.321 230.017C212.321 230.017 217.341 229.854 218.337 230.363C219.332 230.872 223.835 238.586 223.157 239.149C222.48 239.712 220.619 239.541 220.676 238.921C220.733 238.3 216.527 234.158 216.527 234.158L213.257 233.439L212.321 230.017Z" fill="white"/>
</mask>
<g mask="url(#mask17_696_3078)">
<path d="M212.321 230.017C212.321 230.017 217.341 229.854 218.337 230.363C219.332 230.872 223.835 238.586 223.157 239.149C222.48 239.712 220.619 239.541 220.676 238.921C220.733 238.3 216.527 234.158 216.527 234.158L213.257 233.439L212.321 230.017Z" fill="#D4AAFF"/>
</g>
<mask id="mask18_696_3078" style="mask-type:luminance" maskUnits="userSpaceOnUse" x="212" y="229" width="12" height="11">
<path d="M212.321 230.017C212.321 230.017 217.341 229.854 218.337 230.363C219.332 230.872 223.835 238.586 223.157 239.149C222.48 239.712 220.619 239.541 220.676 238.921C220.733 238.3 216.527 234.158 216.527 234.158L213.257 233.439L212.321 230.017Z" fill="white"/>
</mask>
<g mask="url(#mask18_696_3078)">
<path opacity="0.5" d="M212.321 230.017C212.321 230.017 217.341 229.854 218.337 230.363C219.332 230.872 223.835 238.586 223.157 239.149C222.48 239.712 220.619 239.541 220.676 238.921C220.733 238.3 216.527 234.158 216.527 234.158L213.257 233.439L212.321 230.017Z" fill="white"/>
</g>
<path d="M212.321 230.017C212.321 230.017 217.341 229.854 218.337 230.363C219.332 230.872 223.835 238.586 223.157 239.149C222.48 239.712 220.619 239.541 220.676 238.921C220.733 238.3 216.527 234.158 216.527 234.158L213.257 233.439L212.321 230.017Z" stroke="#263238" stroke-miterlimit="10" stroke-linecap="round" stroke-linejoin="round"/>
<path d="M155.237 201.252C158.869 206.85 166.164 221.032 168.296 222.631C171.619 225.123 193.828 231.167 195.969 232.824C198.11 234.481 197.958 236.136 199.988 236.739C202.017 237.344 209.613 239.087 212.508 239.354C215.403 239.621 214.108 237.833 214.108 237.833L209.166 234.457L213.475 233.395C213.475 233.395 217.792 238.59 218.601 238.873C219.409 239.156 220.839 238.861 220.745 238.236C220.589 237.209 215.981 228.829 214.346 228.47C212.711 228.111 202.782 229.49 202.782 229.49C202.782 229.49 181.961 215.446 181.587 214.947C181.587 214.947 180.341 211.417 179.303 209.964C178.264 208.51 177.641 208.925 177.641 208.925C177.641 208.925 178.057 207.056 177.434 206.433C176.811 205.81 174.111 203.111 174.111 203.111L173.995 203.27C173.448 202.13 172.868 200.845 172.242 199.373C170.502 195.283 164.351 183.798 163.313 182.136C162.541 180.902 156.038 180.012 152.746 179.636" fill="#D4AAFF"/>
<mask id="mask19_696_3078" style="mask-type:luminance" maskUnits="userSpaceOnUse" x="152" y="179" width="69" height="61">
<path d="M155.237 201.252C158.869 206.85 166.164 221.032 168.296 222.631C171.619 225.123 193.828 231.167 195.969 232.824C198.11 234.481 197.958 236.136 199.988 236.739C202.017 237.344 209.613 239.087 212.508 239.354C215.403 239.621 214.108 237.833 214.108 237.833L209.166 234.457L213.475 233.395C213.475 233.395 217.792 238.59 218.601 238.873C219.409 239.156 220.839 238.861 220.745 238.236C220.589 237.209 215.981 228.829 214.346 228.47C212.711 228.111 202.782 229.49 202.782 229.49C202.782 229.49 181.961 215.446 181.587 214.947C181.587 214.947 180.341 211.417 179.303 209.964C178.264 208.51 177.641 208.925 177.641 208.925C177.641 208.925 178.057 207.056 177.434 206.433C176.811 205.81 174.111 203.111 174.111 203.111L173.995 203.27C173.448 202.13 172.868 200.845 172.242 199.373C170.502 195.283 164.351 183.798 163.313 182.136C162.541 180.902 156.038 180.012 152.746 179.636" fill="white"/>
</mask>
<g mask="url(#mask19_696_3078)">
<path opacity="0.16" d="M169.705 201.61C172.418 204.023 171.514 204.023 170.911 206.133C170.308 208.244 171.363 205.379 173.926 205.53C176.489 205.681 175.735 208.998 175.433 209.6C175.132 210.203 178.599 210.957 177.996 212.314C177.393 213.671 173.926 215.631 171.966 217.59C170.006 219.55 177.092 214.425 179.504 214.273C180.236 214.228 180.843 214.32 181.351 214.307C180.941 213.223 180.066 211.032 179.302 209.963C178.263 208.509 177.641 208.924 177.641 208.924C177.641 208.924 178.056 207.055 177.433 206.432C176.81 205.809 174.111 203.11 174.111 203.11L173.994 203.269C173.448 202.129 172.868 200.844 172.242 199.372C170.501 195.282 164.351 183.797 163.312 182.135C162.54 180.901 156.038 180.011 152.746 179.635L153.048 182.256L153.122 182.314C153.122 182.314 157.192 183.068 158.549 183.218C159.906 183.369 161.564 184.575 161.414 185.479C161.263 186.384 157.343 190.454 158.549 190.756C159.755 191.057 161.112 187.74 162.469 188.193C163.825 188.645 166.991 199.199 169.705 201.61Z" fill="black"/>
</g>
<path d="M155.237 201.252C158.869 206.85 166.164 221.032 168.296 222.631C171.619 225.123 193.828 231.167 195.969 232.824C198.11 234.481 197.958 236.136 199.988 236.739C202.017 237.344 209.613 239.087 212.508 239.354C215.403 239.621 214.108 237.833 214.108 237.833L209.166 234.457L213.475 233.395C213.475 233.395 217.792 238.59 218.601 238.873C219.409 239.156 220.839 238.861 220.745 238.236C220.589 237.209 215.981 228.829 214.346 228.47C212.711 228.111 202.782 229.49 202.782 229.49C202.782 229.49 181.961 215.446 181.587 214.947C181.587 214.947 180.341 211.417 179.303 209.964C178.264 208.51 177.641 208.925 177.641 208.925C177.641 208.925 178.057 207.056 177.434 206.433C176.811 205.81 174.111 203.111 174.111 203.111L173.995 203.27C173.448 202.13 172.868 200.845 172.242 199.373C170.502 195.283 164.351 183.798 163.313 182.136C162.541 180.902 156.038 180.012 152.746 179.636" stroke="#263238" stroke-miterlimit="10" stroke-linecap="round" stroke-linejoin="round"/>
<path d="M155.294 193.56C155.139 194.067 155.008 194.582 154.908 195.101" stroke="#263238" stroke-miterlimit="10" stroke-linecap="round" stroke-linejoin="round"/>
<path d="M160.793 184.203C160.793 184.203 158.14 187.097 156.332 190.912" stroke="#263238" stroke-miterlimit="10" stroke-linecap="round" stroke-linejoin="round"/>
<path d="M169.107 216.343C170.637 214.107 173.057 211.208 175.755 210.388" stroke="#263238" stroke-miterlimit="10" stroke-linecap="round" stroke-linejoin="round"/>
<path d="M167.414 219.125C167.414 219.125 167.687 218.595 168.174 217.792" stroke="#263238" stroke-miterlimit="10" stroke-linecap="round" stroke-linejoin="round"/>
<path d="M167.414 215.551C167.414 215.551 170.195 208.6 172.975 206.813C175.755 205.026 174.166 208.6 174.166 208.6" stroke="#263238" stroke-miterlimit="10" stroke-linecap="round" stroke-linejoin="round"/>
<path d="M195.969 232.823C198.11 234.48 197.958 236.135 199.988 236.739C202.017 237.343 209.613 239.086 212.508 239.353C215.403 239.62 214.108 237.832 214.108 237.832L209.166 234.457L213.475 233.394C213.475 233.394 217.792 238.589 218.601 238.872C219.409 239.155 220.948 239.258 220.745 238.235C220.35 236.25 215.981 228.828 214.346 228.47C212.711 228.11 202.782 229.489 202.782 229.489C202.782 229.489 183.814 216.456 181.738 215.062C173.682 215.836 169.84 220.057 168.241 222.585C168.259 222.6 168.279 222.617 168.297 222.63C171.619 225.122 193.828 231.166 195.969 232.823Z" fill="white"/>
<mask id="mask20_696_3078" style="mask-type:luminance" maskUnits="userSpaceOnUse" x="168" y="215" width="53" height="25">
<path d="M195.969 232.823C198.11 234.48 197.958 236.135 199.988 236.739C202.017 237.343 209.613 239.086 212.508 239.353C215.403 239.62 214.108 237.832 214.108 237.832L209.166 234.457L213.475 233.394C213.475 233.394 217.792 238.589 218.601 238.872C219.409 239.155 220.948 239.258 220.745 238.235C220.35 236.25 215.981 228.828 214.346 228.47C212.711 228.11 202.782 229.489 202.782 229.489C202.782 229.489 183.814 216.456 181.738 215.062C173.682 215.836 169.84 220.057 168.241 222.585C168.259 222.6 168.279 222.617 168.297 222.63C171.619 225.122 193.828 231.166 195.969 232.823Z" fill="white"/>
</mask>
<g mask="url(#mask20_696_3078)">
<path d="M220.744 238.236C219.718 235.715 215.981 228.829 214.345 228.47C212.71 228.111 202.782 229.49 202.782 229.49C202.782 229.49 183.813 216.457 181.738 215.062C179.323 215.295 177.293 215.84 175.582 216.554C178.577 218.242 198.536 229.558 201.047 230.074C203.721 230.624 212.636 229.175 214.204 230.227C215.201 230.897 218.15 235.6 220.167 238.939C220.751 238.84 220.951 238.745 220.744 238.236Z" fill="#D4AAFF"/>
</g>
<mask id="mask21_696_3078" style="mask-type:luminance" maskUnits="userSpaceOnUse" x="168" y="215" width="53" height="25">
<path d="M195.969 232.823C198.11 234.48 197.958 236.135 199.988 236.739C202.017 237.343 209.613 239.086 212.508 239.353C215.403 239.62 214.108 237.832 214.108 237.832L209.166 234.457L213.475 233.394C213.475 233.394 217.792 238.589 218.601 238.872C219.409 239.155 220.948 239.258 220.745 238.235C220.35 236.25 215.981 228.828 214.346 228.47C212.711 228.11 202.782 229.489 202.782 229.489C202.782 229.489 183.814 216.456 181.738 215.062C173.682 215.836 169.84 220.057 168.241 222.585C168.259 222.6 168.279 222.617 168.297 222.63C171.619 225.122 193.828 231.166 195.969 232.823Z" fill="white"/>
</mask>
<g mask="url(#mask21_696_3078)">
<path opacity="0.5" d="M220.744 238.236C219.139 234.63 215.981 228.829 214.345 228.47C212.71 228.111 202.782 229.49 202.782 229.49C202.782 229.49 183.813 216.457 181.738 215.062C179.323 215.295 177.293 215.84 175.582 216.554C178.577 218.242 198.536 229.558 201.047 230.074C203.721 230.624 212.636 229.175 214.204 230.227C215.201 230.897 218.15 235.6 220.167 238.939C220.751 238.84 220.967 238.738 220.744 238.236Z" fill="white"/>
</g>
<path d="M195.969 232.823C198.11 234.48 197.958 236.135 199.988 236.739C202.017 237.343 209.613 239.086 212.508 239.353C215.403 239.62 214.108 237.832 214.108 237.832L209.166 234.457L213.475 233.394C213.475 233.394 217.792 238.589 218.601 238.872C219.409 239.155 220.948 239.258 220.745 238.235C220.35 236.25 215.981 228.828 214.346 228.47C212.711 228.11 202.782 229.489 202.782 229.489C202.782 229.489 183.814 216.456 181.738 215.062C173.682 215.836 169.84 220.057 168.241 222.585C168.259 222.6 168.279 222.617 168.297 222.63C171.619 225.122 193.828 231.166 195.969 232.823Z" stroke="#263238" stroke-miterlimit="10" stroke-linecap="round" stroke-linejoin="round"/>
<path d="M145.943 133.989L128.896 141.102C128.896 141.102 128.721 145.501 126.707 149.767C124.693 154.032 125.868 162.095 127.803 166.447C129.738 170.798 138.266 169.097 141.407 168.554C144.548 168.012 147.598 166.752 147.598 166.752C147.598 166.752 150.382 168.005 153.118 165.982C153.118 165.982 143.975 140.365 145.943 133.989Z" fill="white"/>
<mask id="mask22_696_3078" style="mask-type:luminance" maskUnits="userSpaceOnUse" x="125" y="133" width="29" height="37">
<path d="M145.943 133.989L128.896 141.102C128.896 141.102 128.721 145.501 126.707 149.767C124.693 154.032 125.868 162.095 127.803 166.447C129.738 170.798 138.266 169.097 141.407 168.554C144.548 168.012 147.598 166.752 147.598 166.752C147.598 166.752 150.382 168.005 153.118 165.982C153.118 165.982 143.975 140.365 145.943 133.989Z" fill="white"/>
</mask>
<g mask="url(#mask22_696_3078)">
<path d="M145.943 133.989L128.896 141.102C128.896 141.102 128.721 145.501 126.707 149.767C124.693 154.032 125.868 162.095 127.803 166.447C128.131 167.185 128.653 167.746 129.303 168.171V167.842C129.303 167.842 126.137 160.003 126.74 155.48C127.343 150.957 129.905 148.696 130.207 145.832C130.509 142.967 130.358 141.61 136.087 139.5C141.815 137.389 144.228 135.43 144.83 137.54C145.433 139.65 147.845 153.52 149.504 156.836C151.162 160.153 151.011 163.62 148.449 165.128C146.383 166.343 143.24 167.948 140.204 168.763C140.657 168.686 141.065 168.613 141.407 168.554C144.548 168.012 147.598 166.751 147.598 166.751C147.598 166.751 150.382 168.004 153.118 165.981C153.118 165.981 143.975 140.365 145.943 133.989Z" fill="#D4AAFF"/>
</g>
<mask id="mask23_696_3078" style="mask-type:luminance" maskUnits="userSpaceOnUse" x="125" y="133" width="29" height="37">
<path d="M145.943 133.989L128.896 141.102C128.896 141.102 128.721 145.501 126.707 149.767C124.693 154.032 125.868 162.095 127.803 166.447C129.738 170.798 138.266 169.097 141.407 168.554C144.548 168.012 147.598 166.752 147.598 166.752C147.598 166.752 150.382 168.005 153.118 165.982C153.118 165.982 143.975 140.365 145.943 133.989Z" fill="white"/>
</mask>
<g mask="url(#mask23_696_3078)">
<path opacity="0.5" d="M145.943 133.989L128.896 141.102C128.896 141.102 128.721 145.501 126.707 149.767C124.693 154.032 125.868 162.095 127.803 166.447C128.131 167.185 128.653 167.746 129.303 168.171V167.842C129.303 167.842 126.137 160.003 126.74 155.48C127.343 150.957 129.905 148.696 130.207 145.832C130.509 142.967 130.358 141.61 136.087 139.5C141.815 137.389 144.228 135.43 144.83 137.54C145.433 139.65 147.845 153.52 149.504 156.836C151.162 160.153 151.011 163.62 148.449 165.128C146.383 166.343 143.24 167.948 140.204 168.763C140.657 168.686 141.065 168.613 141.407 168.554C144.548 168.012 147.598 166.751 147.598 166.751C147.598 166.751 150.382 168.004 153.118 165.981C153.118 165.981 143.975 140.365 145.943 133.989Z" fill="white"/>
</g>
<path d="M145.943 133.989L128.896 141.102C128.896 141.102 128.721 145.501 126.707 149.767C124.693 154.032 125.868 162.095 127.803 166.447C129.738 170.798 138.266 169.097 141.407 168.554C144.548 168.012 147.598 166.752 147.598 166.752C147.598 166.752 150.382 168.005 153.118 165.982C153.118 165.982 143.975 140.365 145.943 133.989Z" stroke="#263238" stroke-miterlimit="10" stroke-linecap="round" stroke-linejoin="round"/>
<path d="M137.328 145.146C137.328 145.146 137.416 146.965 136.963 148.113C136.51 149.261 132.236 153.693 132.366 154.17C132.497 154.646 132.879 156.196 133.638 156.347" stroke="#263238" stroke-miterlimit="10" stroke-linecap="round" stroke-linejoin="round"/>
<path d="M142.054 149.125C142.649 147.938 144.603 149.098 144.575 151.773" stroke="#263238" stroke-miterlimit="10" stroke-linecap="round" stroke-linejoin="round"/>
<path d="M132.39 145.628C132.39 145.628 134.054 144.894 135.538 147.591" stroke="#263238" stroke-miterlimit="10" stroke-linecap="round" stroke-linejoin="round"/>
<path d="M139.698 153.048C139.698 153.048 142.501 153.03 144.867 155.213" stroke="#263238" stroke-width="0.5" stroke-miterlimit="10" stroke-linecap="round" stroke-linejoin="round"/>
<path d="M130.381 149.507C130.381 149.507 132.244 149.764 133.262 150.304" stroke="#263238" stroke-width="0.5" stroke-miterlimit="10" stroke-linecap="round" stroke-linejoin="round"/>
<path d="M137.143 142.643C137.143 142.643 135.8 141.845 134.277 142.575C132.753 143.304 131.819 144.111 131.922 143.173C132.025 142.235 133.816 141.21 134.351 141.074C134.886 140.938 137.295 140.553 137.143 142.643Z" fill="#263238"/>
<path d="M141.41 140.524C141.41 140.524 143.965 142.491 145.086 145.311C146.206 148.132 147.112 145.047 146.205 143.197C145.297 141.347 142.742 139.38 141.41 140.524Z" fill="#263238"/>
<path d="M153.344 170.819C153.344 172.138 152.6 173.207 151.683 173.207C150.765 173.207 150.022 172.138 150.022 170.819C150.022 169.5 150.765 166.146 151.683 166.146C152.6 166.146 153.344 169.499 153.344 170.819Z" fill="#D4AAFF" stroke="#263238" stroke-miterlimit="10" stroke-linecap="round" stroke-linejoin="round"/>
<path d="M142.214 148.61C142.153 148.773 142.1 148.951 142.062 149.142C141.895 149.98 141.732 151.73 142.091 151.801C142.45 151.873 143.195 150.238 143.362 149.401C143.396 149.228 143.414 149.061 143.421 148.902C143.003 148.772 142.583 148.678 142.214 148.61Z" fill="#263238"/>
<path d="M132.56 145.474C132.511 145.615 132.468 145.764 132.436 145.924C132.27 146.762 132.275 148.602 132.634 148.673C132.992 148.745 133.57 147.02 133.736 146.182C133.779 145.966 133.8 145.756 133.802 145.563C133.343 145.44 132.923 145.43 132.56 145.474Z" fill="#263238"/>
<path d="M142.078 149.15L142.631 148.097C142.631 148.097 144.092 148.34 144.944 149.435" stroke="#263238" stroke-width="0.75" stroke-miterlimit="10" stroke-linecap="round" stroke-linejoin="round"/>
<path d="M132.56 145.474L133.14 144.811C133.14 144.811 133.383 144.689 134.722 145.297" stroke="#263238" stroke-width="0.75" stroke-miterlimit="10" stroke-linecap="round" stroke-linejoin="round"/>
<path d="M130.411 160.812C130.411 160.812 131.365 159.063 132.636 159.063C133.907 159.063 134.861 161.924 134.861 161.924" stroke="#263238" stroke-miterlimit="10" stroke-linecap="round" stroke-linejoin="round"/>
<path d="M89.4513 236.239C88.0216 236.239 86.4787 235.644 85.8844 235.389C85.2584 235.121 84.9686 234.396 85.2369 233.77C85.5057 233.145 86.2307 232.855 86.8562 233.123C87.9955 233.608 89.4564 233.905 89.8503 233.737C90.564 232.931 91.6711 228.055 90.2414 225.732C89.9228 225.213 89.6222 225.118 89.4241 225.091C88.6147 224.98 87.4131 225.814 86.9881 226.211C86.49 226.675 85.71 226.649 85.2453 226.151C84.7807 225.653 84.8073 224.872 85.3053 224.407C85.5317 224.196 87.5778 222.352 89.7535 222.647C90.4922 222.747 91.5415 223.139 92.3418 224.439C94.4462 227.859 93.0029 234.377 91.391 235.667C90.8635 236.088 90.1718 236.239 89.4513 236.239Z" fill="white"/>
<mask id="mask24_696_3078" style="mask-type:luminance" maskUnits="userSpaceOnUse" x="84" y="222" width="10" height="15">
<path d="M89.4513 236.239C88.0216 236.239 86.4787 235.644 85.8844 235.389C85.2584 235.121 84.9686 234.396 85.2369 233.77C85.5057 233.145 86.2307 232.855 86.8562 233.123C87.9955 233.608 89.4564 233.905 89.8503 233.737C90.564 232.931 91.6711 228.055 90.2414 225.732C89.9228 225.213 89.6222 225.118 89.4241 225.091C88.6147 224.98 87.4131 225.814 86.9881 226.211C86.49 226.675 85.71 226.649 85.2453 226.151C84.7807 225.653 84.8073 224.872 85.3053 224.407C85.5317 224.196 87.5778 222.352 89.7535 222.647C90.4922 222.747 91.5415 223.139 92.3418 224.439C94.4462 227.859 93.0029 234.377 91.391 235.667C90.8635 236.088 90.1718 236.239 89.4513 236.239Z" fill="white"/>
</mask>
<g mask="url(#mask24_696_3078)">
<path d="M91.0887 225.357C90.5686 224.357 89.8865 224.056 89.4066 223.979C87.9921 223.752 86.662 225.171 86.5154 225.332C86.2324 225.645 86.1985 226.136 86.3926 226.512C86.6083 226.468 86.8154 226.371 86.9881 226.209C87.4126 225.813 88.6147 224.979 89.4241 225.09C89.6222 225.117 89.9228 225.212 90.2414 225.73C91.6711 228.053 90.564 232.93 89.8503 233.735C89.4569 233.903 87.9955 233.607 86.8562 233.121C86.7124 233.06 86.563 233.031 86.4153 233.026C86.4492 233.349 86.6202 233.644 86.8918 233.781C87.2784 233.977 88.2814 234.435 89.2102 234.435C89.6783 234.435 90.1282 234.319 90.4706 233.994C91.5183 233.003 92.4562 227.988 91.0887 225.357Z" fill="#D4AAFF"/>
</g>
<mask id="mask25_696_3078" style="mask-type:luminance" maskUnits="userSpaceOnUse" x="84" y="222" width="10" height="15">
<path d="M89.4513 236.239C88.0216 236.239 86.4787 235.644 85.8844 235.389C85.2584 235.121 84.9686 234.396 85.2369 233.77C85.5057 233.145 86.2307 232.855 86.8562 233.123C87.9955 233.608 89.4564 233.905 89.8503 233.737C90.564 232.931 91.6711 228.055 90.2414 225.732C89.9228 225.213 89.6222 225.118 89.4241 225.091C88.6147 224.98 87.4131 225.814 86.9881 226.211C86.49 226.675 85.71 226.649 85.2453 226.151C84.7807 225.653 84.8073 224.872 85.3053 224.407C85.5317 224.196 87.5778 222.352 89.7535 222.647C90.4922 222.747 91.5415 223.139 92.3418 224.439C94.4462 227.859 93.0029 234.377 91.391 235.667C90.8635 236.088 90.1718 236.239 89.4513 236.239Z" fill="white"/>
</mask>
<g mask="url(#mask25_696_3078)">
<path opacity="0.5" d="M91.0887 225.357C90.5686 224.357 89.8865 224.056 89.4066 223.979C87.9921 223.752 86.662 225.171 86.5154 225.332C86.2324 225.645 86.1985 226.136 86.3926 226.512C86.6083 226.468 86.8154 226.371 86.9881 226.209C87.4126 225.813 88.6147 224.979 89.4241 225.09C89.6222 225.117 89.9228 225.212 90.2414 225.73C91.6711 228.053 90.564 232.93 89.8503 233.735C89.4569 233.903 87.9955 233.607 86.8562 233.121C86.7124 233.06 86.563 233.031 86.4153 233.026C86.4492 233.349 86.6202 233.644 86.8918 233.781C87.2784 233.977 88.2814 234.435 89.2102 234.435C89.6783 234.435 90.1282 234.319 90.4706 233.994C91.5183 233.003 92.4562 227.988 91.0887 225.357Z" fill="white"/>
</g>
<path d="M89.4513 236.239C88.0216 236.239 86.4787 235.644 85.8844 235.389C85.2584 235.121 84.9686 234.396 85.2369 233.77C85.5057 233.145 86.2307 232.855 86.8562 233.123C87.9955 233.608 89.4564 233.905 89.8503 233.737C90.564 232.931 91.6711 228.055 90.2414 225.732C89.9228 225.213 89.6222 225.118 89.4241 225.091C88.6147 224.98 87.4131 225.814 86.9881 226.211C86.49 226.675 85.71 226.649 85.2453 226.151C84.7807 225.653 84.8073 224.872 85.3053 224.407C85.5317 224.196 87.5778 222.352 89.7535 222.647C90.4922 222.747 91.5415 223.139 92.3418 224.439C94.4462 227.859 93.0029 234.377 91.391 235.667C90.8635 236.088 90.1718 236.239 89.4513 236.239Z" stroke="#263238" stroke-miterlimit="10" stroke-linecap="round" stroke-linejoin="round"/>
<path d="M87.2676 221.635H73.6542V239.704H87.2676V221.635Z" fill="white"/>
<mask id="mask26_696_3078" style="mask-type:luminance" maskUnits="userSpaceOnUse" x="73" y="221" width="15" height="19">
<path d="M87.2676 221.635H73.6542V239.704H87.2676V221.635Z" fill="white"/>
</mask>
<g mask="url(#mask26_696_3078)">
<path d="M79.2304 221.635H73.6542V239.704H79.2304V221.635Z" fill="#D4AAFF"/>
</g>
<mask id="mask27_696_3078" style="mask-type:luminance" maskUnits="userSpaceOnUse" x="73" y="221" width="15" height="19">
<path d="M87.2676 221.635H73.6542V239.704H87.2676V221.635Z" fill="white"/>
</mask>
<g mask="url(#mask27_696_3078)">
<path opacity="0.5" d="M79.2304 221.635H73.6542V239.704H79.2304V221.635Z" fill="white"/>
</g>
<path d="M87.2676 221.635H73.6542V239.704H87.2676V221.635Z" stroke="#263238" stroke-miterlimit="10" stroke-linecap="round" stroke-linejoin="round"/>
<path d="M162.066 239.451H103.92L102.019 207.485C101.797 206.159 102.82 204.95 104.164 204.95H161.822C163.167 204.95 164.189 206.159 163.967 207.485L162.066 239.451Z" fill="#263238" stroke="#263238" stroke-miterlimit="10" stroke-linecap="round" stroke-linejoin="round"/>
<path d="M106.78 205.716H161.399C162.724 205.716 163.732 206.886 163.513 208.169" stroke="white" stroke-miterlimit="10" stroke-linecap="round" stroke-linejoin="round"/>
<path d="M102.449 207.665C102.528 206.594 103.438 205.715 104.587 205.715" stroke="white" stroke-miterlimit="10" stroke-linecap="round" stroke-linejoin="round"/>
<path d="M162.314 236.337H103.673V239.452H162.314V236.337Z" fill="white" stroke="#263238" stroke-miterlimit="10" stroke-linecap="round" stroke-linejoin="round"/>
<path d="M132.785 224.814C135.079 224.814 136.939 223.699 136.939 222.322C136.939 220.946 135.079 219.83 132.785 219.83C130.492 219.83 128.632 220.946 128.632 222.322C128.632 223.699 130.492 224.814 132.785 224.814Z" fill="white" stroke="#263238" stroke-miterlimit="10" stroke-linecap="round" stroke-linejoin="round"/>
<path d="M250.752 239.085H32.3566V244.39H250.752V239.085Z" fill="#263238"/>
<path d="M194.125 115.561H89.0579C85.5158 115.561 82.6445 112.69 82.6445 109.148V48.8635C82.6445 45.3215 85.5158 42.4502 89.0579 42.4502H194.125C197.667 42.4502 200.538 45.3215 200.538 48.8635V109.148C200.538 112.69 197.667 115.561 194.125 115.561Z" fill="#D4AAFF"/>
<path d="M144.364 84.4622C153.895 82.9302 160.38 73.9616 158.848 64.4304C157.316 54.8992 148.347 48.4146 138.816 49.9467C129.285 51.4787 122.8 60.4473 124.332 69.9785C125.864 79.5097 134.833 85.9943 144.364 84.4622Z" fill="#263238"/>
<path d="M141.458 70.4421L135.637 77.9184C135.134 78.6044 134.517 78.9474 133.789 78.9474C133.264 78.9474 132.81 78.768 132.43 78.4086C132.05 78.0497 131.859 77.602 131.859 77.066C131.859 76.5623 132.052 76.0478 132.438 75.5225L139.078 67.3065L132.84 59.091C132.54 58.6727 132.39 58.2284 132.39 57.7564C132.39 57.1672 132.61 56.6549 133.049 56.2208C133.488 55.7867 133.998 55.5693 134.577 55.5693C135.284 55.5693 135.889 55.918 136.394 56.6147L142.021 64.0271L147.696 56.7432C148.264 55.961 148.912 55.5693 149.641 55.5693C150.146 55.5693 150.579 55.7544 150.944 56.124C151.309 56.4936 151.491 56.9306 151.491 57.4343C151.491 57.852 151.346 58.2539 151.057 58.6399L144.4 67.1616L150.831 75.651C151.153 76.08 151.314 76.5244 151.314 76.9856C151.314 77.5647 151.089 78.0605 150.638 78.4731C150.188 78.8851 149.674 79.0917 149.096 79.0917C148.367 79.0917 147.755 78.7493 147.262 78.0627L141.458 70.4421Z" fill="white"/>
<path d="M174.912 102.901H108.271C105.455 102.901 103.173 100.618 103.173 97.8021C103.173 94.9862 105.455 92.7041 108.271 92.7041H174.912C177.728 92.7041 180.01 94.9868 180.01 97.8021C180.011 100.618 177.728 102.901 174.912 102.901Z" fill="white"/>
<path d="M117.4 99.4446C117.308 99.4446 117.228 99.4106 117.16 99.3421C117.092 99.2742 117.057 99.191 117.057 99.0919C117.057 99.0172 117.079 98.9402 117.124 98.8621L117.63 98.0703L116.593 98.1009C116.48 98.1009 116.393 98.0669 116.332 97.9984C116.271 97.9305 116.24 97.8484 116.24 97.7533C116.24 97.6577 116.271 97.5762 116.332 97.5083C116.393 97.4403 116.481 97.4064 116.593 97.4064L117.614 97.4369L117.134 96.6757C117.083 96.5834 117.057 96.5002 117.057 96.4255C117.057 96.3231 117.092 96.2382 117.162 96.1702C117.232 96.1023 117.313 96.0684 117.405 96.0684C117.534 96.0684 117.635 96.1335 117.706 96.2625L118.202 97.1517L118.677 96.2982C118.769 96.1448 118.883 96.0684 119.02 96.0684C119.111 96.0684 119.191 96.1012 119.257 96.168C119.324 96.2342 119.356 96.3168 119.356 96.4159C119.356 96.4912 119.334 96.5659 119.29 96.6406L118.789 97.4375L119.827 97.407C119.939 97.407 120.026 97.4409 120.088 97.5088C120.149 97.5767 120.18 97.6588 120.18 97.7539C120.18 97.8496 120.149 97.9311 120.088 97.999C120.027 98.0669 119.939 98.1014 119.827 98.1014L118.78 98.0709L119.244 98.7965C119.303 98.8984 119.331 98.994 119.331 99.0829C119.331 99.1848 119.299 99.2691 119.232 99.3353C119.166 99.4021 119.088 99.4349 118.999 99.4349C118.863 99.4349 118.754 99.3619 118.673 99.2153L118.202 98.3827L117.732 99.2153C117.65 99.3676 117.54 99.4446 117.4 99.4446Z" fill="black"/>
<path d="M122.596 99.4446C122.504 99.4446 122.424 99.4106 122.356 99.3421C122.287 99.2742 122.253 99.191 122.253 99.0919C122.253 99.0172 122.276 98.9402 122.32 98.8621L122.826 98.0703L121.788 98.1009C121.676 98.1009 121.589 98.0669 121.528 97.9984C121.467 97.9305 121.436 97.8484 121.436 97.7533C121.436 97.6577 121.467 97.5762 121.528 97.5083C121.589 97.4403 121.676 97.4064 121.788 97.4064L122.81 97.4369L122.33 96.6757C122.279 96.5834 122.253 96.5002 122.253 96.4255C122.253 96.3231 122.288 96.2382 122.358 96.1702C122.428 96.1023 122.509 96.0684 122.601 96.0684C122.73 96.0684 122.831 96.1335 122.902 96.2625L123.398 97.1517L123.873 96.2982C123.965 96.1448 124.08 96.0684 124.215 96.0684C124.308 96.0684 124.386 96.1012 124.453 96.168C124.52 96.2342 124.553 96.3168 124.553 96.4159C124.553 96.4912 124.53 96.5659 124.486 96.6406L123.986 97.4375L125.023 97.407C125.136 97.407 125.222 97.4409 125.284 97.5088C125.345 97.5767 125.376 97.6588 125.376 97.7539C125.376 97.8496 125.345 97.9311 125.284 97.999C125.223 98.0669 125.136 98.1014 125.023 98.1014L123.976 98.0709L124.441 98.7965C124.499 98.8984 124.528 98.994 124.528 99.0829C124.528 99.1848 124.495 99.2691 124.428 99.3353C124.361 99.4021 124.285 99.4349 124.196 99.4349C124.059 99.4349 123.951 99.3619 123.869 99.2153L123.399 98.3827L122.928 99.2153C122.846 99.3676 122.736 99.4446 122.596 99.4446Z" fill="black"/>
<path d="M127.792 99.4446C127.7 99.4446 127.62 99.4106 127.551 99.3421C127.483 99.2742 127.449 99.191 127.449 99.0919C127.449 99.0172 127.471 98.9402 127.516 98.8621L128.022 98.0703L126.984 98.1009C126.872 98.1009 126.785 98.0669 126.723 97.9984C126.662 97.9305 126.632 97.8484 126.632 97.7533C126.632 97.6577 126.662 97.5762 126.723 97.5083C126.785 97.4403 126.872 97.4064 126.984 97.4064L128.006 97.4369L127.525 96.6757C127.474 96.5834 127.448 96.5002 127.448 96.4255C127.448 96.3231 127.484 96.2382 127.553 96.1702C127.623 96.1023 127.704 96.0684 127.796 96.0684C127.926 96.0684 128.026 96.1335 128.098 96.2625L128.593 97.1517L129.068 96.2982C129.161 96.1448 129.274 96.0684 129.411 96.0684C129.503 96.0684 129.582 96.1012 129.648 96.168C129.715 96.2342 129.748 96.3168 129.748 96.4159C129.748 96.4912 129.725 96.5659 129.681 96.6406L129.181 97.4375L130.218 97.407C130.331 97.407 130.418 97.4409 130.479 97.5088C130.54 97.5767 130.571 97.6588 130.571 97.7539C130.571 97.8496 130.54 97.9311 130.479 97.999C130.418 98.0669 130.331 98.1014 130.218 98.1014L129.171 98.0709L129.636 98.7965C129.694 98.8984 129.723 98.994 129.723 99.0829C129.723 99.1848 129.69 99.2691 129.623 99.3353C129.556 99.4021 129.479 99.4349 129.391 99.4349C129.255 99.4349 129.146 99.3619 129.064 99.2153L128.594 98.3827L128.124 99.2153C128.042 99.3676 127.931 99.4446 127.792 99.4446Z" fill="black"/>
<path d="M132.987 99.4446C132.896 99.4446 132.815 99.4106 132.747 99.3421C132.679 99.2742 132.645 99.191 132.645 99.0919C132.645 99.0172 132.667 98.9402 132.712 98.8621L133.217 98.0703L132.18 98.1009C132.068 98.1009 131.981 98.0669 131.92 97.9984C131.859 97.9305 131.828 97.8484 131.828 97.7533C131.828 97.6577 131.859 97.5762 131.92 97.5083C131.981 97.4403 132.068 97.4064 132.18 97.4064L133.202 97.4369L132.722 96.6757C132.671 96.5834 132.645 96.5002 132.645 96.4255C132.645 96.3231 132.679 96.2382 132.749 96.1702C132.819 96.1023 132.9 96.0684 132.992 96.0684C133.122 96.0684 133.222 96.1335 133.294 96.2625L133.789 97.1517L134.264 96.2982C134.357 96.1448 134.47 96.0684 134.607 96.0684C134.698 96.0684 134.778 96.1012 134.844 96.168C134.911 96.2342 134.943 96.3168 134.943 96.4159C134.943 96.4912 134.921 96.5659 134.877 96.6406L134.376 97.4375L135.414 97.407C135.526 97.407 135.613 97.4409 135.674 97.5088C135.735 97.5767 135.766 97.6588 135.766 97.7539C135.766 97.8496 135.735 97.9311 135.674 97.999C135.613 98.0669 135.526 98.1014 135.414 98.1014L134.366 98.0709L134.831 98.7965C134.889 98.8984 134.918 98.994 134.918 99.0829C134.918 99.1848 134.885 99.2691 134.818 99.3353C134.752 99.4021 134.675 99.4349 134.586 99.4349C134.45 99.4349 134.341 99.3619 134.259 99.2153L133.789 98.3827L133.318 99.2153C133.238 99.3676 133.127 99.4446 132.987 99.4446Z" fill="black"/>
<path d="M138.184 99.4446C138.092 99.4446 138.012 99.4106 137.943 99.3421C137.875 99.2742 137.841 99.191 137.841 99.0919C137.841 99.0172 137.864 98.9402 137.908 98.8621L138.414 98.0703L137.376 98.1009C137.264 98.1009 137.177 98.0669 137.115 97.9984C137.054 97.9305 137.024 97.8484 137.024 97.7533C137.024 97.6577 137.054 97.5762 137.115 97.5083C137.176 97.4403 137.264 97.4064 137.376 97.4064L138.398 97.4369L137.917 96.6757C137.866 96.5834 137.84 96.5002 137.84 96.4255C137.84 96.3231 137.875 96.2382 137.946 96.1702C138.015 96.1023 138.096 96.0684 138.188 96.0684C138.317 96.0684 138.418 96.1335 138.489 96.2625L138.985 97.1517L139.46 96.2982C139.552 96.1448 139.666 96.0684 139.803 96.0684C139.895 96.0684 139.974 96.1012 140.04 96.168C140.107 96.2342 140.14 96.3168 140.14 96.4159C140.14 96.4912 140.117 96.5659 140.073 96.6406L139.573 97.4375L140.61 97.407C140.723 97.407 140.81 97.4409 140.871 97.5088C140.932 97.5767 140.962 97.6588 140.962 97.7539C140.962 97.8496 140.932 97.9311 140.871 97.999C140.81 98.0669 140.722 98.1014 140.61 98.1014L139.563 98.0709L140.027 98.7965C140.086 98.8984 140.114 98.994 140.114 99.0829C140.114 99.1848 140.082 99.2691 140.015 99.3353C139.948 99.4021 139.871 99.4349 139.782 99.4349C139.646 99.4349 139.537 99.3619 139.455 99.2153L138.985 98.3827L138.515 99.2153C138.434 99.3676 138.324 99.4446 138.184 99.4446Z" fill="black"/>
<path d="M143.38 99.4446C143.287 99.4446 143.208 99.4106 143.139 99.3421C143.071 99.2742 143.037 99.191 143.037 99.0919C143.037 99.0172 143.059 98.9402 143.103 98.8621L143.61 98.0703L142.573 98.1009C142.459 98.1009 142.373 98.0669 142.312 97.9984C142.251 97.9305 142.22 97.8484 142.22 97.7533C142.22 97.6577 142.251 97.5762 142.312 97.5083C142.373 97.4403 142.46 97.4064 142.573 97.4064L143.594 97.4369L143.114 96.6757C143.063 96.5834 143.037 96.5002 143.037 96.4255C143.037 96.3231 143.072 96.2382 143.142 96.1702C143.212 96.1023 143.293 96.0684 143.384 96.0684C143.514 96.0684 143.615 96.1335 143.686 96.2625L144.182 97.1517L144.657 96.2982C144.749 96.1448 144.863 96.0684 144.999 96.0684C145.091 96.0684 145.171 96.1012 145.237 96.168C145.304 96.2342 145.336 96.3168 145.336 96.4159C145.336 96.4912 145.314 96.5659 145.27 96.6406L144.769 97.4375L145.807 97.407C145.919 97.407 146.006 97.4409 146.068 97.5088C146.129 97.5767 146.159 97.6588 146.159 97.7539C146.159 97.8496 146.129 97.9311 146.068 97.999C146.007 98.0669 145.919 98.1014 145.807 98.1014L144.76 98.0709L145.224 98.7965C145.283 98.8984 145.311 98.994 145.311 99.0829C145.311 99.1848 145.279 99.2691 145.212 99.3353C145.146 99.4021 145.068 99.4349 144.979 99.4349C144.843 99.4349 144.734 99.3619 144.653 99.2153L144.182 98.3827L143.713 99.2153C143.63 99.3676 143.52 99.4446 143.38 99.4446Z" fill="black"/>
<path d="M148.576 99.4446C148.483 99.4446 148.404 99.4106 148.335 99.3421C148.267 99.2742 148.233 99.191 148.233 99.0919C148.233 99.0172 148.255 98.9402 148.299 98.8621L148.805 98.0703L147.768 98.1009C147.656 98.1009 147.569 98.0669 147.508 97.9984C147.446 97.9305 147.415 97.8484 147.415 97.7533C147.415 97.6577 147.446 97.5762 147.508 97.5083C147.569 97.4403 147.656 97.4064 147.768 97.4064L148.79 97.4369L148.309 96.6757C148.258 96.5834 148.233 96.5002 148.233 96.4255C148.233 96.3231 148.267 96.2382 148.337 96.1702C148.407 96.1023 148.488 96.0684 148.58 96.0684C148.709 96.0684 148.81 96.1335 148.881 96.2625L149.377 97.1517L149.852 96.2982C149.944 96.1448 150.059 96.0684 150.194 96.0684C150.287 96.0684 150.366 96.1012 150.432 96.168C150.499 96.2342 150.532 96.3168 150.532 96.4159C150.532 96.4912 150.509 96.5659 150.465 96.6406L149.965 97.4375L151.002 97.407C151.115 97.407 151.201 97.4409 151.262 97.5088C151.324 97.5767 151.354 97.6588 151.354 97.7539C151.354 97.8496 151.324 97.9311 151.262 97.999C151.201 98.0669 151.114 98.1014 151.002 98.1014L149.955 98.0709L150.42 98.7965C150.478 98.8984 150.506 98.994 150.506 99.0829C150.506 99.1848 150.473 99.2691 150.407 99.3353C150.34 99.4021 150.263 99.4349 150.174 99.4349C150.038 99.4349 149.929 99.3619 149.847 99.2153L149.377 98.3827L148.907 99.2153C148.826 99.3676 148.715 99.4446 148.576 99.4446Z" fill="black"/>
<path d="M153.772 99.4446C153.68 99.4446 153.6 99.4106 153.531 99.3421C153.463 99.2742 153.43 99.191 153.43 99.0919C153.43 99.0172 153.452 98.9402 153.496 98.8621L154.002 98.0703L152.964 98.1009C152.852 98.1009 152.766 98.0669 152.704 97.9984C152.643 97.9305 152.612 97.8484 152.612 97.7533C152.612 97.6577 152.643 97.5762 152.704 97.5083C152.765 97.4403 152.852 97.4064 152.964 97.4064L153.986 97.4369L153.506 96.6757C153.456 96.5834 153.43 96.5002 153.43 96.4255C153.43 96.3231 153.464 96.2382 153.534 96.1702C153.604 96.1023 153.685 96.0684 153.777 96.0684C153.907 96.0684 154.007 96.1335 154.079 96.2625L154.575 97.1517L155.049 96.2982C155.142 96.1448 155.256 96.0684 155.392 96.0684C155.484 96.0684 155.563 96.1012 155.63 96.168C155.696 96.2342 155.729 96.3168 155.729 96.4159C155.729 96.4912 155.707 96.5659 155.662 96.6406L155.162 97.4375L156.2 97.407C156.312 97.407 156.399 97.4409 156.461 97.5088C156.522 97.5767 156.552 97.6588 156.552 97.7539C156.552 97.8496 156.522 97.9311 156.461 97.999C156.399 98.0669 156.312 98.1014 156.2 98.1014L155.152 98.0709L155.617 98.7965C155.675 98.8984 155.704 98.994 155.704 99.0829C155.704 99.1848 155.672 99.2691 155.605 99.3353C155.538 99.4021 155.461 99.4349 155.372 99.4349C155.236 99.4349 155.127 99.3619 155.046 99.2153L154.575 98.3827L154.105 99.2153C154.022 99.3676 153.911 99.4446 153.772 99.4446Z" fill="black"/>
<path d="M158.968 99.4446C158.876 99.4446 158.796 99.4106 158.727 99.3421C158.659 99.2742 158.625 99.191 158.625 99.0919C158.625 99.0172 158.648 98.9402 158.692 98.8621L159.198 98.0703L158.16 98.1009C158.048 98.1009 157.962 98.0669 157.9 97.9984C157.839 97.9305 157.808 97.8484 157.808 97.7533C157.808 97.6577 157.839 97.5762 157.9 97.5083C157.961 97.4403 158.048 97.4064 158.16 97.4064L159.182 97.4369L158.701 96.6757C158.65 96.5834 158.625 96.5002 158.625 96.4255C158.625 96.3231 158.659 96.2382 158.73 96.1702C158.799 96.1023 158.881 96.0684 158.972 96.0684C159.101 96.0684 159.202 96.1335 159.274 96.2625L159.769 97.1517L160.244 96.2982C160.337 96.1448 160.45 96.0684 160.586 96.0684C160.678 96.0684 160.758 96.1012 160.824 96.168C160.891 96.2342 160.923 96.3168 160.923 96.4159C160.923 96.4912 160.901 96.5659 160.857 96.6406L160.356 97.4375L161.394 97.407C161.506 97.407 161.593 97.4409 161.654 97.5088C161.715 97.5767 161.746 97.6588 161.746 97.7539C161.746 97.8496 161.715 97.9311 161.654 97.999C161.593 98.0669 161.506 98.1014 161.394 98.1014L160.347 98.0709L160.811 98.7965C160.87 98.8984 160.899 98.994 160.899 99.0829C160.899 99.1848 160.866 99.2691 160.799 99.3353C160.733 99.4021 160.655 99.4349 160.567 99.4349C160.43 99.4349 160.322 99.3619 160.24 99.2153L159.77 98.3827L159.3 99.2153C159.218 99.3676 159.107 99.4446 158.968 99.4446Z" fill="black"/>
<path d="M164.164 99.4446C164.071 99.4446 163.992 99.4106 163.923 99.3421C163.855 99.2742 163.821 99.191 163.821 99.0919C163.821 99.0172 163.843 98.9402 163.888 98.8621L164.394 98.0703L163.357 98.1009C163.245 98.1009 163.158 98.0669 163.096 97.9984C163.035 97.9305 163.004 97.8484 163.004 97.7533C163.004 97.6577 163.035 97.5762 163.096 97.5083C163.157 97.4403 163.245 97.4064 163.357 97.4064L164.378 97.4369L163.898 96.6757C163.847 96.5834 163.821 96.5002 163.821 96.4255C163.821 96.3231 163.856 96.2382 163.926 96.1702C163.996 96.1023 164.077 96.0684 164.168 96.0684C164.298 96.0684 164.399 96.1335 164.47 96.2625L164.966 97.1517L165.441 96.2982C165.533 96.1448 165.647 96.0684 165.783 96.0684C165.875 96.0684 165.955 96.1012 166.021 96.168C166.088 96.2342 166.12 96.3168 166.12 96.4159C166.12 96.4912 166.098 96.5659 166.054 96.6406L165.553 97.4375L166.591 97.407C166.703 97.407 166.79 97.4409 166.851 97.5088C166.912 97.5767 166.943 97.6588 166.943 97.7539C166.943 97.8496 166.912 97.9311 166.851 97.999C166.79 98.0669 166.703 98.1014 166.591 98.1014L165.544 98.0709L166.008 98.7965C166.067 98.8984 166.095 98.994 166.095 99.0829C166.095 99.1848 166.062 99.2691 165.995 99.3353C165.929 99.4021 165.852 99.4349 165.763 99.4349C165.626 99.4349 165.518 99.3619 165.436 99.2153L164.966 98.3827L164.495 99.2153C164.414 99.3676 164.303 99.4446 164.164 99.4446Z" fill="black"/>
<path d="M181.947 111.968H188.866" stroke="white" stroke-width="3" stroke-miterlimit="10" stroke-linecap="round" stroke-linejoin="round"/>
<path d="M85.9347 60.9971V106.945C85.9347 109.719 88.1834 111.968 90.9574 111.968H175.378" stroke="white" stroke-width="3" stroke-miterlimit="10" stroke-linecap="round" stroke-linejoin="round"/>
<path d="M85.9347 48.8057V55.7001" stroke="white" stroke-width="3" stroke-miterlimit="10" stroke-linecap="round" stroke-linejoin="round"/>
</svg>
