<svg width="100" height="100" viewBox="0 0 100 100" fill="none" xmlns="http://www.w3.org/2000/svg">
<path d="M49.9999 100C77.6141 100 99.9998 77.6142 99.9998 50C99.9998 22.3858 77.6141 0 49.9999 0C22.3857 0 0 22.3858 0 50C0 77.6142 22.3857 100 49.9999 100Z" fill="#A9CF10"/>
<path d="M21.7299 50.9933L41.9534 71.2103C42.8354 72.092 44.2656 72.092 45.1476 71.2103L78.3489 38.0197C79.2309 37.138 79.2309 35.7083 78.3489 34.8266L72.3057 28.7853C71.4237 27.9036 69.9935 27.9036 69.1115 28.7853L44.9628 52.9259C44.0808 53.8076 42.6506 53.8076 41.7686 52.9259L30.9468 42.1075C30.0822 41.2431 28.6864 41.2236 27.7979 42.0633L21.7752 47.7558C20.8508 48.6297 20.8303 50.094 21.7299 50.9933Z" fill="#FFF5F5"/>
<path d="M72.3087 28.7853C71.4267 27.9036 69.9965 27.9036 69.1145 28.7853L49.9336 47.9601V66.429L78.3519 38.0199C79.2339 37.1382 79.2339 35.7085 78.3519 34.8266L72.3087 28.7853Z" fill="#DFEBF1"/>
</svg>
