<svg width="36" height="42" viewBox="0 0 36 42" fill="none" xmlns="http://www.w3.org/2000/svg">
<path d="M29.236 0.5L29.2479 0.500561C32.1454 0.638103 34.5664 2.93549 34.5664 5.8C34.5664 8.70322 32.1445 11.0158 29.1805 11.0158C27.9863 11.0158 26.8739 10.6151 25.9733 9.98062L22.7381 12.7875C23.2495 13.582 23.5732 14.5145 23.5732 15.5263C23.5732 18.1363 21.5884 20.2603 19.0363 20.648V23.0025C21.2807 23.6135 22.9188 25.6468 22.9188 27.9895C22.9188 30.8927 20.4969 33.2053 17.5329 33.2053C16.1516 33.2053 14.921 32.7155 13.9547 31.8748L10.7643 34.1238C11.0731 34.7704 11.2712 35.5073 11.2712 36.2842C11.2712 39.1874 8.84934 41.5 5.88536 41.5C2.92138 41.5 0.499474 39.1874 0.499474 36.2842C0.499474 33.381 2.92138 31.0684 5.88536 31.0684C7.27195 31.0684 8.53722 31.5959 9.50728 32.4409L12.6926 30.1955C12.3577 29.5086 12.1907 28.763 12.1907 27.9895C12.1907 25.3391 14.2565 23.1307 16.9021 22.8109V20.5238C14.5746 19.9552 12.8014 17.9235 12.8014 15.4842C12.8014 12.581 15.2233 10.2684 18.1873 10.2684C19.3296 10.2684 20.3937 10.6277 21.2522 11.1869L24.5491 8.323C24.0836 7.55557 23.8383 6.66523 23.8383 5.71579C23.8383 2.81257 26.2602 0.5 29.2242 0.5H29.236ZM5.9726 33.2474C4.17772 33.2474 2.72095 34.6438 2.72095 36.3684C2.72095 38.0584 4.1418 39.4895 5.9726 39.4895C7.76562 39.4895 9.22122 38.096 9.22425 36.3738C9.1838 34.6336 7.75562 33.2474 5.9726 33.2474ZM14.3249 28.0316C14.3249 29.7216 15.7458 31.1526 17.5766 31.1526C19.3715 31.1526 20.8282 29.7562 20.8282 28.0316C20.8282 26.3416 19.4074 24.9105 17.5766 24.9105C15.7855 24.9105 14.3249 26.3453 14.3249 28.0316ZM14.9793 15.5263C14.9793 17.2163 16.4001 18.6474 18.2309 18.6474C20.0258 18.6474 21.4826 17.251 21.4826 15.5263C21.4826 13.8379 20.0643 12.4079 18.2359 12.4053C16.3904 12.4449 14.9793 13.8467 14.9793 15.5263ZM25.9725 5.8C25.9725 7.48998 27.3933 8.92105 29.2242 8.92105C31.019 8.92105 32.4758 7.52465 32.4758 5.8C32.4758 4.11159 31.0576 2.68161 29.2293 2.67895C27.3836 2.71851 25.9725 4.12033 25.9725 5.8Z" fill="#55079B" stroke="#55079B"/>
</svg>
