<svg width="278" height="278" viewBox="0 0 278 278" fill="none" xmlns="http://www.w3.org/2000/svg">
<path d="M223.551 223.144H243.099V216.922H223.551V223.144Z" fill="#EBEBEB"/>
<path d="M104.744 122.858H124.292V116.637H104.744V122.858Z" fill="#EBEBEB"/>
<path d="M234.456 230.988C237.702 230.933 246.027 230.795 249.16 230.759L254.004 230.735L253.75 230.988L253.726 224.767L254.003 225.044C250.757 225.034 242.479 225.004 239.343 224.959L234.456 224.899L234.588 224.767L234.456 230.988ZM234.456 230.988L234.324 224.767L234.321 224.637L234.456 224.635C236.894 224.603 241.792 224.547 244.23 224.527L254.004 224.489L254.283 224.488L254.282 224.767L254.257 230.988L254.256 231.243L254.004 231.242L249.073 231.218C245.959 231.184 237.672 231.044 234.456 230.988Z" fill="#EBEBEB"/>
<path d="M141.501 184.61C144.748 184.555 153.072 184.416 156.206 184.38L161.049 184.356L160.796 184.61L160.771 178.388L161.049 178.665C157.803 178.655 149.524 178.625 146.388 178.58L141.501 178.52L141.633 178.388L141.501 184.61ZM141.501 184.61L141.369 178.388L141.367 178.258L141.501 178.256C143.94 178.224 148.838 178.168 151.275 178.148L161.049 178.11L161.328 178.109L161.327 178.388L161.302 184.61L161.301 184.864L161.049 184.863L156.118 184.839C153.004 184.805 144.717 184.665 141.501 184.61Z" fill="#EBEBEB"/>
<path d="M152.406 192.454C155.652 192.399 163.976 192.261 167.11 192.225L171.953 192.201L171.7 192.454L171.675 186.233L171.953 186.51C168.707 186.5 160.428 186.47 157.292 186.425L152.406 186.364L152.537 186.233L152.406 192.454ZM152.406 192.454L152.274 186.233L152.271 186.103L152.406 186.101C154.844 186.069 159.742 186.012 162.179 185.993L171.953 185.955L172.232 185.954L172.231 186.233L172.206 192.454L172.205 192.709L171.953 192.708L167.022 192.684C163.908 192.65 155.621 192.509 152.406 192.454Z" fill="#EBEBEB"/>
<path d="M163.267 184.609H182.814V178.388H163.267V184.609Z" fill="#EBEBEB"/>
<path d="M23.9966 230.988H43.5444V224.767H23.9966V230.988Z" fill="#EBEBEB"/>
<path d="M34.9009 31.2051L54.4487 31.2051V24.9834L34.9009 24.9834V31.2051Z" fill="#EBEBEB"/>
<path d="M23.9964 39.0496L33.8376 38.8867L38.7009 38.82L43.5442 38.796L43.2907 39.0496L43.2662 32.8279L43.5437 33.1054L33.7697 33.0676L28.8831 33.0203L23.9969 32.9597L24.1287 32.8279L23.9964 39.0496ZM23.9964 39.0496L23.8646 32.8279L23.8618 32.6973L23.9969 32.6956L28.8836 32.635L33.7703 32.5877L43.5442 32.5499L43.8228 32.5488L43.8217 32.8279L43.7972 39.0496L43.7961 39.3042L43.5437 39.3031L38.6131 39.2792L33.7025 39.2125L23.9964 39.0496Z" fill="#EBEBEB"/>
<path d="M223.552 31.2049L233.393 31.0419L238.256 30.9752L243.099 30.9513L242.846 31.2049L242.821 24.9832L243.099 25.2607L233.325 25.2228L228.438 25.1756L223.552 25.115L223.683 24.9832L223.552 31.2049ZM223.552 31.2049L223.42 24.9832L223.417 24.8526L223.552 24.8509L228.438 24.7903L233.325 24.743L243.099 24.7052L243.378 24.7041L243.377 24.9827L243.352 31.2043L243.351 31.4589L243.099 31.4578L238.168 31.4339L233.258 31.3672L223.552 31.2049Z" fill="#EBEBEB"/>
<path d="M184.613 245.438H249.534L251.622 204.243H182.524L184.613 245.438Z" fill="#EBEBEB"/>
<path d="M187.081 209.053H245.424L244.538 222.847H187.84L187.081 209.053Z" stroke="#DBDBDB" stroke-miterlimit="10"/>
<path d="M188.868 226.897L189.485 239.3H243.763L244.538 226.897H188.868Z" stroke="#DBDBDB" stroke-miterlimit="10"/>
<path d="M222.54 217.247H210.866L210.486 214.305H222.92L222.54 217.247Z" stroke="#DBDBDB" stroke-miterlimit="10"/>
<path d="M222.54 234.569H210.866L210.486 231.627H222.92L222.54 234.569Z" stroke="#DBDBDB" stroke-miterlimit="10"/>
<path d="M193.616 245.438L192.986 249.925L191.718 258.942H189.238V245.438H193.616Z" fill="#EBEBEB"/>
<path d="M193.616 245.438L192.986 249.925H189.238V245.438H193.616Z" fill="#DBDBDB"/>
<path d="M240.531 245.438L241.161 249.925L242.429 258.942H244.908V245.438H240.531Z" fill="#EBEBEB"/>
<path d="M240.531 245.438L241.161 249.925H244.908V245.438H240.531Z" fill="#DBDBDB"/>
<path d="M255.053 21.459H162.169V101.323H255.053V21.459Z" stroke="#EBEBEB" stroke-miterlimit="10"/>
<path d="M166.551 24.2576C166.551 24.8853 166.042 25.394 165.414 25.394C164.787 25.394 164.278 24.8853 164.278 24.2576C164.278 23.6298 164.787 23.1211 165.414 23.1211C166.042 23.1205 166.551 23.6293 166.551 24.2576Z" fill="#A6A6A6"/>
<path d="M171.192 24.2576C171.192 24.8853 170.684 25.394 170.056 25.394C169.428 25.394 168.919 24.8853 168.919 24.2576C168.919 23.6298 169.428 23.1211 170.056 23.1211C170.684 23.1205 171.192 23.6293 171.192 24.2576Z" fill="#EBEBEB"/>
<path d="M175.833 24.2576C175.833 24.8853 175.324 25.394 174.697 25.394C174.069 25.394 173.56 24.8853 173.56 24.2576C173.56 23.6298 174.069 23.1211 174.697 23.1211C175.324 23.1205 175.833 23.6293 175.833 24.2576Z" fill="#D4AAFF"/>
<path d="M162.169 27.0293H255.053" stroke="#EBEBEB" stroke-miterlimit="10"/>
<path d="M223.42 197.233C223.875 200.347 223.705 203.559 222.946 206.608C222.59 208.035 222.1 209.411 221.51 210.752C220.764 212.468 219.985 214.142 220.173 216.019C220.354 216.14 219.732 216.12 219.712 215.938C214.697 213.083 208.266 212.559 204.406 207.891C202.578 205.68 201.656 202.878 201.219 200.076C200.744 197.024 200.612 193.645 201.399 190.637C202.063 188.094 203.549 185.64 205.94 184.394C208.407 183.11 211.639 183.217 214.236 184.024C219.841 185.765 222.627 191.812 223.42 197.233Z" fill="#B1CA4B"/>
<path d="M225.995 234.359C225.31 232.077 224.626 229.796 223.924 227.521C222.547 223.063 221.117 218.622 219.533 214.234C218.585 211.605 217.585 209.002 216.532 206.424C216.711 204.804 216.782 203.19 217.13 201.576C217.55 199.632 218.159 197.753 218.726 195.851C218.761 195.734 218.572 195.672 218.524 195.783C217.398 198.405 215.928 201.759 215.892 204.864C214.667 201.947 213.358 199.069 211.95 196.236C211.871 193.821 211.782 191.481 212.171 189.05C212.188 188.941 212.022 188.909 212.002 189.018C211.625 191.058 211.36 193.246 211.511 195.361C210.433 193.233 209.297 191.13 208.089 189.06C207.98 188.874 207.722 189.064 207.817 189.248C209.702 192.877 211.45 196.582 213.09 200.336C210.819 198.321 208.068 196.796 205.228 195.782C205.102 195.738 205.008 195.919 205.136 195.972C208.368 197.323 211.082 199.233 213.64 201.603C214.82 204.351 215.942 207.125 217.011 209.916C213.873 206.84 209.579 204.816 205.425 203.73C205.284 203.694 205.246 203.91 205.383 203.951C210.19 205.398 213.924 208.124 217.58 211.398C218.004 212.527 218.421 213.658 218.83 214.791C220.379 219.089 221.847 223.416 223.255 227.762C223.93 229.846 224.594 231.932 225.246 234.023C225.947 236.272 226.496 238.647 227.409 240.818C227.496 241.026 227.868 240.979 227.821 240.73C227.409 238.575 226.625 236.458 225.995 234.359Z" fill="#263238"/>
<path d="M217.676 192.843C216.777 194.221 216.177 195.734 215.869 197.346C215.862 197.387 215.926 197.412 215.941 197.37C216.5 195.853 217.157 194.388 217.899 192.952C217.975 192.806 217.76 192.713 217.676 192.843Z" fill="#263238"/>
<path d="M208.729 203.292C207.431 202.554 205.708 201.971 204.228 201.777C204.188 201.771 204.162 201.831 204.204 201.849C204.928 202.149 205.688 202.359 206.421 202.64C207.156 202.923 207.873 203.266 208.616 203.524C208.771 203.579 208.876 203.376 208.729 203.292Z" fill="#263238"/>
<path d="M206.209 190.724C205.753 190.422 205.267 190.034 204.761 189.83C204.681 189.797 204.612 189.896 204.677 189.956C205.079 190.326 205.638 190.601 206.105 190.882C206.196 190.938 206.299 190.783 206.209 190.724Z" fill="#263238"/>
<path d="M240.327 214.267C236.715 215.339 233.084 216.331 229.473 217.39C229.16 217.484 223.053 205.784 225.26 199.756C227.299 194.177 231.969 190.002 237.537 188.107C240.116 187.231 243.287 186.495 246.011 187.096C248.434 187.632 250.145 189.614 250.932 191.893C252.005 194.989 251.647 198.683 251.064 201.844C250.522 204.775 249.449 207.662 247.51 209.966C245.591 212.246 243.143 213.433 240.327 214.267Z" fill="#B1CA4B"/>
<path d="M245.564 203.147C243.264 204.307 240.934 205.147 238.482 205.935C236.946 206.428 235.227 206.874 233.754 207.646C235.28 204.245 236.954 200.916 238.731 197.616C241.064 196.941 243.518 195.888 245.278 194.236C245.374 194.146 245.25 194.011 245.146 194.085C243.221 195.444 241.099 196.261 238.97 197.181C239.451 196.293 239.934 195.406 240.429 194.522C240.567 194.275 240.228 194.031 240.062 194.27C238.169 197.002 236.466 199.898 234.93 202.89C234.549 200.25 234.412 197.678 234.558 194.992C234.562 194.924 234.464 194.919 234.453 194.985C234.007 197.825 234.028 200.83 234.542 203.662C233.276 206.191 232.121 208.781 231.085 211.403C230.673 209.828 230.138 208.277 229.78 206.688C229.266 204.402 229.025 202.073 229.261 199.735C229.268 199.667 229.167 199.662 229.156 199.727C228.456 203.872 229.095 208.553 230.672 212.491C230.068 214.069 229.492 215.655 228.965 217.242C226.268 225.369 224.605 233.748 224.171 242.303C224.161 242.5 224.453 242.52 224.476 242.325C225.457 233.934 227.19 225.58 229.859 217.559C230.906 214.41 232.112 211.352 233.435 208.352C235.568 207.722 237.693 206.866 239.789 206.14C241.833 205.432 243.928 204.613 245.645 203.269C245.712 203.217 245.638 203.109 245.564 203.147Z" fill="#263238"/>
<path d="M248.932 199.748C246.723 200.534 244.629 201.633 242.422 202.43C242.318 202.467 242.379 202.631 242.482 202.61C244.818 202.128 247.133 201.406 249.015 199.875C249.088 199.816 249.008 199.721 248.932 199.748Z" fill="#263238"/>
<path d="M230.894 194.982C230.921 194.865 230.749 194.797 230.714 194.918C230.108 196.954 229.69 199.115 230.279 201.196C230.303 201.278 230.431 201.28 230.436 201.186C230.541 199.09 230.424 197.049 230.894 194.982Z" fill="#263238"/>
<path d="M240.022 190.278C239.281 191.223 239.015 192.565 239.063 193.741C239.066 193.819 239.19 193.864 239.212 193.772C239.481 192.607 239.931 191.545 240.288 190.414C240.341 190.248 240.127 190.144 240.022 190.278Z" fill="#263238"/>
<path d="M197.363 219.428C198.422 222.788 200.938 227.434 204.923 227.471C207.506 227.496 210.108 227.189 212.697 227.153C215.47 227.11 218.249 227.116 221.016 227.281C221.242 227.293 220.684 218.978 214.019 214.928C212.152 213.794 209.869 213.435 207.751 212.976C205.327 212.449 202.829 212.095 200.344 212.205C198.814 212.266 197.54 212.591 196.996 214.157C196.427 215.798 196.855 217.83 197.363 219.428Z" fill="#B1CA4B"/>
<path d="M200.231 215.222C201.85 215.638 203.484 216.117 205.109 216.633C204.675 216.183 204.251 215.726 203.767 215.323C203.069 214.743 202.301 214.279 201.552 213.771C201.489 213.728 201.527 213.608 201.607 213.64C203.085 214.221 204.622 215.434 205.538 216.766C207.563 217.42 209.569 218.143 211.5 218.935C212.871 219.497 214.134 220.168 215.318 220.945C214.893 220.123 214.505 219.278 213.937 218.542C213.052 217.395 211.855 216.757 210.698 215.943C210.588 215.866 210.681 215.712 210.802 215.766C213.417 216.928 215.007 218.814 215.999 221.402C217.366 222.377 218.618 223.515 219.78 224.834C224.189 229.842 227.661 236.506 227.674 243.305C227.675 243.467 227.415 243.513 227.383 243.345C226.132 236.591 223.464 230.525 218.974 225.283C218.659 224.915 218.334 224.564 218.004 224.225C216.792 224.097 215.591 223.935 214.361 223.954C212.942 223.976 211.535 224.163 210.122 224.277C207.796 224.466 205.223 224.494 203.125 223.323C203.032 223.272 203.095 223.111 203.198 223.149C207.877 224.85 212.784 222.692 217.473 223.706C215.473 221.788 213.2 220.341 210.558 219.246C210.415 219.187 210.271 219.132 210.127 219.074C207.125 219.435 203.955 220.217 201.031 219.241C200.944 219.212 200.979 219.08 201.07 219.103C203.895 219.808 206.605 218.921 209.393 218.78C206.357 217.598 203.263 216.657 200.217 215.484C199.96 215.385 199.954 215.151 200.231 215.222Z" fill="#263238"/>
<path d="M198.906 218.178C200.372 218.419 201.803 218.427 203.276 218.509C203.31 218.51 203.32 218.561 203.285 218.57C201.847 218.893 200.276 218.694 198.876 218.288C198.803 218.268 198.834 218.166 198.906 218.178Z" fill="#263238"/>
<path d="M208.776 215.295C209.573 215.571 210.315 216.247 210.939 216.799C211.015 216.866 210.913 217.003 210.829 216.942C210.462 216.675 210.085 216.423 209.704 216.177C209.357 215.953 208.968 215.774 208.65 215.51C208.551 215.429 208.658 215.254 208.776 215.295Z" fill="#263238"/>
<path d="M232.308 226.117C232.259 226.227 232.418 226.331 232.479 226.215C232.485 226.215 232.485 226.215 232.485 226.209C232.509 226.239 232.54 226.27 232.589 226.276C235.282 226.857 237.988 227.451 240.73 227.696C242.934 227.892 245.474 228.014 247.402 226.734C250.016 225.002 251.736 220.368 250.322 217.424C248.651 213.929 243.613 215.826 241.085 217.069C237.199 218.967 234.077 222.175 232.308 226.117Z" fill="#B1CA4B"/>
<path d="M230.353 227.733C231.836 226.282 233.476 225.075 235.214 224.033C236.406 222.009 238.235 220.329 240.144 219.009C240.239 218.943 240.321 219.094 240.233 219.162C238.588 220.429 237.303 221.915 236.079 223.531C238.024 222.446 240.081 221.552 242.178 220.757C242.909 219.418 244.098 218.165 245.454 217.475C245.481 217.461 245.516 217.499 245.489 217.52C244.307 218.445 243.357 219.407 242.53 220.625C243.769 220.162 245.021 219.731 246.271 219.317C246.384 219.279 246.427 219.45 246.32 219.492C244.093 220.362 241.817 221.279 239.61 222.338C242.395 222.712 244.903 222.798 247.735 222.314C247.81 222.301 247.843 222.408 247.767 222.43C245.034 223.21 241.901 223.354 239.146 222.558C237.739 223.25 236.365 224.004 235.056 224.848C236.151 224.706 237.252 224.898 238.361 225.119C240.296 225.503 242.189 225.844 244.169 225.776C244.243 225.774 244.263 225.895 244.187 225.908C240.818 226.488 237.632 224.956 234.292 225.355C233.056 226.205 231.886 227.144 230.814 228.195C228.715 230.255 227.036 232.718 225.742 235.352C224.336 238.213 223.573 241.246 222.437 244.202C222.387 244.332 222.207 244.282 222.23 244.145C223.204 238.316 226.106 231.888 230.353 227.733Z" fill="#263238"/>
<path d="M240.515 219.739C240.711 219.337 241.056 218.994 241.378 218.692C241.66 218.427 242.005 218.086 242.373 217.948C242.407 217.935 242.426 217.981 242.405 218.004C242.13 218.317 241.744 218.547 241.447 218.847C241.147 219.15 240.898 219.503 240.594 219.8C240.551 219.841 240.49 219.79 240.515 219.739Z" fill="#263238"/>
<path d="M246.072 221.549C246.572 221.424 247.1 221.433 247.609 221.329C248.122 221.224 248.6 221.04 249.098 220.883C249.164 220.862 249.202 220.958 249.144 220.992C248.324 221.479 247.03 221.894 246.072 221.706C245.992 221.69 245.997 221.568 246.072 221.549Z" fill="#263238"/>
<path d="M216.469 236.961L216.911 241.984L218.412 258.941H231.693L233.568 241.984L234.122 236.961H216.469Z" fill="#37474F"/>
<path d="M216.469 236.961L216.911 241.984H233.568L234.122 236.961H216.469Z" fill="#263238"/>
<path d="M215.154 239.666H235.437V235.592H215.154V239.666Z" fill="#37474F"/>
<path d="M26.3784 258.942L54.5337 258.806L82.689 258.757L139 258.664L195.311 258.757L223.467 258.806L251.622 258.942L223.467 259.078L195.311 259.127L139 259.219L82.689 259.126L54.5337 259.077L26.3784 258.942Z" fill="#263238"/>
<path d="M241.38 31.4834H36.6211V161.021H241.38V31.4834Z" fill="white"/>
<path d="M241.379 161.021C241.345 161.053 36.5765 161.083 36.5359 161.106C36.4914 161.076 36.5136 31.5341 36.4819 31.4835V31.345H36.6204C36.6432 31.325 241.405 31.444 241.432 31.4296C241.479 31.4596 241.346 160.981 241.379 161.021ZM241.379 161.021C241.39 161.048 241.252 31.2461 241.379 31.5374L36.6209 31.6219L36.7594 31.4835C36.7444 31.4412 36.8178 161.393 36.6215 160.936C36.6209 160.936 241.379 161.021 241.379 161.021Z" fill="#263238"/>
<path d="M241.38 31.4834H36.6211V36.4679H241.38V31.4834Z" fill="#263238"/>
<path d="M41.4277 33.9758C41.4277 34.5307 40.9779 34.98 40.4236 34.98C39.8692 34.98 39.4194 34.5301 39.4194 33.9758C39.4194 33.4215 39.8692 32.9717 40.4236 32.9717C40.9785 32.9717 41.4277 33.4209 41.4277 33.9758Z" fill="#D4AAFF"/>
<path d="M45.5283 33.9758C45.5283 34.5307 45.0785 34.98 44.5242 34.98C43.9693 34.98 43.52 34.5301 43.52 33.9758C43.52 33.4215 43.9693 32.9717 44.5242 32.9717C45.0785 32.9717 45.5283 33.4209 45.5283 33.9758Z" fill="white"/>
<path d="M49.6289 33.9758C49.6289 34.5307 49.1791 34.98 48.6247 34.98C48.0704 34.98 47.6206 34.5301 47.6206 33.9758C47.6206 33.4215 48.0704 32.9717 48.6247 32.9717C49.1791 32.9717 49.6289 33.4209 49.6289 33.9758Z" fill="#455A64"/>
<path d="M98.6076 99.1592H77.4463V126.909H98.6076V99.1592Z" fill="#EBEBEB"/>
<path d="M124.094 99.1592H102.933V126.909H124.094V99.1592Z" fill="#EBEBEB"/>
<path d="M149.581 99.1592H128.419V126.909H149.581V99.1592Z" fill="#EBEBEB"/>
<path d="M175.067 99.1592H153.906V126.909H175.067V99.1592Z" fill="#EBEBEB"/>
<path d="M200.553 99.1592H179.392V126.909H200.553V99.1592Z" fill="#EBEBEB"/>
<path d="M91.0848 111.604C92.1 112.598 92.5971 113.924 92.5971 115.249C92.5971 116.555 92.0795 117.88 91.0848 118.874C90.0907 119.89 88.7652 120.387 87.4597 120.387C87.418 120.387 87.418 120.387 87.418 120.387C86.1336 120.387 84.7875 119.89 83.8134 118.874C83.3369 118.439 83.3369 117.694 83.8134 117.217C84.2488 116.762 85.0149 116.762 85.4709 117.217C86.0091 117.777 86.7135 118.045 87.4597 118.045C88.1636 118.045 88.8891 117.776 89.4274 117.217C89.9661 116.678 90.2558 115.954 90.2558 115.249C90.2558 114.504 89.9867 113.8 89.4274 113.261C88.8886 112.701 88.1841 112.453 87.4597 112.453C86.7552 112.453 86.0091 112.701 85.4709 113.261C85.0149 113.716 84.2693 113.716 83.8134 113.261C83.7306 113.178 83.6683 113.074 83.5855 112.991C83.5855 112.95 83.5855 112.929 83.5649 112.929C83.5649 112.887 83.5443 112.846 83.5232 112.826C83.5232 112.763 83.5026 112.722 83.5026 112.681C83.5026 112.66 83.482 112.66 83.482 112.639C83.4615 112.515 83.4615 112.39 83.482 112.287L84.1031 106.922C84.1654 106.57 84.3516 106.28 84.6207 106.093C84.6624 106.073 84.683 106.073 84.7036 106.051C84.7242 106.031 84.7453 106.031 84.7659 106.01C84.9315 105.927 85.0972 105.886 85.3046 105.886H91.4156C92.0784 105.886 92.596 106.403 92.596 107.067C92.596 107.688 92.0784 108.227 91.4156 108.227H86.3193L86.0708 110.278C86.5267 110.154 87.0032 110.091 87.4591 110.091C88.7652 110.091 90.0907 110.588 91.0848 111.604Z" fill="#C7C7C7"/>
<path d="M116.564 111.583C117.579 112.577 118.076 113.902 118.076 115.208C118.076 116.512 117.579 117.838 116.564 118.853C115.569 119.848 114.244 120.366 112.918 120.366C111.613 120.366 110.287 119.848 109.293 118.853C108.838 118.398 108.838 117.652 109.293 117.196C109.749 116.741 110.495 116.741 110.951 117.196C111.489 117.735 112.194 118.003 112.918 118.003C113.643 118.003 114.347 117.734 114.907 117.196C115.466 116.637 115.736 115.932 115.736 115.208C115.736 114.483 115.466 113.778 114.907 113.239C114.368 112.68 113.664 112.432 112.939 112.412C112.608 112.432 112.297 112.287 112.09 112.039C112.069 112.039 112.069 112.038 112.069 112.018C111.593 111.562 111.593 110.837 112.028 110.36L114.14 108.206H110.784C110.142 108.206 109.625 107.688 109.625 107.025C109.625 106.383 110.142 105.865 110.784 105.865H116.895C117.558 105.865 118.076 106.383 118.076 107.025C118.076 107.232 118.015 107.419 117.931 107.585C117.869 107.688 117.807 107.792 117.724 107.875L115.115 110.568C115.652 110.816 116.149 111.148 116.564 111.583Z" fill="#C7C7C7"/>
<path d="M142.051 111.583C143.066 112.577 143.563 113.902 143.563 115.208C143.563 116.512 143.066 117.838 142.051 118.853C141.056 119.848 139.73 120.366 138.405 120.366C137.1 120.366 135.774 119.848 134.78 118.853C134.324 118.398 134.324 117.652 134.78 117.196C135.235 116.741 135.981 116.741 136.437 117.196C136.976 117.735 137.68 118.003 138.405 118.003C139.13 118.003 139.834 117.734 140.393 117.196C140.952 116.637 141.222 115.932 141.222 115.208C141.222 114.483 140.952 113.778 140.393 113.239C139.855 112.68 139.151 112.432 138.426 112.412C138.094 112.432 137.784 112.287 137.576 112.039C137.556 112.039 137.556 112.038 137.556 112.018C137.079 111.562 137.079 110.837 137.514 110.36L139.627 108.206H136.271C135.629 108.206 135.111 107.688 135.111 107.025C135.111 106.383 135.629 105.865 136.271 105.865H142.382C143.045 105.865 143.563 106.383 143.563 107.025C143.563 107.232 143.5 107.419 143.418 107.585C143.356 107.688 143.294 107.792 143.211 107.875L140.601 110.568C141.139 110.816 141.636 111.148 142.051 111.583Z" fill="#C7C7C7"/>
<path d="M169.437 115.457C169.437 118.17 167.22 120.387 164.507 120.387C161.773 120.387 159.535 118.171 159.535 115.457C159.535 113.738 160.405 112.226 161.752 111.335C161.317 110.775 161.068 110.05 161.068 109.284C161.068 107.42 162.601 105.887 164.507 105.887C166.371 105.887 167.904 107.42 167.904 109.284C167.904 110.05 167.656 110.775 167.221 111.335C168.546 112.225 169.437 113.737 169.437 115.457ZM167.179 115.457C167.179 113.987 165.978 112.764 164.507 112.764C163.015 112.764 161.814 113.986 161.793 115.457C161.814 116.928 163.015 118.129 164.507 118.129C165.978 118.129 167.179 116.928 167.179 115.457ZM163.327 109.284C163.327 109.926 163.844 110.465 164.507 110.465C165.129 110.465 165.647 109.926 165.647 109.284C165.647 108.662 165.129 108.145 164.507 108.145C163.844 108.145 163.327 108.662 163.327 109.284Z" fill="#C7C7C7"/>
<path d="M154.047 136.618H123.954V146.045H154.047V136.618Z" fill="#D4AAFF"/>
<path d="M130.368 142.062C130.452 141.959 130.605 141.945 130.708 142.029C130.913 142.197 131.267 142.393 131.598 142.389C131.831 142.389 132.04 142.319 132.18 142.216C132.32 142.113 132.381 141.997 132.381 141.88C132.381 141.82 132.366 141.778 132.338 141.731C132.311 141.685 132.268 141.639 132.199 141.591C132.064 141.503 131.835 141.424 131.56 141.373H131.551C131.333 141.331 131.127 141.275 130.95 141.191C130.773 141.107 130.62 140.991 130.517 140.828C130.447 140.716 130.41 140.586 130.41 140.446C130.41 140.166 130.568 139.924 130.783 139.765C131.002 139.608 131.286 139.519 131.588 139.519C132.036 139.519 132.366 139.737 132.604 139.891C132.711 139.966 132.744 140.115 132.669 140.222C132.599 140.334 132.45 140.366 132.338 140.292C132.101 140.133 131.873 139.994 131.588 139.994C131.379 139.994 131.192 140.059 131.066 140.152C130.941 140.245 130.889 140.348 130.889 140.445C130.889 140.501 130.899 140.538 130.922 140.576C130.945 140.613 130.987 140.655 131.047 140.696C131.169 140.781 131.378 140.855 131.63 140.901H131.639C131.877 140.947 132.095 141.009 132.282 141.097C132.473 141.19 132.641 141.312 132.748 141.484C132.818 141.596 132.86 141.735 132.86 141.879C132.86 142.177 132.692 142.434 132.46 142.602C132.231 142.769 131.929 142.867 131.597 142.867C131.094 142.862 130.671 142.611 130.405 142.401C130.303 142.318 130.288 142.165 130.368 142.062Z" fill="white"/>
<path d="M134.927 142.872C134.177 142.872 133.581 142.267 133.581 141.526V139.868C133.581 139.724 133.693 139.611 133.837 139.611C133.977 139.611 134.098 139.724 134.098 139.868V141.526C134.098 141.983 134.471 142.356 134.928 142.356C135.389 142.356 135.757 141.983 135.757 141.526V139.868C135.757 139.724 135.874 139.611 136.018 139.611C136.163 139.611 136.274 139.724 136.274 139.868V141.526C136.273 142.267 135.672 142.872 134.927 142.872Z" fill="white"/>
<path d="M137.366 142.617V139.868C137.366 139.724 137.482 139.611 137.623 139.611C137.627 139.611 137.627 139.611 137.636 139.611C137.636 139.611 137.636 139.611 137.641 139.611H138.284C138.773 139.611 139.169 140.007 139.169 140.496C139.169 140.697 139.104 140.879 138.991 141.027C139.271 141.205 139.462 141.517 139.462 141.87C139.462 142.425 139.015 142.872 138.465 142.872H137.64C137.635 142.872 137.635 142.867 137.635 142.867C137.626 142.867 137.626 142.872 137.622 142.872C137.482 142.873 137.366 142.756 137.366 142.617ZM137.883 140.875H138.284C138.489 140.875 138.652 140.702 138.652 140.497C138.652 140.292 138.489 140.13 138.284 140.13H137.883V140.875ZM137.883 142.356H138.465C138.731 142.351 138.945 142.141 138.945 141.871C138.945 141.606 138.731 141.396 138.465 141.391H137.883V142.356Z" fill="white"/>
<path d="M142.936 139.868V142.617C142.936 142.756 142.816 142.872 142.675 142.872C142.531 142.872 142.42 142.756 142.42 142.617V140.655L141.749 141.587C141.697 141.657 141.623 141.694 141.539 141.694H141.534H141.53C141.446 141.694 141.367 141.657 141.315 141.587L140.649 140.655V142.617C140.649 142.756 140.533 142.872 140.389 142.872C140.249 142.872 140.133 142.756 140.133 142.617V139.868C140.133 139.728 140.25 139.611 140.389 139.611C140.394 139.611 140.394 139.611 140.403 139.611C140.478 139.611 140.561 139.649 140.608 139.719L141.535 141.004L142.462 139.719C142.513 139.649 142.588 139.611 142.672 139.611C142.672 139.611 142.672 139.611 142.677 139.611C142.815 139.616 142.936 139.728 142.936 139.868Z" fill="white"/>
<path d="M144.094 139.868C144.094 139.724 144.206 139.611 144.35 139.611C144.49 139.611 144.611 139.724 144.611 139.868V142.617C144.611 142.761 144.49 142.872 144.35 142.872C144.205 142.872 144.094 142.761 144.094 142.617V139.868Z" fill="white"/>
<path d="M147.476 140.129H146.735V142.617C146.735 142.761 146.623 142.872 146.479 142.872C146.339 142.872 146.222 142.761 146.222 142.617V140.129H145.487C145.342 140.129 145.231 140.007 145.231 139.868C145.231 139.724 145.343 139.611 145.487 139.611H147.476C147.616 139.611 147.731 139.724 147.731 139.868C147.731 140.007 147.616 140.129 147.476 140.129Z" fill="white"/>
<path d="M142.923 54.1956V58.4285H141.727V54.1956C141.727 52.586 140.504 51.2772 139 51.2772C137.496 51.2772 136.274 52.586 136.274 54.1956V58.4285H135.078V54.1956C135.078 51.8905 136.837 50.0156 139 50.0156C141.163 50.0156 142.923 51.8905 142.923 54.1956Z" fill="#EBEBEB"/>
<path d="M135.078 55.2969L136.274 55.3447V58.4288H135.078V55.2969Z" fill="#C7C7C7"/>
<path d="M142.923 55.6153V58.4281H141.727V55.5664L142.923 55.6153Z" fill="#C7C7C7"/>
<path d="M144.455 56.8623H133.544V65.9179H144.455V56.8623Z" fill="#D4AAFF"/>
<path d="M139.461 61.3311L139.918 63.4978H137.979L138.437 61.3311C138.164 61.1581 137.979 60.8574 137.979 60.5121C137.979 59.9716 138.414 59.543 138.949 59.543C139.483 59.543 139.918 59.9716 139.918 60.5121C139.918 60.8574 139.734 61.1581 139.461 61.3311Z" fill="#263238"/>
<path d="M79.8545 88.6999C79.8545 88.6343 79.9101 88.5781 79.9768 88.5781H79.9918H80.9832C81.5425 88.5781 81.9945 89.0357 81.9945 89.5945C81.9945 90.1533 81.542 90.6059 80.9832 90.6059L80.1036 90.6164V92.0142C80.1036 92.0804 80.048 92.1365 79.9768 92.1365C79.9106 92.1365 79.8545 92.0809 79.8545 92.0142V88.6999ZM80.9826 90.3668C81.4046 90.3618 81.7499 90.0159 81.7499 89.5939C81.7499 89.1719 81.4041 88.8267 80.9826 88.8267H80.103V90.3668H80.9826Z" fill="#263238"/>
<path d="M82.7969 88.6999C82.7969 88.6343 82.853 88.5781 82.9186 88.5781C82.9898 88.5781 83.046 88.6337 83.046 88.6999V92.0136C83.046 92.0798 82.9904 92.136 82.9186 92.136C82.853 92.136 82.7969 92.0804 82.7969 92.0136V88.6999Z" fill="#263238"/>
<path d="M84.0771 90.8959C84.0771 90.2048 84.6159 89.6455 85.2865 89.6455C85.927 89.6455 86.4351 90.1537 86.4863 90.8048V90.8098V90.8248C86.4863 90.8909 86.4307 90.9365 86.3645 90.9365H84.3218C84.3474 91.4803 84.7738 91.8923 85.287 91.8923C85.6173 91.8923 85.9225 91.7194 86.0904 91.4397C86.126 91.3786 86.2022 91.3685 86.2533 91.3991C86.3089 91.4397 86.3295 91.5109 86.2939 91.572C86.0804 91.9129 85.7096 92.1364 85.2876 92.1364C84.6159 92.1364 84.0771 91.577 84.0771 90.8959ZM84.3368 90.6975H86.2222C86.141 90.2299 85.7446 89.8896 85.287 89.8896C84.8194 89.8896 84.428 90.2249 84.3368 90.6975Z" fill="#263238"/>
<path d="M89.4395 89.7669V92.0131C89.4395 92.0793 89.3839 92.1354 89.3178 92.1354C89.2516 92.1354 89.196 92.0798 89.196 92.0131V91.6422C88.9825 91.9369 88.6422 92.1354 88.2608 92.1354C87.6053 92.1354 87.0815 91.5711 87.0815 90.89C87.0815 90.2089 87.6053 89.6445 88.2608 89.6445C88.6422 89.6445 88.9825 89.8375 89.196 90.1327V89.7669C89.196 89.6957 89.2516 89.6451 89.3178 89.6451C89.3839 89.6451 89.4395 89.6962 89.4395 89.7669ZM89.1955 90.8905C89.1955 90.3318 88.774 89.8842 88.2603 89.8842C87.7521 89.8842 87.3251 90.3318 87.3251 90.8905C87.3251 91.4493 87.7521 91.8919 88.2603 91.8919C88.7734 91.8919 89.1955 91.4493 89.1955 90.8905Z" fill="#263238"/>
<path d="M90.3234 91.6172C90.3639 91.5666 90.4401 91.5561 90.4963 91.6017C90.6692 91.7284 90.9439 91.8913 91.2586 91.8913C91.4515 91.8913 91.6194 91.8302 91.7317 91.739C91.8535 91.6578 91.9196 91.5461 91.9196 91.4337C91.9146 91.317 91.8685 91.2358 91.7417 91.1291C91.635 91.0479 91.457 90.9867 91.213 90.9461L91.2024 90.9411C90.9789 90.9005 90.781 90.8494 90.6381 90.7482C90.4807 90.6565 90.369 90.4941 90.369 90.3006C90.369 90.1021 90.4807 89.9298 90.6381 89.8124C90.7854 89.7107 90.9939 89.6445 91.248 89.6445C91.5683 89.6445 91.7968 89.7919 91.9902 89.9142C92.0458 89.9548 92.0614 90.031 92.0258 90.0871C91.9903 90.1427 91.9141 90.1583 91.8579 90.1227C91.675 90.0004 91.4921 89.8736 91.248 89.8736C91.0451 89.8736 90.8821 89.9292 90.7754 90.0159C90.6736 90.0971 90.618 90.1989 90.618 90.3006C90.618 90.4024 90.6636 90.4735 90.7604 90.5497C90.8721 90.6259 91.04 90.687 91.2686 90.7226H91.2786C91.5177 90.7582 91.7106 90.8294 91.8835 90.9261C92.0464 91.0329 92.1632 91.2264 92.1632 91.4343C92.1632 91.6428 92.0464 91.8107 91.8791 91.9375C91.7061 92.0648 91.5026 92.136 91.2586 92.136C90.8571 92.131 90.5419 91.9425 90.3389 91.7801C90.2872 91.734 90.2822 91.6684 90.3234 91.6172Z" fill="#263238"/>
<path d="M92.8184 90.8959C92.8184 90.2048 93.3571 89.6455 94.0282 89.6455C94.6687 89.6455 95.1769 90.1537 95.2275 90.8048V90.8098V90.8248C95.2275 90.8909 95.1719 90.9365 95.1057 90.9365H93.063C93.0886 91.4803 93.515 91.8923 94.0282 91.8923C94.3585 91.8923 94.6637 91.7194 94.8316 91.4397C94.8672 91.3786 94.9434 91.3685 94.994 91.3991C95.0496 91.4397 95.0702 91.5109 95.0346 91.572C94.8211 91.9129 94.4502 92.1364 94.0282 92.1364C93.3577 92.1364 92.8184 91.577 92.8184 90.8959ZM93.078 90.6975H94.9634C94.8822 90.2299 94.4853 89.8896 94.0282 89.8896C93.5606 89.8896 93.1692 90.2249 93.078 90.6975Z" fill="#263238"/>
<path d="M97.438 90.8959C97.438 90.2048 97.9767 89.6455 98.6478 89.6455C99.2884 89.6455 99.7965 90.1537 99.8471 90.8048V90.8098V90.8248C99.8471 90.8909 99.7915 90.9365 99.7254 90.9365H97.6826C97.7082 91.4803 98.1347 91.8923 98.6484 91.8923C98.9787 91.8923 99.2839 91.7194 99.4513 91.4397C99.4868 91.3786 99.563 91.3685 99.6142 91.3991C99.6698 91.4397 99.6903 91.5109 99.6548 91.572C99.4413 91.9129 99.0704 92.1364 98.6484 92.1364C97.9768 92.1364 97.438 91.577 97.438 90.8959ZM97.6971 90.6975H99.5825C99.5013 90.2299 99.1049 89.8896 98.6473 89.8896C98.1802 89.8896 97.7883 90.2249 97.6971 90.6975Z" fill="#263238"/>
<path d="M102.49 90.6629C102.49 90.2409 102.149 89.8956 101.722 89.8956C101.3 89.8956 100.96 90.2409 100.95 90.6629V92.0145V92.0351C100.945 92.0551 100.94 92.0757 100.924 92.0907C100.903 92.1213 100.868 92.1363 100.832 92.1363H100.802C100.766 92.1263 100.735 92.1007 100.72 92.0701C100.715 92.0651 100.715 92.0601 100.715 92.0545C100.715 92.0495 100.71 92.0445 100.71 92.0445V92.014V90.6623V90.6212V89.7727C100.71 89.7065 100.762 89.6504 100.832 89.6504C100.898 89.6504 100.949 89.7065 100.949 89.7727V90.0118C101.132 89.7927 101.412 89.651 101.722 89.651C102.281 89.651 102.733 90.1085 102.733 90.6623V92.014C102.733 92.0851 102.678 92.1363 102.611 92.1363C102.545 92.1363 102.489 92.0851 102.489 92.014V90.6629H102.49Z" fill="#263238"/>
<path d="M104.695 89.7668C104.695 89.8279 104.634 89.8891 104.573 89.8891H104.253V91.7033C104.253 91.8257 104.375 91.8863 104.435 91.8863C104.497 91.8863 104.562 91.9524 104.562 92.013C104.562 92.0742 104.497 92.1354 104.435 92.1354C104.186 92.1354 103.998 91.9524 103.998 91.7033V89.8891H103.688C103.566 89.8891 103.566 89.8279 103.566 89.7668C103.566 89.7056 103.566 89.645 103.688 89.645H103.998V88.7204C103.998 88.6592 104.06 88.5986 104.12 88.5986C104.186 88.5986 104.253 88.6598 104.253 88.7204V89.645H104.573C104.634 89.645 104.695 89.7062 104.695 89.7668Z" fill="#263238"/>
<path d="M105.477 90.8959C105.477 90.2048 106.016 89.6455 106.687 89.6455C107.327 89.6455 107.836 90.1537 107.886 90.8048V90.8098V90.8248C107.886 90.8909 107.831 90.9365 107.764 90.9365H105.722C105.747 91.4803 106.174 91.8923 106.687 91.8923C107.017 91.8923 107.322 91.7194 107.49 91.4397C107.526 91.3786 107.602 91.3685 107.653 91.3991C107.708 91.4397 107.729 91.5109 107.693 91.572C107.48 91.9129 107.109 92.1364 106.687 92.1364C106.016 92.1364 105.477 91.577 105.477 90.8959ZM105.737 90.6975H107.622C107.541 90.2299 107.144 89.8896 106.687 89.8896C106.219 89.8896 105.828 90.2249 105.737 90.6975Z" fill="#263238"/>
<path d="M108.644 89.7727C108.644 89.7015 108.699 89.6504 108.77 89.6504C108.831 89.6504 108.888 89.7015 108.888 89.7727V90.3215C108.898 90.3009 108.908 90.2803 108.923 90.2603C109.111 89.9656 109.441 89.6504 109.92 89.6504C109.986 89.6504 110.042 89.7015 110.042 89.7727C110.042 89.8383 109.986 89.8945 109.92 89.8945C109.594 89.8945 109.371 90.0774 109.198 90.3009C109.03 90.5244 108.933 90.7785 108.898 90.8803C108.888 90.9008 108.888 90.9108 108.888 90.9208V92.0134C108.888 92.0846 108.831 92.1357 108.77 92.1357C108.699 92.1357 108.644 92.0846 108.644 92.0134V89.7727Z" fill="#263238"/>
<path d="M113.268 89.7668C113.268 89.8279 113.207 89.8891 113.146 89.8891H112.826V91.7033C112.826 91.8257 112.948 91.8863 113.009 91.8863C113.07 91.8863 113.135 91.9524 113.135 92.013C113.135 92.0742 113.07 92.1354 113.009 92.1354C112.76 92.1354 112.572 91.9524 112.572 91.7033V89.8891H112.261C112.14 89.8891 112.14 89.8279 112.14 89.7668C112.14 89.7056 112.14 89.645 112.261 89.645H112.572V88.7204C112.572 88.6592 112.633 88.5986 112.693 88.5986C112.76 88.5986 112.826 88.6598 112.826 88.7204V89.645H113.146C113.207 89.645 113.268 89.7062 113.268 89.7668Z" fill="#263238"/>
<path d="M116.16 90.626C116.16 90.189 115.804 89.8943 115.367 89.8943C114.935 89.8943 114.58 90.189 114.58 90.626V92.0132V92.0282C114.58 92.0388 114.575 92.0433 114.575 92.0488C114.57 92.0588 114.57 92.0638 114.564 92.0688C114.549 92.0994 114.523 92.12 114.488 92.13C114.488 92.13 114.483 92.135 114.478 92.135H114.468H114.453C114.417 92.135 114.382 92.12 114.356 92.0944C114.346 92.0794 114.341 92.0688 114.336 92.0533C114.331 92.0382 114.331 92.0277 114.331 92.0127V90.6255V90.5849V88.6989C114.331 88.6333 114.387 88.5771 114.453 88.5771C114.524 88.5771 114.58 88.6328 114.58 88.6989V90.0105C114.768 89.787 115.052 89.6441 115.367 89.6441C115.942 89.6441 116.409 90.0511 116.409 90.6249V92.0121C116.409 92.0783 116.354 92.1344 116.283 92.1344C116.216 92.1344 116.161 92.0788 116.161 92.0121L116.16 90.626Z" fill="#263238"/>
<path d="M117.268 90.8959C117.268 90.2048 117.806 89.6455 118.477 89.6455C119.117 89.6455 119.626 90.1537 119.677 90.8048V90.8098V90.8248C119.677 90.8909 119.621 90.9365 119.554 90.9365H117.512C117.537 91.4803 117.964 91.8923 118.477 91.8923C118.807 91.8923 119.112 91.7194 119.28 91.4397C119.316 91.3786 119.392 91.3685 119.443 91.3991C119.499 91.4397 119.519 91.5109 119.484 91.572C119.27 91.9129 118.899 92.1364 118.477 92.1364C117.806 92.1364 117.268 91.577 117.268 90.8959ZM117.527 90.6975H119.412C119.331 90.2299 118.934 89.8896 118.477 89.8896C118.009 89.8896 117.618 90.2249 117.527 90.6975Z" fill="#263238"/>
<path d="M123.681 88.5273C124.632 88.5273 125.379 89.3352 125.384 90.3316C125.379 91.3279 124.632 92.1358 123.681 92.1358C122.721 92.1358 121.968 91.3279 121.963 90.3316C121.968 89.3352 122.721 88.5273 123.681 88.5273ZM123.681 91.8873C124.464 91.8873 125.125 91.2011 125.13 90.3321C125.125 89.4525 124.464 88.782 123.681 88.782C122.873 88.782 122.212 89.4525 122.212 90.3321C122.212 91.2006 122.873 91.8873 123.681 91.8873Z" fill="#263238"/>
<path d="M127.081 88.8272H126.008C125.942 88.8272 125.887 88.7716 125.887 88.6999C125.887 88.6343 125.942 88.5781 126.008 88.5781H128.397C128.463 88.5781 128.519 88.6337 128.519 88.6999C128.519 88.7711 128.463 88.8272 128.397 88.8272H127.325V92.0136C127.325 92.0798 127.268 92.136 127.202 92.136C127.136 92.136 127.08 92.0804 127.08 92.0136V88.8272H127.081Z" fill="#263238"/>
<path d="M129.454 88.6999C129.454 88.6343 129.509 88.5781 129.576 88.5781H129.591H130.582C131.141 88.5781 131.594 89.0357 131.594 89.5945C131.594 90.1533 131.141 90.6059 130.582 90.6059L129.703 90.6164V92.0142C129.703 92.0804 129.647 92.1365 129.576 92.1365C129.51 92.1365 129.454 92.0809 129.454 92.0142V88.6999ZM130.582 90.3668C131.004 90.3618 131.35 90.0159 131.35 89.5939C131.35 89.1719 131.004 88.8267 130.582 88.8267H129.703V90.3668H130.582Z" fill="#263238"/>
<path d="M133.708 90.8859C133.708 90.1943 134.277 89.6455 134.988 89.6455C135.283 89.6455 135.562 89.7473 135.781 89.9202C135.831 89.9558 135.842 90.0319 135.796 90.0881C135.755 90.1337 135.684 90.1487 135.628 90.1081C135.45 89.9658 135.227 89.8846 134.987 89.8846C134.408 89.8846 133.951 90.3372 133.951 90.8859C133.951 91.4447 134.409 91.8923 134.987 91.8923C135.227 91.8923 135.45 91.8111 135.628 91.6732C135.684 91.6327 135.755 91.6482 135.796 91.6938C135.841 91.7494 135.831 91.8261 135.77 91.8717C135.562 92.0341 135.282 92.1358 134.987 92.1358C134.277 92.1364 133.708 91.5871 133.708 90.8859Z" fill="#263238"/>
<path d="M137.773 89.6455C138.429 89.6455 138.952 90.2149 138.952 90.891C138.952 91.567 138.429 92.1364 137.773 92.1364C137.123 92.1364 136.594 91.567 136.594 90.891C136.594 90.2149 137.123 89.6455 137.773 89.6455ZM137.773 91.8923C138.281 91.8923 138.708 91.4447 138.708 90.891C138.708 90.3372 138.281 89.8846 137.773 89.8846C137.265 89.8846 136.838 90.3372 136.838 90.891C136.838 91.4447 137.265 91.8923 137.773 91.8923Z" fill="#263238"/>
<path d="M141.88 91.6528C141.661 91.9475 141.315 92.1354 140.924 92.1354C140.253 92.1354 139.72 91.5766 139.72 90.8955C139.72 90.2044 140.253 89.6451 140.924 89.6451C141.315 89.6451 141.661 89.838 141.88 90.1333V88.6999C141.88 88.6343 141.936 88.5781 142.007 88.5781C142.073 88.5781 142.129 88.6337 142.129 88.6999V90.8449V90.8961V92.0142C142.129 92.0804 142.073 92.1365 142.007 92.1365C141.936 92.1365 141.88 92.0809 141.88 92.0142V91.6528ZM141.88 90.9361V90.8549C141.859 90.3212 141.438 89.8942 140.924 89.8942C140.401 89.8942 139.968 90.3412 139.968 90.8955C139.968 91.4443 140.401 91.8869 140.924 91.8869C141.438 91.8869 141.859 91.4649 141.88 90.9361Z" fill="#263238"/>
<path d="M142.987 90.8959C142.987 90.2048 143.526 89.6455 144.197 89.6455C144.837 89.6455 145.346 90.1537 145.397 90.8048V90.8098V90.8248C145.397 90.8909 145.34 90.9365 145.275 90.9365H143.231C143.257 91.4803 143.683 91.8923 144.197 91.8923C144.527 91.8923 144.833 91.7194 145 91.4397C145.036 91.3786 145.112 91.3685 145.162 91.3991C145.219 91.4397 145.239 91.5109 145.204 91.572C144.99 91.9129 144.619 92.1364 144.197 92.1364C143.526 92.1364 142.987 91.577 142.987 90.8959ZM143.246 90.6975H145.132C145.051 90.2299 144.655 89.8896 144.197 89.8896C143.729 89.8896 143.338 90.2249 143.246 90.6975Z" fill="#263238"/>
<path d="M147.612 91.6172C147.652 91.5666 147.729 91.5561 147.785 91.6017C147.958 91.7284 148.232 91.8913 148.547 91.8913C148.74 91.8913 148.908 91.8302 149.02 91.739C149.142 91.6578 149.208 91.5461 149.208 91.4337C149.203 91.317 149.157 91.2358 149.03 91.1291C148.923 91.0479 148.745 90.9867 148.501 90.9461L148.491 90.9411C148.267 90.9005 148.069 90.8494 147.926 90.7482C147.769 90.6565 147.657 90.4941 147.657 90.3006C147.657 90.1021 147.769 89.9298 147.926 89.8124C148.074 89.7107 148.282 89.6445 148.537 89.6445C148.857 89.6445 149.086 89.7919 149.279 89.9142C149.335 89.9548 149.35 90.031 149.314 90.0871C149.279 90.1427 149.203 90.1583 149.147 90.1227C148.964 90.0004 148.781 89.8736 148.537 89.8736C148.333 89.8736 148.171 89.9292 148.064 90.0159C147.963 90.0971 147.906 90.1989 147.906 90.3006C147.906 90.4024 147.952 90.4735 148.049 90.5497C148.161 90.6259 148.328 90.687 148.557 90.7226H148.568C148.806 90.7582 149 90.8294 149.172 90.9261C149.335 91.0329 149.452 91.2264 149.452 91.4343C149.452 91.6428 149.335 91.8107 149.167 91.9375C148.994 92.0648 148.791 92.136 148.547 92.136C148.146 92.131 147.83 91.9425 147.627 91.7801C147.576 91.734 147.571 91.6684 147.612 91.6172Z" fill="#263238"/>
<path d="M150.107 90.8959C150.107 90.2048 150.646 89.6455 151.317 89.6455C151.958 89.6455 152.466 90.1537 152.517 90.8048V90.8098V90.8248C152.517 90.8909 152.46 90.9365 152.395 90.9365H150.352C150.377 91.4803 150.804 91.8923 151.317 91.8923C151.647 91.8923 151.952 91.7194 152.12 91.4397C152.156 91.3786 152.232 91.3685 152.283 91.3991C152.339 91.4397 152.359 91.5109 152.323 91.572C152.11 91.9129 151.739 92.1364 151.317 92.1364C150.646 92.1364 150.107 91.577 150.107 90.8959ZM150.367 90.6975H152.252C152.171 90.2299 151.775 89.8896 151.317 89.8896C150.849 89.8896 150.458 90.2249 150.367 90.6975Z" fill="#263238"/>
<path d="M155.159 90.6629C155.159 90.2409 154.818 89.8956 154.391 89.8956C153.969 89.8956 153.629 90.2409 153.618 90.6629V92.0145V92.0351C153.613 92.0551 153.608 92.0757 153.593 92.0907C153.572 92.1213 153.537 92.1363 153.501 92.1363H153.471C153.435 92.1263 153.404 92.1007 153.389 92.0701C153.384 92.0651 153.384 92.0601 153.384 92.0545C153.384 92.0495 153.379 92.0445 153.379 92.0445V92.014V90.6623V90.6212V89.7727C153.379 89.7065 153.43 89.6504 153.502 89.6504C153.568 89.6504 153.618 89.7065 153.618 89.7727V90.0118C153.801 89.7927 154.081 89.651 154.391 89.651C154.95 89.651 155.403 90.1085 155.403 90.6623V92.014C155.403 92.0851 155.346 92.1363 155.281 92.1363C155.215 92.1363 155.159 92.0851 155.159 92.014V90.6629Z" fill="#263238"/>
<path d="M157.364 89.7668C157.364 89.8279 157.303 89.8891 157.242 89.8891H156.922V91.7033C156.922 91.8257 157.044 91.8863 157.104 91.8863C157.165 91.8863 157.232 91.9524 157.232 92.013C157.232 92.0742 157.166 92.1354 157.104 92.1354C156.856 92.1354 156.667 91.9524 156.667 91.7033V89.8891H156.358C156.235 89.8891 156.235 89.8279 156.235 89.7668C156.235 89.7056 156.235 89.645 156.358 89.645H156.667V88.7204C156.667 88.6592 156.729 88.5986 156.79 88.5986C156.856 88.5986 156.922 88.6598 156.922 88.7204V89.645H157.242C157.303 89.645 157.364 89.7062 157.364 89.7668Z" fill="#263238"/>
<path d="M160.922 89.7668C160.922 89.8279 160.861 89.8891 160.799 89.8891H160.479V91.7033C160.479 91.8257 160.6 91.8863 160.662 91.8863C160.723 91.8863 160.789 91.9524 160.789 92.013C160.789 92.0742 160.723 92.1354 160.662 92.1354C160.413 92.1354 160.224 91.9524 160.224 91.7033V89.8891H159.915C159.792 89.8891 159.792 89.8279 159.792 89.7668C159.792 89.7056 159.792 89.645 159.915 89.645H160.224V88.7204C160.224 88.6592 160.286 88.5986 160.347 88.5986C160.413 88.5986 160.479 88.6598 160.479 88.7204V89.645H160.799C160.861 89.645 160.922 89.7062 160.922 89.7668Z" fill="#263238"/>
<path d="M163.071 89.6455C163.726 89.6455 164.25 90.2149 164.25 90.891C164.25 91.567 163.727 92.1364 163.071 92.1364C162.42 92.1364 161.892 91.567 161.892 90.891C161.892 90.2149 162.42 89.6455 163.071 89.6455ZM163.071 91.8923C163.579 91.8923 164.006 91.4447 164.006 90.891C164.006 90.3372 163.58 89.8846 163.071 89.8846C162.563 89.8846 162.136 90.3372 162.136 90.891C162.136 91.4447 162.563 91.8923 163.071 91.8923Z" fill="#263238"/>
<path d="M166.501 89.7628C166.501 89.6967 166.557 89.6455 166.618 89.6455C166.689 89.6455 166.745 89.6967 166.745 89.7628V91.1145C166.745 91.5415 167.085 91.8817 167.507 91.8817C167.934 91.8817 168.275 91.5409 168.28 91.1145V89.7628C168.28 89.7423 168.285 89.7172 168.3 89.7017C168.3 89.6967 168.305 89.6911 168.305 89.6867C168.31 89.6867 168.31 89.6816 168.316 89.6816C168.326 89.6666 168.346 89.6561 168.361 89.6511H168.372C168.377 89.6511 168.382 89.6461 168.387 89.6461H168.402H168.418C168.438 89.6511 168.459 89.6611 168.479 89.6716C168.489 89.6816 168.504 89.6972 168.509 89.7122C168.52 89.7272 168.525 89.7478 168.525 89.7634V91.115V91.1606V91.9379C168.525 92.5884 167.996 93.1072 167.341 93.1072C167.158 93.1072 166.985 93.0616 166.827 92.9904C166.771 92.9548 166.746 92.8837 166.776 92.8281C166.807 92.7669 166.873 92.7519 166.934 92.7669C167.055 92.8281 167.198 92.8636 167.341 92.8636C167.859 92.8636 168.276 92.4522 168.281 91.9384V91.7755C168.092 91.989 167.819 92.1314 167.508 92.1314C166.954 92.1264 166.502 91.6738 166.502 91.115V89.7628H166.501Z" fill="#263238"/>
<path d="M170.607 89.6455C171.263 89.6455 171.787 90.2149 171.787 90.891C171.787 91.567 171.264 92.1364 170.607 92.1364C169.957 92.1364 169.428 91.567 169.428 90.891C169.428 90.2149 169.956 89.6455 170.607 89.6455ZM170.607 91.8923C171.116 91.8923 171.543 91.4447 171.543 90.891C171.543 90.3372 171.116 89.8846 170.607 89.8846C170.099 89.8846 169.672 90.3372 169.672 90.891C169.672 91.4447 170.099 91.8923 170.607 91.8923Z" fill="#263238"/>
<path d="M172.59 89.7624C172.59 89.6912 172.645 89.6406 172.712 89.6406C172.778 89.6406 172.833 89.6912 172.833 89.7624V91.1196C172.833 91.5466 173.174 91.8869 173.596 91.8924C174.023 91.8874 174.369 91.5466 174.369 91.1196V89.7624C174.369 89.6912 174.43 89.6406 174.491 89.6406C174.562 89.6406 174.618 89.6912 174.618 89.7624V91.1196C174.618 91.6784 174.166 92.1359 173.597 92.1359C173.038 92.1359 172.59 91.6784 172.59 91.1196V89.7624H172.59Z" fill="#263238"/>
<path d="M175.755 89.7727C175.755 89.7015 175.811 89.6504 175.883 89.6504C175.944 89.6504 175.999 89.7015 175.999 89.7727V90.3215C176.009 90.3009 176.019 90.2803 176.035 90.2603C176.223 89.9656 176.553 89.6504 177.031 89.6504C177.097 89.6504 177.153 89.7015 177.153 89.7727C177.153 89.8383 177.098 89.8945 177.031 89.8945C176.706 89.8945 176.482 90.0774 176.309 90.3009C176.142 90.5244 176.045 90.7785 176.009 90.8803C175.999 90.9008 175.999 90.9108 175.999 90.9208V92.0134C175.999 92.0846 175.944 92.1357 175.883 92.1357C175.812 92.1357 175.755 92.0846 175.755 92.0134V89.7727Z" fill="#263238"/>
<path d="M181.29 90.6629C181.29 90.2409 180.949 89.8956 180.523 89.8956C180.101 89.8956 179.76 90.2409 179.75 90.6629V92.0145V92.0351C179.745 92.0551 179.739 92.0757 179.725 92.0907C179.704 92.1213 179.669 92.1363 179.633 92.1363H179.602C179.567 92.1263 179.536 92.1007 179.521 92.0701C179.516 92.0651 179.516 92.0601 179.516 92.0545C179.516 92.0495 179.511 92.0445 179.511 92.0445V92.014V90.6623V90.6212V89.7727C179.511 89.7065 179.562 89.6504 179.634 89.6504C179.7 89.6504 179.75 89.7065 179.75 89.7727V90.0118C179.933 89.7927 180.213 89.651 180.523 89.651C181.082 89.651 181.535 90.1085 181.535 90.6623V92.014C181.535 92.0851 181.478 92.1363 181.412 92.1363C181.346 92.1363 181.29 92.0851 181.29 92.014V90.6629H181.29Z" fill="#263238"/>
<path d="M182.576 89.7624C182.576 89.6912 182.631 89.6406 182.698 89.6406C182.764 89.6406 182.819 89.6912 182.819 89.7624V91.1196C182.819 91.5466 183.16 91.8869 183.582 91.8924C184.009 91.8874 184.355 91.5466 184.355 91.1196V89.7624C184.355 89.6912 184.416 89.6406 184.477 89.6406C184.548 89.6406 184.604 89.6912 184.604 89.7624V91.1196C184.604 91.6784 184.151 92.1359 183.583 92.1359C183.024 92.1359 182.576 91.6784 182.576 91.1196V89.7624H182.576Z" fill="#263238"/>
<path d="M189.305 90.6629C189.294 90.2409 188.959 89.89 188.532 89.89C188.11 89.89 187.764 90.2409 187.764 90.6629V92.0201V92.0351C187.764 92.0401 187.759 92.0451 187.759 92.0451V92.0551C187.749 92.0857 187.724 92.1062 187.698 92.1213C187.678 92.1313 187.657 92.1363 187.637 92.1363H187.622H187.612C187.607 92.1363 187.601 92.1313 187.601 92.1313C187.59 92.1313 187.581 92.1213 187.57 92.1162C187.565 92.1162 187.56 92.1113 187.555 92.1062L187.54 92.0912C187.535 92.0862 187.535 92.0812 187.53 92.0812C187.53 92.0762 187.53 92.0762 187.525 92.0707C187.525 92.0707 187.525 92.0657 187.52 92.0607C187.52 92.0557 187.52 92.0506 187.515 92.0456V92.0306V92.0206V90.6634C187.515 90.2414 187.175 89.8906 186.748 89.8906C186.321 89.8906 185.98 90.2414 185.98 90.6634V92.0206C185.98 92.0612 185.96 92.0968 185.925 92.1168C185.92 92.1218 185.905 92.1318 185.894 92.1318C185.889 92.1368 185.883 92.1368 185.874 92.1368H185.858H185.843C185.797 92.1318 185.757 92.0912 185.742 92.0451V92.0195V90.6623V90.6212V89.7672C185.742 89.7015 185.797 89.6504 185.858 89.6504C185.93 89.6504 185.981 89.7015 185.981 89.7672V90.0062C186.164 89.7877 186.438 89.6504 186.748 89.6504C187.134 89.6504 187.465 89.8639 187.638 90.1791C187.816 89.8645 188.151 89.6504 188.532 89.6504C189.092 89.6504 189.543 90.1024 189.543 90.6618V92.019C189.543 92.0801 189.492 92.1357 189.422 92.1357C189.356 92.1357 189.305 92.0801 189.305 92.019L189.305 90.6629Z" fill="#263238"/>
<path d="M190.574 90.9467V90.8961V90.8449V88.6999C190.574 88.6343 190.63 88.5781 190.696 88.5781C190.767 88.5781 190.823 88.6337 190.823 88.6999V90.1333C191.041 89.8386 191.388 89.6451 191.779 89.6451C192.45 89.6451 192.983 90.2044 192.983 90.8955C192.983 91.5766 192.45 92.1354 191.779 92.1354C191.388 92.1354 191.041 91.9475 190.823 91.6528V92.0136C190.823 92.0798 190.767 92.136 190.696 92.136C190.63 92.136 190.574 92.0804 190.574 92.0136V90.9467ZM190.824 90.8961C190.824 91.4449 191.256 91.8874 191.779 91.8874C192.308 91.8874 192.735 91.4454 192.735 90.8961C192.735 90.3418 192.308 89.8947 191.779 89.8947C191.266 89.8947 190.844 90.3217 190.824 90.8555V90.8961Z" fill="#263238"/>
<path d="M193.75 90.8959C193.75 90.2048 194.289 89.6455 194.96 89.6455C195.6 89.6455 196.109 90.1537 196.16 90.8048V90.8098V90.8248C196.16 90.8909 196.103 90.9365 196.038 90.9365H193.995C194.02 91.4803 194.447 91.8923 194.96 91.8923C195.291 91.8923 195.596 91.7194 195.763 91.4397C195.799 91.3786 195.875 91.3685 195.926 91.3991C195.982 91.4397 196.002 91.5109 195.967 91.572C195.753 91.9129 195.382 92.1364 194.96 92.1364C194.289 92.1364 193.75 91.577 193.75 90.8959ZM194.01 90.6975H195.895C195.814 90.2299 195.418 89.8896 194.96 89.8896C194.493 89.8896 194.101 90.2249 194.01 90.6975Z" fill="#263238"/>
<path d="M196.917 89.7727C196.917 89.7015 196.972 89.6504 197.044 89.6504C197.105 89.6504 197.161 89.7015 197.161 89.7727V90.3215C197.171 90.3009 197.181 90.2803 197.196 90.2603C197.384 89.9656 197.714 89.6504 198.192 89.6504C198.258 89.6504 198.314 89.7015 198.314 89.7727C198.314 89.8383 198.258 89.8945 198.192 89.8945C197.867 89.8945 197.643 90.0774 197.47 90.3009C197.303 90.5244 197.206 90.7785 197.17 90.8803C197.16 90.9008 197.16 90.9108 197.16 90.9208V92.0134C197.16 92.0846 197.105 92.1357 197.043 92.1357C196.972 92.1357 196.916 92.0846 196.916 92.0134L196.917 89.7727Z" fill="#263238"/>
<path d="M114.079 78.6405C114.059 78.621 114.04 78.611 114.01 78.5915C114.01 78.5815 114 78.5815 114 78.5621C113.98 78.5426 113.961 78.5231 113.951 78.5031C113.951 78.5031 113.941 78.5031 113.941 78.4931C113.931 78.4731 113.911 78.4342 113.891 78.4147L111.487 72.6829C111.369 72.4183 111.497 72.0941 111.781 71.9863C112.046 71.8684 112.361 71.9963 112.478 72.2709L114.392 76.8151L116.306 72.2709C116.424 71.9963 116.748 71.8684 117.013 71.9863C117.287 72.0947 117.415 72.4183 117.307 72.6829L114.883 78.4147C114.873 78.4342 114.864 78.4737 114.844 78.4931C114.844 78.5031 114.844 78.5031 114.834 78.5031C114.824 78.5226 114.795 78.5421 114.785 78.5621C114.775 78.5821 114.775 78.5821 114.765 78.5915C114.746 78.611 114.726 78.621 114.706 78.6405C114.706 78.6405 114.706 78.6405 114.687 78.6505C114.667 78.6605 114.637 78.6899 114.609 78.7C114.599 78.7 114.599 78.7 114.589 78.71C114.56 78.71 114.54 78.72 114.511 78.7294C114.511 78.7294 114.501 78.7294 114.491 78.7294C114.452 78.7394 114.422 78.7394 114.393 78.7394C114.363 78.7394 114.324 78.7394 114.294 78.7294C114.294 78.7294 114.284 78.7294 114.275 78.7294C114.255 78.7194 114.216 78.71 114.197 78.71C114.197 78.7 114.187 78.7 114.187 78.7C114.187 78.7 114.187 78.7 114.177 78.7C114.157 78.6899 114.118 78.6605 114.088 78.641C114.088 78.641 114.089 78.6405 114.079 78.6405Z" fill="#263238"/>
<path d="M118.066 76.2857C118.076 74.9507 119.117 73.832 120.461 73.832C121.737 73.832 122.748 74.7839 122.826 76.1088C122.826 76.1189 122.826 76.1383 122.826 76.1578C122.826 76.1778 122.826 76.2267 122.816 76.2462C122.787 76.4814 122.581 76.6387 122.306 76.6387H119.185C119.235 76.8644 119.342 77.1197 119.519 77.2865C119.725 77.5222 120.117 77.6984 120.461 77.7279C120.814 77.7574 121.236 77.669 121.481 77.4827C121.688 77.267 122.09 77.2965 122.217 77.4533C122.345 77.5906 122.443 77.8853 122.217 78.091C121.737 78.5324 121.158 78.7387 120.461 78.7387C119.117 78.7293 118.076 77.6201 118.066 76.2857ZM119.136 75.8047H121.913C121.815 75.4122 121.315 74.8334 120.461 74.7644C119.627 74.8034 119.215 75.4022 119.136 75.8047Z" fill="#263238"/>
<path d="M127.206 74.352C127.206 74.6267 126.98 74.8724 126.686 74.8724C126.46 74.8724 126.264 74.9314 126.097 75.0592C125.91 75.1771 125.763 75.3439 125.645 75.5302C125.41 75.8443 125.292 76.2174 125.243 76.3547V78.2195C125.243 78.5042 124.997 78.74 124.703 78.74C124.418 78.74 124.183 78.5042 124.183 78.2195V74.3526C124.183 74.0679 124.418 73.8422 124.703 73.8422C124.997 73.8422 125.243 74.0679 125.243 74.3526V74.4215C125.302 74.3526 125.38 74.2742 125.449 74.2252C125.773 74.0095 126.195 73.8327 126.686 73.8422C126.98 73.8416 127.206 74.0673 127.206 74.352Z" fill="#263238"/>
<path d="M129.564 72.6053C129.564 72.9 129.338 73.1452 129.034 73.1452C128.739 73.1452 128.504 72.8994 128.504 72.6053V72.399C128.504 72.1049 128.74 71.8691 129.034 71.8691C129.338 71.8691 129.564 72.1049 129.564 72.399V72.6053ZM129.564 74.3817V78.2098C129.564 78.5044 129.338 78.7396 129.034 78.7396C128.739 78.7396 128.504 78.5039 128.504 78.2098V74.3817C128.504 74.0676 128.74 73.8418 129.034 73.8418C129.338 73.8418 129.564 74.0676 129.564 74.3817Z" fill="#263238"/>
<path d="M132.863 73.5079V73.6452H133.157C133.452 73.6452 133.697 73.881 133.697 74.1851C133.697 74.4792 133.452 74.725 133.157 74.725H132.863V78.1894C132.863 78.4841 132.627 78.7293 132.323 78.7293C132.019 78.7293 131.783 78.4841 131.783 78.1894V74.725H131.528C131.224 74.725 130.979 74.4792 130.979 74.1851C130.979 73.881 131.224 73.6452 131.528 73.6452H131.783V73.5079C131.783 73.1448 131.822 72.8307 131.969 72.546C132.107 72.2514 132.381 72.0256 132.676 71.9378C132.872 71.8788 133.059 71.8594 133.265 71.8594C133.559 71.8594 133.805 72.1051 133.805 72.3992C133.805 72.7034 133.559 72.9491 133.265 72.9491C133.137 72.9491 133.049 72.9591 133.01 72.9786C132.97 72.9886 132.96 72.9981 132.951 73.0081C132.941 73.0075 132.863 73.1448 132.863 73.5079Z" fill="#263238"/>
<path d="M135.877 72.6053C135.877 72.9 135.651 73.1452 135.347 73.1452C135.052 73.1452 134.817 72.8994 134.817 72.6053V72.399C134.817 72.1049 135.053 71.8691 135.347 71.8691C135.651 71.8691 135.877 72.1049 135.877 72.399V72.6053ZM135.877 74.3817V78.2098C135.877 78.5044 135.651 78.7396 135.347 78.7396C135.052 78.7396 134.817 78.5039 134.817 78.2098V74.3817C134.817 74.0676 135.053 73.8418 135.347 73.8418C135.651 73.8418 135.877 74.0676 135.877 74.3817Z" fill="#263238"/>
<path d="M137.223 76.2957C137.223 74.9312 138.361 73.842 139.716 73.832C140.304 73.832 140.854 74.0478 141.276 74.3719C141.502 74.5487 141.541 74.8823 141.384 75.098C141.188 75.3338 140.873 75.3733 140.648 75.1965C140.393 75.0102 140.079 74.8823 139.716 74.8823C138.921 74.8823 138.263 75.5395 138.263 76.2957C138.263 77.0513 138.921 77.699 139.716 77.699C140.069 77.699 140.394 77.5717 140.648 77.3849C140.864 77.2181 141.188 77.2575 141.384 77.4927C141.541 77.7085 141.502 78.0226 141.276 78.2189C140.854 78.523 140.304 78.7393 139.716 78.7393C138.361 78.7393 137.223 77.6395 137.223 76.2957Z" fill="#263238"/>
<path d="M147.324 76.2961V78.2198C147.324 78.5045 147.089 78.7403 146.804 78.7403C146.549 78.7403 146.353 78.5534 146.294 78.3183C145.921 78.5835 145.48 78.7403 144.989 78.7403C144.321 78.7403 143.742 78.465 143.32 78.0236C142.898 77.5721 142.653 76.9638 142.653 76.2966C142.653 75.6194 142.898 75.0106 143.32 74.5692C143.742 74.1177 144.321 73.833 144.989 73.833C145.479 73.833 145.921 73.9998 146.294 74.265C146.354 74.0198 146.549 73.833 146.804 73.833C147.089 73.833 147.324 74.0682 147.324 74.3629V76.2961ZM146.284 76.2961C146.284 75.8841 146.137 75.5305 145.901 75.2853C145.666 75.0201 145.332 74.8827 144.989 74.8827C144.635 74.8827 144.302 75.0201 144.076 75.2853C143.841 75.5305 143.703 75.8841 143.703 76.2961C143.703 76.6986 143.84 77.0517 144.076 77.3069C144.302 77.5526 144.636 77.69 144.989 77.69C145.332 77.69 145.666 77.5526 145.901 77.3069C146.137 77.0517 146.284 76.6981 146.284 76.2961Z" fill="#263238"/>
<path d="M151.458 74.3717C151.458 74.6664 151.203 74.9116 150.908 74.9116H150.663V77.6499C150.968 77.6499 151.203 77.8951 151.203 78.1992C151.203 78.5033 150.968 78.7391 150.663 78.7391C150.064 78.7391 149.574 78.2481 149.574 77.6499V74.9116H149.289C148.985 74.9116 148.75 74.6664 148.75 74.3717C148.75 74.0676 148.985 73.8318 149.289 73.8318H149.574V72.409C149.574 72.1049 149.819 71.8691 150.124 71.8691C150.428 71.8691 150.663 72.1049 150.663 72.409V73.8318H150.908C151.203 73.8324 151.458 74.0676 151.458 74.3717Z" fill="#263238"/>
<path d="M154.247 72.6053C154.247 72.9 154.022 73.1452 153.717 73.1452C153.423 73.1452 153.187 72.8994 153.187 72.6053V72.399C153.187 72.1049 153.423 71.8691 153.717 71.8691C154.022 71.8691 154.247 72.1049 154.247 72.399V72.6053ZM154.247 74.3817V78.2098C154.247 78.5044 154.022 78.7396 153.717 78.7396C153.423 78.7396 153.187 78.5039 153.187 78.2098V74.3817C153.187 74.0676 153.423 73.8418 153.717 73.8418C154.022 73.8418 154.247 74.0676 154.247 74.3817Z" fill="#263238"/>
<path d="M156.389 78.023C155.967 77.591 155.711 76.9828 155.711 76.2961C155.711 75.6283 155.967 75.0495 156.389 74.5786C156.83 74.1177 157.399 73.833 158.077 73.833C158.724 73.833 159.313 74.1177 159.715 74.5786C160.157 75.0501 160.402 75.6289 160.402 76.2961C160.402 76.9828 160.157 77.5916 159.715 78.023C159.313 78.4845 158.724 78.7692 158.077 78.7692C157.399 78.7692 156.83 78.4845 156.389 78.023ZM156.781 76.2961C156.781 76.7181 156.909 77.0617 157.134 77.3364C157.379 77.5715 157.704 77.6994 158.077 77.6994C158.42 77.6994 158.734 77.5721 158.98 77.3364C159.225 77.0611 159.363 76.7181 159.363 76.2961C159.363 75.8935 159.225 75.5399 158.98 75.2753C158.734 75.0595 158.42 74.9022 158.077 74.9022C157.704 74.9022 157.379 75.0595 157.134 75.2753C156.909 75.5399 156.781 75.8935 156.781 76.2961Z" fill="#263238"/>
<path d="M166.166 75.8737V78.2194C166.166 78.5041 165.941 78.7398 165.656 78.7398C165.381 78.7398 165.136 78.5041 165.136 78.2194V75.8737C165.136 75.3238 164.675 74.8823 164.115 74.8823C163.565 74.8823 163.133 75.3238 163.133 75.8737V78.2194C163.133 78.2489 163.133 78.2784 163.114 78.3178C163.065 78.553 162.849 78.7398 162.594 78.7398C162.299 78.7398 162.074 78.5041 162.074 78.2194V75.8737V74.3524C162.074 74.0678 162.299 73.832 162.594 73.832C162.8 73.832 162.987 73.9499 163.075 74.1362C163.37 73.9499 163.733 73.832 164.115 73.832C165.253 73.832 166.166 74.7644 166.166 75.8737Z" fill="#263238"/>
<path d="M266.452 42.9529C266.452 42.9529 262.8 72.1996 256.796 78.7804C249.588 86.6751 244.358 85.5208 241.448 89.5913C241.442 89.5913 241.442 89.5974 241.442 89.5974C238.532 85.5208 233.302 86.6812 226.088 78.7804C220.084 72.1996 216.438 42.9529 216.438 42.9529C232.258 35.2729 241.442 26.666 241.442 26.666C241.442 26.666 241.442 26.666 241.448 26.6721C241.73 26.9362 250.878 35.3958 266.452 42.9529Z" fill="#D4AAFF"/>
<path opacity="0.1" d="M241.448 26.6727V89.5919C241.442 89.5919 241.442 89.598 241.442 89.598C238.532 85.5214 233.302 86.6818 226.088 78.781C220.084 72.2002 216.438 42.9535 216.438 42.9535C232.258 35.2729 241.442 26.666 241.442 26.666C241.442 26.666 241.442 26.666 241.448 26.6727Z" fill="black"/>
<path d="M220.318 45.3097C220.318 45.3097 223.403 70.0156 228.474 75.5772C234.568 82.2559 238.989 81.2751 241.448 84.7151C243.907 81.2751 248.328 82.2565 254.422 75.5772C259.493 70.0156 262.572 45.3097 262.572 45.3097C249.209 38.8201 241.448 31.5498 241.448 31.5498C241.448 31.5498 233.681 38.8201 220.318 45.3097Z" fill="#D4AAFF"/>
<path opacity="0.2" d="M262.566 45.3104C262.566 45.3104 259.481 70.0135 254.408 75.5779C248.32 82.2516 243.903 81.277 241.441 84.7069V31.5566C241.679 31.7796 249.409 38.9209 262.566 45.3104Z" fill="white"/>
<path d="M241.445 67.9284C246.855 67.9284 251.241 63.5423 251.241 58.1317C251.241 52.7211 246.855 48.335 241.445 48.335C236.034 48.335 231.648 52.7211 231.648 58.1317C231.648 63.5423 236.034 67.9284 241.445 67.9284Z" fill="#455A64"/>
<path d="M240.328 64.4972L235.965 59.9597L237.584 58.4034L239.99 60.9049L245.174 52.9502L247.056 54.1767L240.328 64.4972Z" fill="white"/>
<path d="M262.565 85.2985L261.18 85.5543L260.87 87.0149L260.561 85.5543L259.175 85.2974L260.555 84.9605L260.87 83.5811L261.186 84.9605L262.565 85.2985Z" fill="#D4AAFF"/>
<path d="M221.527 74.1931L220.142 74.4488L219.832 75.9094L219.522 74.4488L218.137 74.192L219.516 73.855L219.832 72.4756L220.147 73.855L221.527 74.1931Z" fill="#D4AAFF"/>
<path d="M227.85 35.6925L226.465 35.9488L226.155 37.4094L225.846 35.9488L224.46 35.692L225.839 35.355L226.155 33.9756L226.471 35.355L227.85 35.6925Z" fill="#D4AAFF"/>
<path d="M260.086 78.7292L259.312 78.8726L259.139 79.6888L258.966 78.8726L258.192 78.7292L258.963 78.5407L259.139 77.7695L259.316 78.5407L260.086 78.7292Z" fill="#D4AAFF"/>
<path d="M265.441 62.4802L264.667 62.6236L264.494 63.4398L264.321 62.6236L263.546 62.4802L264.318 62.2917L264.494 61.5205L264.67 62.2917L265.441 62.4802Z" fill="#D4AAFF"/>
<path d="M258.868 33.9763L258.094 34.1197L257.921 34.9359L257.748 34.1197L256.974 33.9757L257.744 33.7872L257.921 33.0166L258.097 33.7872L258.868 33.9763Z" fill="#D4AAFF"/>
<path d="M239.09 93.1067L238.315 93.2496L238.142 94.0658L237.969 93.2496L237.195 93.1061L237.966 92.9177L238.142 92.1465L238.319 92.9177L239.09 93.1067Z" fill="#D4AAFF"/>
<path d="M217.222 76.0934L216.449 76.2369L216.275 77.0531L216.102 76.2369L215.328 76.0934L216.099 75.905L216.275 75.1338L216.452 75.905L217.222 76.0934Z" fill="#D4AAFF"/>
<path d="M218.427 53.4651L217.653 53.608L217.48 54.4242L217.307 53.608L216.533 53.4645L217.303 53.2761L217.48 52.5049L217.656 53.2761L218.427 53.4651Z" fill="#D4AAFF"/>
<path d="M250.909 82.3926C250.62 82.3926 250.62 82.8413 250.909 82.8413C251.198 82.8413 251.198 82.3926 250.909 82.3926Z" fill="#D4AAFF"/>
<path d="M215.216 41.707C214.927 41.707 214.927 42.1557 215.216 42.1557C215.505 42.1563 215.505 41.707 215.216 41.707Z" fill="#D4AAFF"/>
<path d="M257.921 83.6572C257.632 83.6572 257.632 84.1059 257.921 84.1059C258.21 84.1059 258.21 83.6572 257.921 83.6572Z" fill="#D4AAFF"/>
<path d="M235.184 48.5986C234.895 48.5986 234.895 49.0473 235.184 49.0473C235.472 49.0479 235.473 48.5986 235.184 48.5986Z" fill="#D4AAFF"/>
<path d="M214.405 57.6396C214.116 57.6396 214.116 58.0883 214.405 58.0883C214.694 58.0883 214.694 57.6396 214.405 57.6396Z" fill="#D4AAFF"/>
<path d="M209.17 55.1914C208.966 55.1914 208.966 55.5089 209.17 55.5089C209.374 55.5089 209.375 55.1914 209.17 55.1914Z" fill="#D4AAFF"/>
<path d="M252.003 31.0459C251.799 31.0459 251.799 31.3634 252.003 31.3634C252.207 31.3634 252.208 31.0459 252.003 31.0459Z" fill="#D4AAFF"/>
<path d="M229.839 85.4072C229.635 85.4072 229.635 85.7247 229.839 85.7247C230.043 85.7247 230.044 85.4072 229.839 85.4072Z" fill="#D4AAFF"/>
<path d="M224.876 82.4883C224.322 82.4883 224.321 83.349 224.876 83.349C225.429 83.349 225.431 82.4883 224.876 82.4883Z" fill="#D4AAFF"/>
<path d="M117.986 120.101V129.453H120.453V133.715L124.715 129.453H153.665V120.101H117.986Z" fill="white"/>
<path d="M117.986 120.101C118.009 123.254 118.103 126.371 118.103 129.453L117.986 129.336L120.453 129.33L120.576 129.329L120.577 129.453L120.589 133.716L120.358 133.62L124.608 129.346C124.657 129.294 124.65 129.301 124.716 129.301C131.928 129.281 146.455 129.258 153.666 129.253L153.465 129.453L153.492 120.101L153.665 120.274C144.771 120.258 126.879 120.165 117.986 120.101ZM117.986 120.101L135.78 119.989L153.665 119.927L153.837 119.927L153.838 120.101L153.865 129.453L153.866 129.654L153.664 129.653L139.19 129.637C139.267 129.584 124.29 129.692 124.822 129.56L120.548 133.81L120.316 134.041L120.317 133.714L120.329 129.452L120.452 129.576L117.986 129.569L117.869 129.568V129.452C117.87 126.301 117.964 123.183 117.986 120.101Z" fill="#263238"/>
<path d="M124.224 123.484V124.739H123.87V123.484C123.87 123.007 123.508 122.62 123.062 122.62C122.617 122.62 122.254 123.007 122.254 123.484V124.739H121.9V123.484C121.9 122.802 122.421 122.246 123.062 122.246C123.703 122.246 124.224 122.801 124.224 123.484Z" fill="#263238"/>
<path d="M121.9 123.811L122.254 123.825V124.739H121.9V123.811Z" fill="#263238"/>
<path d="M124.224 123.905V124.739H123.87V123.891L124.224 123.905Z" fill="#263238"/>
<path d="M124.678 124.274H121.446V126.957H124.678V124.274Z" fill="#263238"/>
<path d="M129.835 123.669C129.37 124.537 128.697 125.214 127.827 125.677C128.29 124.807 128.966 124.134 129.835 123.669Z" fill="#263238"/>
<path d="M127.827 123.669C128.696 124.134 129.372 124.807 129.835 125.677C128.965 125.214 128.292 124.537 127.827 123.669Z" fill="#263238"/>
<path d="M130.251 124.673C129.308 124.958 128.354 124.96 127.411 124.673C128.354 124.385 129.308 124.388 130.251 124.673Z" fill="#263238"/>
<path d="M128.83 123.253C129.116 124.196 129.118 125.149 128.83 126.092C128.543 125.149 128.545 124.195 128.83 123.253Z" fill="#263238"/>
<path d="M134.732 123.669C134.268 124.537 133.595 125.214 132.725 125.677C133.188 124.807 133.864 124.134 134.732 123.669Z" fill="#263238"/>
<path d="M132.725 123.669C133.593 124.134 134.269 124.807 134.732 125.677C133.863 125.214 133.19 124.537 132.725 123.669Z" fill="#263238"/>
<path d="M135.148 124.673C134.205 124.958 133.252 124.96 132.309 124.673C133.252 124.385 134.206 124.388 135.148 124.673Z" fill="#263238"/>
<path d="M133.728 123.253C134.014 124.196 134.016 125.149 133.728 126.092C133.441 125.149 133.443 124.195 133.728 123.253Z" fill="#263238"/>
<path d="M139.63 123.669C139.165 124.537 138.492 125.214 137.622 125.677C138.085 124.807 138.761 124.134 139.63 123.669Z" fill="#263238"/>
<path d="M137.622 123.669C138.491 124.134 139.167 124.807 139.63 125.677C138.76 125.214 138.087 124.537 137.622 123.669Z" fill="#263238"/>
<path d="M140.046 124.673C139.103 124.958 138.149 124.96 137.206 124.673C138.148 124.385 139.103 124.388 140.046 124.673Z" fill="#263238"/>
<path d="M138.626 123.253C138.912 124.196 138.914 125.149 138.626 126.092C138.338 125.149 138.341 124.195 138.626 123.253Z" fill="#263238"/>
<path d="M144.528 123.669C144.063 124.537 143.39 125.214 142.52 125.677C142.983 124.807 143.659 124.134 144.528 123.669Z" fill="#263238"/>
<path d="M142.52 123.669C143.388 124.134 144.065 124.807 144.528 125.677C143.658 125.214 142.985 124.537 142.52 123.669Z" fill="#263238"/>
<path d="M144.944 124.673C144.001 124.958 143.047 124.96 142.104 124.673C143.046 124.385 144.001 124.388 144.944 124.673Z" fill="#263238"/>
<path d="M143.523 123.253C143.809 124.196 143.811 125.149 143.523 126.092C143.236 125.149 143.238 124.195 143.523 123.253Z" fill="#263238"/>
<path d="M149.425 123.669C148.96 124.537 148.288 125.214 147.417 125.677C147.881 124.807 148.557 124.134 149.425 123.669Z" fill="#263238"/>
<path d="M147.417 123.669C148.286 124.134 148.962 124.807 149.425 125.677C148.556 125.214 147.882 124.537 147.417 123.669Z" fill="#263238"/>
<path d="M149.841 124.673C148.898 124.958 147.944 124.96 147.001 124.673C147.944 124.385 148.899 124.388 149.841 124.673Z" fill="#263238"/>
<path d="M148.422 123.253C148.707 124.196 148.709 125.149 148.422 126.092C148.133 125.149 148.136 124.195 148.422 123.253Z" fill="#263238"/>
<path d="M78.9011 233.055L46.7954 258.943H48.6046L85.6837 233.055H78.9011Z" fill="#C7C7C7"/>
<path d="M81.9176 233.055L66.0532 258.943H67.8619L87.3063 233.055H81.9176Z" fill="#C7C7C7"/>
<path d="M89.6953 233.055L105.56 258.943H103.751L84.3071 233.055H89.6953Z" fill="#C7C7C7"/>
<path d="M92.4668 233.055L124.572 258.943H122.763L85.6836 233.055H92.4668Z" fill="#C7C7C7"/>
<path d="M146.051 223.559V215.985L101.963 214.176L78.6746 152H25.3164L44.1954 223.559L89.3014 236.22H92.1276L146.051 223.559Z" fill="#455A64"/>
<path opacity="0.1" d="M25.3164 152H31.4213L51.0915 217.228L90.9967 228.533L146.051 215.985V223.559L92.1276 236.22H89.3014L44.1954 223.559L25.3164 152Z" fill="black"/>
<path d="M122.049 270.715C120.701 270.203 90.4384 245.407 89.8818 243.732C89.6672 243.098 93.0216 238.48 97.2327 233.015C98.1418 231.835 99.0881 230.621 100.056 229.395C106.33 221.423 113.173 213.111 113.173 213.111L133.466 229.639L119.79 245.468L116.791 248.945C116.791 248.945 124.132 263.621 124.545 265.523C124.951 267.42 123.395 271.228 122.049 270.715Z" fill="#DC9C93"/>
<path d="M122.048 270.715C120.701 270.202 90.4381 245.407 89.8816 243.732C89.6242 242.959 94.6282 236.302 100.056 229.395L119.789 245.467L116.79 248.945C116.79 248.945 124.131 263.62 124.544 265.523C124.951 267.42 123.395 271.227 122.048 270.715Z" fill="#EBEBEB"/>
<path d="M122.049 270.715C120.701 270.202 90.4384 245.407 89.8818 243.732C89.6672 243.098 93.0216 238.48 97.2327 233.015L116.791 248.944C116.791 248.944 124.131 263.62 124.545 265.522C124.951 267.42 123.395 271.227 122.049 270.715Z" fill="#D4AAFF"/>
<path d="M122.606 269.149C117.635 264.868 97.1816 248.07 91.943 244.216C91.9002 244.184 91.8774 244.212 91.9169 244.248C96.7513 248.598 117.341 265.229 122.539 269.232C122.648 269.317 122.711 269.239 122.606 269.149Z" fill="#263238"/>
<path d="M123.49 262.839C122.327 261.805 120.683 261.413 119.44 261.592C118.246 261.764 116.914 262.29 116.087 263.371C116.063 263.403 116.119 263.449 116.149 263.421C118.065 261.673 121.299 261.409 123.438 262.903C123.481 262.933 123.53 262.875 123.49 262.839Z" fill="#263238"/>
<path d="M118.345 251.061C116.337 249.369 113.396 248.157 110.774 248.784C110.672 248.809 110.708 248.953 110.794 248.971C113.405 249.529 115.727 250.253 118.175 251.34C118.348 251.416 118.489 251.182 118.345 251.061Z" fill="#263238"/>
<path d="M119.412 252.957C117.404 251.265 114.463 250.053 111.841 250.679C111.739 250.704 111.775 250.848 111.861 250.866C114.472 251.424 116.794 252.148 119.242 253.235C119.414 253.311 119.556 253.077 119.412 252.957Z" fill="#263238"/>
<path d="M120.479 254.852C118.471 253.16 115.53 251.948 112.908 252.575C112.806 252.599 112.842 252.743 112.928 252.762C115.538 253.319 117.861 254.044 120.308 255.131C120.481 255.207 120.622 254.973 120.479 254.852Z" fill="#263238"/>
<path d="M121.545 256.748C119.538 255.056 116.597 253.844 113.974 254.47C113.872 254.495 113.908 254.639 113.994 254.657C116.604 255.215 118.927 255.939 121.375 257.026C121.548 257.103 121.689 256.869 121.545 256.748Z" fill="#263238"/>
<path d="M97.1828 240.457C94.8993 238.597 92.0048 242.142 94.2922 244.006C96.5757 245.865 99.4702 242.32 97.1828 240.457Z" fill="white"/>
<path d="M124.978 247.441C124.649 245.747 122.672 245.519 121.313 245.885C119.112 246.477 116.761 247.908 115.214 249.565C115.176 249.606 115.194 249.65 115.23 249.675C115.154 249.857 115.226 250.12 115.461 250.139C117.725 250.323 120.124 250.801 122.378 250.285C123.694 249.983 125.29 249.044 124.978 247.441ZM118.951 249.716C117.835 249.652 116.729 249.534 115.611 249.512C116.802 248.798 117.957 248.035 119.22 247.441C119.822 247.158 120.447 246.878 121.083 246.679C122.074 246.369 125.458 246.306 123.85 248.68C122.964 249.989 120.282 249.792 118.951 249.716Z" fill="#263238"/>
<path d="M109.552 246.185C111.098 247.905 113.333 248.896 115.291 250.05C115.494 250.169 115.704 249.996 115.746 249.804C115.79 249.804 115.83 249.778 115.823 249.723C115.512 247.477 114.414 244.953 112.956 243.202C112.056 242.12 110.309 241.168 109.063 242.363C107.886 243.493 108.65 245.181 109.552 246.185ZM109.273 244.025C109.327 241.158 112.056 243.159 112.687 243.982C113.093 244.511 113.443 245.1 113.772 245.678C114.463 246.892 114.967 248.18 115.53 249.45C114.603 248.825 113.63 248.284 112.681 247.693C111.55 246.989 109.243 245.606 109.273 244.025Z" fill="#263238"/>
<path d="M154.542 198.588C153.008 209.217 126.399 239.628 123.324 243.116C122.871 243.63 122.624 243.91 122.624 243.91L101.126 226.969L101.38 226.65L120.794 201.861L63.7969 200.832L85.6438 184.267C85.6438 184.267 87.3874 185.301 91.0437 184.812C103.646 183.124 132.058 179.392 138.743 179.743C147.366 180.203 155.948 188.836 154.542 198.588Z" fill="#263238"/>
<path d="M127.771 192.643C127.02 193.385 126.417 194.316 125.768 195.145C125.082 196.023 124.385 196.892 123.7 197.77C123.693 197.779 123.687 197.787 123.68 197.796C123.803 197.538 123.923 197.278 124.05 197.022C124.487 196.146 124.839 195.239 125.352 194.402C125.384 194.351 125.306 194.302 125.274 194.353C124.746 195.183 124.136 195.972 123.682 196.847C123.469 197.26 123.266 197.676 123.077 198.101C122.974 198.333 122.868 198.565 122.774 198.802C122.732 198.91 122.678 199.025 122.646 199.141C122.338 199.549 122.035 199.959 121.74 200.375C121.085 201.299 120.505 202.278 119.843 203.195C119.807 203.244 119.885 203.291 119.921 203.244C120.591 202.383 121.341 201.581 122.022 200.727C122.714 199.856 123.372 198.961 124.022 198.059C124.656 197.179 125.278 196.29 125.911 195.409C126.548 194.522 127.303 193.649 127.824 192.687C127.842 192.653 127.8 192.614 127.771 192.643Z" fill="#37474F"/>
<path d="M125.592 238.918C124.367 237.85 123.055 236.867 121.767 235.876C120.473 234.882 119.175 233.894 117.871 232.913C115.262 230.951 112.664 228.972 110.028 227.046C108.58 225.988 107.122 224.944 105.619 223.965C105.552 223.922 105.481 224.029 105.541 224.079C108.02 226.2 110.654 228.127 113.26 230.085C115.872 232.046 118.49 234 121.131 235.921C122.576 236.973 124.015 238.059 125.522 239.02C125.582 239.059 125.645 238.964 125.592 238.918Z" fill="#37474F"/>
<path d="M79.3203 156.191C85.2328 167.45 92.249 179.398 98.8993 181.129C105.225 182.776 120.275 167.015 122.827 161.782C123.707 159.978 111.792 152.075 110.106 153.403C106.927 155.906 99.9685 163.838 98.9777 163.639C97.9463 163.428 89.5424 155.918 81.9258 149.597C77.3087 145.767 75.2248 148.391 79.3203 156.191Z" fill="#DC9C93"/>
<path d="M112.256 135.114L107.702 151.055C107.516 151.521 107.741 151.912 108.204 151.926L116.495 152.187C116.958 152.201 117.486 151.834 117.672 151.368L122.227 135.427C122.413 134.96 122.188 134.571 121.726 134.556L113.434 134.295C112.971 134.28 112.443 134.647 112.256 135.114Z" fill="#A6A6A6"/>
<path d="M113.241 135.136L108.688 151.077C108.501 151.543 108.726 151.934 109.189 151.949L117.481 152.209C117.944 152.224 118.471 151.857 118.658 151.391L123.212 135.45C123.399 134.983 123.174 134.593 122.71 134.579L114.419 134.318C113.956 134.303 113.428 134.669 113.241 135.136Z" fill="#DBDBDB"/>
<path d="M115.491 135.942C115.471 136.331 115.138 136.629 114.75 136.608C114.361 136.587 114.062 136.255 114.084 135.866C114.104 135.478 114.436 135.179 114.825 135.2C115.214 135.221 115.512 135.553 115.491 135.942Z" fill="#455A64"/>
<path d="M126.664 152.757C127.363 148.124 126.832 146.827 129.499 143.23C131.249 140.87 130.493 138.739 127.74 140.066C123.237 142.236 121.079 148.024 120.908 150.247L126.664 152.757Z" fill="#DC9C93"/>
<path d="M120.686 164.901C120.686 164.901 125.01 159.853 126.244 154.989C127.098 151.625 128.138 144.1 120.785 136.805C119.041 135.075 115.329 133.846 117.151 137.706C118.445 140.448 120.094 141.797 120.557 143.529C120.557 143.529 115.65 142.526 113.984 144.341C113.24 145.152 111.26 147.413 109.97 149.393C109.97 149.393 110.326 149.79 110.849 150.229C110.849 150.229 109.453 152.071 109.746 155.573L120.686 164.901Z" fill="#DC9C93"/>
<path d="M126.546 151.647C125.724 150.025 123.923 146.616 121.48 144.34C118.767 141.811 112.857 137.672 111.012 139.694C109.659 141.177 111.775 142.956 111.775 142.956C111.775 142.956 108.973 141.76 108.043 143.367C107.196 144.831 108.916 146.109 108.916 146.109C108.916 146.109 107.091 145.676 106.547 147.243C105.892 149.129 109.824 149.727 110.811 152.211C111.033 152.768 126.546 151.647 126.546 151.647Z" fill="#DC9C93"/>
<path d="M119.286 147.653C118.263 146.254 115.123 143.674 111.849 142.932C111.775 142.916 111.722 142.963 111.786 142.992C115.219 144.574 118.096 146.702 119.262 147.679C119.278 147.692 119.298 147.669 119.286 147.653Z" fill="#263238"/>
<path d="M116.655 150.317C115.648 149.201 112.292 146.686 108.948 146.048C108.874 146.034 108.824 146.085 108.89 146.112C112.543 147.617 115.409 149.439 116.632 150.344C116.649 150.357 116.668 150.332 116.655 150.317Z" fill="#263238"/>
<path d="M106.002 155.454L118.414 168.615C118.414 168.615 105.306 183.311 99.1514 181.774C92.9971 180.237 81.36 163.578 77.6292 153.002C75.0477 145.683 79.1204 146.858 83.3955 150.446C87.6706 154.034 98.8529 162.94 99.3416 162.807C99.8303 162.674 106.002 155.454 106.002 155.454Z" fill="#D4AAFF"/>
<path opacity="0.1" d="M101.798 181.638C100.83 181.9 99.933 181.971 99.1507 181.774C92.998 180.238 81.3598 163.579 77.6301 153.002C75.9293 148.178 77.1164 147.046 79.3526 147.866C86.058 157.815 94.9835 171.148 101.798 181.638Z" fill="black"/>
<path d="M114.387 170.804C112.589 168.989 105.504 161.294 104.086 159.527C103.988 159.405 104.041 159.313 104.16 159.427C109.678 164.736 112.784 168.86 114.456 170.73C114.498 170.777 114.432 170.849 114.387 170.804Z" fill="#263238"/>
<path d="M93.1228 191.821C93.1228 191.821 52.3741 199.273 52.1651 199.024C51.9777 198.806 56.6492 154.724 70.4803 147.275C72.6731 146.094 77.9657 145.398 80.2247 147.703C86.666 154.277 93.6571 191.223 93.1228 191.821Z" fill="#D4AAFF"/>
<path d="M92.6988 188.166L52.5684 195.051C52.7207 193.839 52.9214 192.392 53.1727 190.766L91.9587 184.111C92.2556 185.648 92.5031 187.02 92.6988 188.166Z" fill="#EBEBEB"/>
<path d="M91.5261 181.961L53.5312 188.48C53.6486 187.759 53.7759 187.015 53.9143 186.249L91.0902 179.871C91.2453 180.584 91.3887 181.286 91.5261 181.961Z" fill="#EBEBEB"/>
<path d="M78.4254 154.416C76.1513 154.405 73.2529 150.224 72.4384 147.207C72.3839 147 73.1289 145.143 73.9279 142.843C74.4072 141.445 74.9081 139.877 75.2617 138.414L83.9014 142.863C83.9014 142.863 82.2579 145.712 81.6563 148.267C81.6085 148.482 81.5818 148.685 81.574 148.883C81.5701 148.911 81.5701 148.947 81.5629 148.986C81.4745 150.171 80.6238 154.425 78.4254 154.416Z" fill="#DC9C93"/>
<path d="M83.9047 142.863C83.9047 142.863 82.2589 145.71 81.6573 148.271C81.6112 148.481 81.5789 148.686 81.5762 148.885C81.5745 148.913 81.5728 148.949 81.5639 148.983C81.267 148.961 80.9501 148.902 80.6076 148.806C75.2978 147.394 75.389 140.418 75.5146 138.543L83.9047 142.863Z" fill="#263238"/>
<path d="M74.8905 128.341C73.5078 131.557 74.205 141.364 76.3356 143.769C79.4242 147.255 85.0097 148.172 88.105 144.338C91.1057 140.622 89.9709 127.856 87.5418 125.617C83.9639 122.318 76.9333 123.59 74.8905 128.341Z" fill="#DC9C93"/>
<path d="M83.8414 135.396C83.8342 135.372 83.793 135.432 83.7963 135.459C83.8775 136.111 83.8603 136.873 83.2882 137.145C83.2704 137.153 83.2754 137.186 83.2971 137.181C84.0104 137.013 84.0226 136.002 83.8414 135.396Z" fill="#263238"/>
<path d="M83.1936 134.767C82.1328 134.783 82.2451 136.904 83.2275 136.888C84.1944 136.872 84.0827 134.752 83.1936 134.767Z" fill="#263238"/>
<path d="M87.6991 135.185C87.703 135.16 87.7519 135.214 87.7525 135.241C87.7664 135.899 87.8931 136.65 88.4986 136.837C88.5175 136.843 88.5175 136.876 88.4953 136.873C87.7647 136.81 87.6068 135.811 87.6991 135.185Z" fill="#263238"/>
<path d="M88.2497 134.469C89.3016 134.333 89.4962 136.447 88.5216 136.573C87.5619 136.698 87.3679 134.583 88.2497 134.469Z" fill="#263238"/>
<path d="M82.3058 133.842C82.591 133.754 82.839 133.625 83.112 133.509C83.42 133.378 83.678 133.306 83.8693 133.013C83.9716 132.856 83.9115 132.588 83.7686 132.474C83.4356 132.21 83.0186 132.276 82.6416 132.419C82.2324 132.574 81.9572 132.798 81.7381 133.175C81.5252 133.541 81.9299 133.958 82.3058 133.842Z" fill="#263238"/>
<path d="M89.0127 133.358C88.7164 133.326 88.4484 133.246 88.1587 133.184C87.8312 133.114 87.5638 133.091 87.3214 132.841C87.1913 132.706 87.1996 132.431 87.3186 132.292C87.5949 131.969 88.0169 131.956 88.4145 132.025C88.8454 132.099 89.1584 132.267 89.4453 132.596C89.7222 132.916 89.4036 133.401 89.0127 133.358Z" fill="#263238"/>
<path d="M83.4533 141.236C83.5873 141.411 83.7129 141.643 83.9465 141.697C84.1705 141.749 84.4508 141.684 84.6698 141.633C84.6915 141.628 84.7093 141.653 84.6932 141.671C84.4886 141.896 84.1105 142.002 83.8164 141.906C83.5289 141.812 83.4194 141.537 83.3866 141.257C83.3816 141.218 83.4333 141.211 83.4533 141.236Z" fill="#263238"/>
<path d="M84.1805 139.304C84.578 139.854 85.1352 140.137 85.7256 140.22C85.9892 140.259 86.2644 140.253 86.5318 140.214C86.5846 140.211 86.7748 140.173 86.8271 140.159C86.9032 140.144 86.9416 140.078 86.951 140.005L86.9505 140C86.9488 139.976 86.8337 138.598 86.8337 138.598C87.0233 138.681 87.988 139.055 87.9591 138.792C87.7128 136.612 87.4392 134.187 86.7342 132.07C86.7147 131.998 86.6052 132.021 86.6152 132.093C86.7687 134.197 87.2913 136.261 87.4793 138.372C87.1729 138.274 86.6714 138.088 86.4067 138.108C86.3689 138.119 86.5947 139.824 86.5908 139.838C85.7468 139.992 85.0929 139.769 84.2383 139.242C84.1877 139.206 84.1382 139.254 84.1805 139.304Z" fill="#263238"/>
<path d="M86.3193 140.116C86.3193 140.116 85.85 140.755 85.205 140.987C84.9676 141.073 84.7113 141.107 84.4422 141.037C83.8901 140.894 83.8745 140.387 83.9741 139.953C84.0547 139.597 84.2193 139.289 84.2193 139.289C84.2193 139.289 85.0271 140.041 86.3193 140.116Z" fill="#263238"/>
<path d="M85.205 140.986C84.9676 141.072 84.7113 141.107 84.4422 141.036C83.8901 140.893 83.8745 140.387 83.9741 139.953C84.5656 140.012 85.1528 140.411 85.205 140.986Z" fill="#FF9CBD"/>
<path d="M73.987 137.198C76.5435 137.397 77.9007 134.357 77.3202 131.899C77.3202 131.899 84.1134 132.852 84.4798 127.394C84.4798 127.394 86.0956 129.875 89.1791 129.978L89.6278 131.896C90.3267 131.7 91.084 129.722 89.3888 128.155C89.3888 128.155 89.2909 125.432 87.2971 123.784C85.3033 122.136 83.3017 123.196 83.3017 123.196C83.3017 123.196 81.7165 121.852 79.209 122.155C76.7014 122.457 75.6533 124.734 75.6533 124.734C75.6533 124.734 72.2795 125.353 71.6885 127.741C71.0975 130.13 72.3223 131.743 72.3223 131.743C72.3223 131.743 71.47 132.677 71.8842 134.723C72.1505 136.037 73.2197 137.139 73.987 137.198Z" fill="#263238"/>
<path d="M84.3331 126.908C84.3748 127.354 84.3892 127.801 84.3386 128.241C84.3103 128.683 84.2147 129.115 84.0823 129.529C83.8021 130.353 83.2522 131.07 82.4933 131.477C81.7555 131.942 80.8486 132.009 79.9818 132.088C79.5415 132.071 79.0961 132.086 78.6535 132.045C78.2115 131.997 77.7695 131.938 77.3208 131.899C77.7545 132.008 78.1948 132.097 78.6352 132.198C79.0789 132.271 79.5326 132.285 79.984 132.33C80.882 132.3 81.8305 132.231 82.649 131.751C83.4618 131.289 84.0695 130.489 84.3131 129.601C84.5533 128.714 84.5444 127.779 84.3331 126.908Z" fill="#263238"/>
<path d="M87.8155 130.089C87.0605 129.808 86.3566 129.455 85.7611 128.964C85.4564 128.727 85.2017 128.436 84.971 128.127C84.7303 127.82 84.5796 127.458 84.4072 127.09C84.4523 127.489 84.5529 127.899 84.7658 128.256C84.9632 128.621 85.2379 128.946 85.5609 129.207C85.8845 129.466 86.2431 129.68 86.6273 129.825C87.0093 129.972 87.4085 130.077 87.8155 130.089Z" fill="#263238"/>
<path d="M82.55 138.71C81.2756 138.648 80.1525 137.73 79.8868 136.424C79.5726 134.879 80.574 133.366 82.1185 133.052C83.6637 132.737 85.176 133.739 85.4907 135.284C85.8048 136.828 84.8035 138.341 83.2589 138.656C83.0198 138.704 82.7824 138.722 82.55 138.71ZM82.8085 133.379C82.6073 133.369 82.401 133.384 82.1947 133.427C80.8564 133.699 79.9891 135.01 80.2609 136.348C80.5339 137.686 81.845 138.555 83.1822 138.281C84.521 138.009 85.3878 136.698 85.1159 135.359C84.8852 134.228 83.9128 133.433 82.8085 133.379Z" fill="#D4AAFF"/>
<path d="M89.0937 138.227C88.0011 138.175 87.0637 137.007 86.9614 135.519C86.9097 134.768 87.0754 134.044 87.4279 133.483C87.7915 132.902 88.3108 132.56 88.8902 132.521C89.4712 132.48 90.0305 132.749 90.4703 133.275C90.8957 133.783 91.1581 134.477 91.2093 135.227C91.3166 136.8 90.452 138.145 89.2811 138.226C89.2182 138.23 89.156 138.23 89.0937 138.227ZM89.0614 132.9C89.0131 132.898 88.9647 132.899 88.9163 132.902C88.4626 132.933 88.049 133.212 87.7515 133.686C87.4424 134.18 87.2972 134.821 87.3428 135.493C87.4368 136.855 88.2908 137.911 89.2549 137.844C90.2157 137.779 90.9207 136.616 90.8278 135.254C90.7817 134.583 90.5504 133.967 90.1768 133.52C89.856 133.136 89.4645 132.92 89.0614 132.9Z" fill="#D4AAFF"/>
<path d="M85.4171 135.621L85.1519 135.346C85.5594 134.952 86.5268 134.395 87.2741 135.093L87.0133 135.372C86.3445 134.746 85.4549 135.585 85.4171 135.621Z" fill="#D4AAFF"/>
<path d="M73.3274 137.291L72.9766 137.139C73.0477 136.976 73.6932 135.536 74.5356 135.339C75.3229 135.157 79.8976 135.221 80.1162 135.226L80.1061 135.608C78.6311 135.57 75.2306 135.569 74.6229 135.711C74.0663 135.841 73.4992 136.896 73.3274 137.291Z" fill="#D4AAFF"/>
<path d="M76.4 137.026C76.4 137.026 74.5018 133.714 73.0184 134.364C71.535 135.013 72.7666 139.676 74.3706 140.444C75.9741 141.211 76.7136 139.74 76.7136 139.74L76.4 137.026Z" fill="#DC9C93"/>
<path d="M73.4048 135.692C73.3787 135.687 73.3698 135.724 73.392 135.735C74.5135 136.311 75.0289 137.445 75.3569 138.603C75.0495 138.141 74.5997 137.863 73.9858 138.223C73.9536 138.242 73.9781 138.292 74.0114 138.288C74.4974 138.229 74.8337 138.342 75.1212 138.753C75.3252 139.044 75.4498 139.4 75.5855 139.727C75.6305 139.836 75.8234 139.797 75.7945 139.673C75.7923 139.664 75.7895 139.655 75.7878 139.646C75.9507 138.164 74.9844 135.984 73.4048 135.692Z" fill="#263238"/>
<path d="M81.6997 150.028C81.6986 150.008 81.6691 150.007 81.668 150.027C81.5763 151.881 81.2377 156.165 78.2525 155.577C77.0499 155.341 76.0257 154.494 75.1828 153.682C74.3171 152.849 72.4362 150.517 71.1947 147.959C71.1702 147.909 71.099 147.946 71.1151 148.001C71.3181 148.699 71.8607 149.95 72.5674 151.099C73.2474 152.206 74.0464 153.254 75.0133 154.15C75.919 154.988 77.0154 155.841 78.2953 156.033C79.513 156.215 80.4865 155.589 80.9691 154.547C81.603 153.177 81.7692 151.511 81.6997 150.028Z" fill="#263238"/>
<path d="M65.9098 150.796C59.5469 156.373 43.2405 178.318 47.2443 183.02C51.277 187.756 76.4148 184.459 83.6523 181.861C85.8051 181.088 79.2821 167.494 76.8975 166.953C74.912 166.502 64.1606 170.172 63.9226 169.551C63.6535 168.85 65.7813 164.08 69.1507 155.397C73.0349 145.386 68.7204 148.332 65.9098 150.796Z" fill="#DC9C93"/>
<path d="M87.521 163.842C92.585 163.647 93.915 164.375 98.1011 161.941C100.848 160.344 103.047 161.413 101.29 164.212C98.4169 168.791 91.9362 170.414 89.5276 170.329L87.521 163.842Z" fill="#DC9C93"/>
<path d="M73.7734 167.319C73.7734 167.319 79.6971 164.766 85.073 164.025C88.7904 163.513 97.0026 163.299 103.959 172.079C105.608 174.161 106.483 178.298 102.553 175.876C99.7609 174.155 98.5104 172.221 96.7045 171.515C96.7045 171.515 97.1916 176.91 95.041 178.481C94.0802 179.184 91.412 181.039 89.1285 182.187C89.1285 182.187 88.7449 181.757 88.3362 181.143C88.3362 181.143 86.1884 182.421 82.4609 181.685L73.7734 167.319Z" fill="#DC9C93"/>
<path d="M88.6995 164.102C90.3441 165.181 93.7913 167.526 95.9436 170.425C98.3344 173.645 102.072 180.493 99.6772 182.234C97.9207 183.51 96.2639 181.021 96.2639 181.021C96.2639 181.021 97.2124 184.177 95.3732 184.983C93.6974 185.718 92.5309 183.715 92.5309 183.715C92.5309 183.715 92.7772 185.728 91.0269 186.125C88.9219 186.602 88.7512 182.304 86.2019 180.944C85.6298 180.639 88.6995 164.102 88.6995 164.102Z" fill="#DC9C93"/>
<path d="M92.1201 172.384C93.5001 173.652 95.8959 177.337 96.299 180.945C96.3079 181.027 96.2512 181.077 96.2267 181.005C94.9395 177.126 92.9986 173.778 92.0895 172.406C92.0773 172.388 92.1045 172.37 92.1201 172.384Z" fill="#263238"/>
<path d="M88.939 174.892C90.0171 176.108 92.3167 180.016 92.5997 183.687C92.6058 183.769 92.5452 183.816 92.5246 183.742C91.3464 179.634 89.7329 176.336 88.9073 174.912C88.8962 174.893 88.9251 174.876 88.939 174.892Z" fill="#263238"/>
<path d="M96.7096 171.482C98.2886 172.124 99.2672 173.029 100.545 174.121C101.177 174.66 101.819 175.192 102.508 175.659C103.135 176.084 104.058 176.724 104.821 176.233C105.245 175.96 105.296 175.391 105.254 174.934C105.206 174.42 104.802 173.441 104.545 172.992C104.532 172.97 104.571 172.946 104.585 172.969C104.823 173.369 105.281 174.265 105.398 174.716C105.503 175.125 105.571 175.594 105.417 176.001C105.088 176.874 104.018 176.886 103.293 176.564C102.859 176.372 102.459 176.09 102.074 175.816C101.702 175.55 101.344 175.266 100.992 174.974C100.271 174.374 99.5846 173.732 98.8707 173.124C98.0862 172.455 97.5324 172.111 96.6784 171.534C96.6506 171.514 96.6784 171.469 96.7096 171.482Z" fill="#263238"/>
<path d="M99.5429 177.55C99.2149 176.58 97.3223 172.486 96.6723 171.518C96.6556 171.493 96.6895 171.466 96.709 171.489C97.8571 172.819 99.5752 176.217 99.9477 177.288C100.316 178.347 100.727 179.694 100.614 180.821C100.444 182.521 99.2833 182.73 98.8579 182.772C98.3503 182.821 97.8583 182.666 97.4346 182.39C96.9631 182.082 96.5355 181.499 96.2464 181.025C96.2314 181 96.2653 180.972 96.2831 180.997C96.8052 181.726 97.7176 182.485 98.6539 182.456C99.0603 182.444 99.4846 182.302 99.7626 181.994C100.089 181.633 100.164 181.121 100.172 180.652C100.189 179.589 99.8799 178.547 99.5429 177.55Z" fill="#263238"/>
<path d="M73.7733 167.319L79.9827 184.668C79.9827 184.668 48.5009 188.494 46.382 182.868C44.2631 177.242 58.3249 157.466 64.3258 151.898C71.2802 145.446 71.8362 147.933 69.8307 154.07C67.7313 160.494 63.9972 169.716 63.9972 169.716L73.7733 167.319Z" fill="#D4AAFF"/>
<path d="M54.1963 173.185C55.7176 172.331 57.3227 171.623 58.9507 170.998C60.5631 170.38 62.2344 169.937 63.9186 169.562C64.8804 169.348 65.8496 169.18 66.8192 169.006C66.8487 169.001 66.8559 169.046 66.8264 169.052C65.1306 169.403 63.4576 169.903 61.8147 170.446C60.1778 170.987 58.5537 171.556 56.9385 172.157C56.0245 172.496 55.1271 172.879 54.2253 173.249C54.1824 173.266 54.158 173.207 54.1963 173.185Z" fill="#263238"/>
<path d="M73.6952 167.262C73.5362 167.287 64.8376 169.222 64.5484 169.323C64.5963 169.2 66.5562 164.874 66.8481 164.241C66.877 164.179 66.9031 164.114 66.9315 164.051C67.1144 163.774 67.299 163.499 67.4708 163.215C67.691 162.85 67.9084 162.484 68.1269 162.119C68.1335 162.108 68.1174 162.096 68.1102 162.107C67.8761 162.462 67.6415 162.816 67.4091 163.172C67.3018 163.336 67.1995 163.504 67.0988 163.673C67.2934 163.225 67.4825 162.775 67.6715 162.322C67.9728 161.602 68.2503 160.873 68.5261 160.142C68.535 160.119 68.4999 160.107 68.4894 160.129C67.9117 161.39 67.2945 162.632 66.713 163.891C66.1325 165.148 63.9168 169.782 63.9307 169.779C63.9446 169.793 73.5328 167.437 73.7186 167.381C73.7914 167.358 73.7736 167.25 73.6952 167.262Z" fill="#263238"/>
<path d="M73.1802 178.121C72.4991 176.186 71.833 174.245 71.0802 172.334C70.6526 171.249 70.2306 170.161 69.7925 169.08C69.7758 169.039 69.7041 169.062 69.7169 169.104C70.3234 171.074 70.9367 173.047 71.6334 174.989C72.3262 176.92 73.0034 178.857 73.7217 180.78C74.1304 181.873 74.5702 182.95 75.0444 184.017C75.0539 184.039 75.0906 184.027 75.0839 184.005C74.5429 182.014 73.8657 180.069 73.1802 178.121Z" fill="#263238"/>
<path d="M80.3541 184.965C80.0967 184.425 79.7814 183.651 79.5017 183.122C79.4278 182.982 79.3238 182.999 79.38 183.144C79.5679 183.63 79.7102 184.17 79.8948 184.669C79.4539 184.711 79.0125 184.744 78.5716 184.791C78.0617 184.846 77.5524 184.903 77.0431 184.956C76.0451 185.059 75.0454 185.153 74.0452 185.236C72.0197 185.404 69.9908 185.529 67.9597 185.61C63.8893 185.774 59.8016 185.791 55.735 185.532C54.5974 185.46 53.4604 185.365 52.3278 185.236C51.1774 185.104 49.9353 184.955 48.9951 184.739C48.9651 184.732 48.954 184.783 48.984 184.793C49.9515 185.094 50.8583 185.312 51.8591 185.462C52.8805 185.616 53.9068 185.741 54.9354 185.833C56.9843 186.015 59.0426 186.087 61.0987 186.105C65.1764 186.139 69.2575 185.996 73.324 185.692C74.4633 185.607 75.602 185.508 76.739 185.395C77.3128 185.339 77.8866 185.282 78.4592 185.215C79.0319 185.147 80.3975 185.058 80.3541 184.965Z" fill="#263238"/>
<path d="M120.912 184.581H81.2769V186.356H120.912V184.581Z" fill="#C7C7C7"/>
<path d="M120.912 184.581V186.356H93.9697L95.328 184.581H120.912Z" fill="#A6A6A6"/>
<path d="M99.4199 186.357H134.109L139.129 161.883H104.439L99.4199 186.357Z" fill="#A6A6A6"/>
<path d="M101.041 186.357H135.73L140.75 161.883H106.06L101.041 186.357Z" fill="#C7C7C7"/>
<path d="M124.023 173.209C124.059 174.365 123.285 175.47 122.294 175.677C121.303 175.884 120.471 175.114 120.435 173.958C120.399 172.801 121.173 171.696 122.163 171.49C123.154 171.283 123.987 172.052 124.023 173.209Z" fill="white"/>
<path d="M201.693 237.161C201.176 238.506 176.283 268.69 174.607 269.241C173.972 269.453 169.365 266.085 163.913 261.856C162.735 260.943 161.526 259.993 160.302 259.021C152.35 252.721 144.061 245.851 144.061 245.851L160.654 225.612L176.439 239.339L179.906 242.349C179.906 242.349 194.605 235.055 196.509 234.648C198.407 234.248 202.209 235.816 201.693 237.161Z" fill="#DC9C93"/>
<path d="M201.693 237.161C201.176 238.507 176.283 268.69 174.607 269.241C173.833 269.496 167.192 264.47 160.302 259.021L176.438 239.339L179.905 242.349C179.905 242.349 194.605 235.056 196.508 234.649C198.407 234.248 202.209 235.816 201.693 237.161Z" fill="#EBEBEB"/>
<path d="M201.693 237.161C201.176 238.506 176.283 268.689 174.607 269.241C173.972 269.453 169.365 266.084 163.913 261.855L179.906 242.349C179.906 242.349 194.605 235.056 196.509 234.649C198.407 234.248 202.209 235.816 201.693 237.161Z" fill="#D4AAFF"/>
<path d="M200.128 236.598C195.831 241.556 178.968 261.955 175.097 267.182C175.065 267.224 175.093 267.247 175.129 267.208C179.495 262.388 196.193 241.852 200.211 236.667C200.296 236.557 200.219 236.494 200.128 236.598Z" fill="#263238"/>
<path d="M193.822 235.695C192.783 236.854 192.386 238.497 192.561 239.741C192.729 240.935 193.251 242.269 194.33 243.099C194.361 243.123 194.408 243.068 194.381 243.038C192.639 241.117 192.385 237.881 193.886 235.747C193.915 235.703 193.857 235.654 193.822 235.695Z" fill="#263238"/>
<path d="M182.027 240.801C180.329 242.803 179.108 245.741 179.726 248.365C179.75 248.467 179.894 248.431 179.913 248.346C180.479 245.736 181.211 243.416 182.305 240.972C182.383 240.8 182.149 240.658 182.027 240.801Z" fill="#263238"/>
<path d="M183.926 239.741C182.228 241.743 181.006 244.68 181.625 247.305C181.649 247.406 181.793 247.371 181.812 247.285C182.378 244.676 183.11 242.356 184.204 239.911C184.281 239.739 184.048 239.597 183.926 239.741Z" fill="#263238"/>
<path d="M185.825 238.68C184.127 240.682 182.905 243.62 183.524 246.244C183.548 246.346 183.692 246.31 183.711 246.224C184.277 243.616 185.009 241.295 186.104 238.851C186.18 238.679 185.947 238.537 185.825 238.68Z" fill="#263238"/>
<path d="M187.724 237.62C186.026 239.622 184.805 242.559 185.423 245.183C185.447 245.285 185.591 245.25 185.61 245.164C186.176 242.555 186.908 240.235 188.003 237.79C188.079 237.618 187.845 237.476 187.724 237.62Z" fill="#263238"/>
<path d="M171.354 261.93C169.487 264.207 173.023 267.113 174.894 264.831C176.761 262.554 173.224 259.648 171.354 261.93Z" fill="white"/>
<path d="M178.428 234.156C176.733 234.48 176.498 236.457 176.86 237.816C177.445 240.019 178.869 242.375 180.52 243.927C180.562 243.966 180.606 243.947 180.631 243.912C180.811 243.988 181.074 243.917 181.094 243.682C181.286 241.418 181.772 239.021 181.263 236.765C180.966 235.449 180.032 233.85 178.428 234.156ZM180.683 240.191C180.616 241.306 180.494 242.412 180.468 243.53C179.757 242.337 178.999 241.18 178.409 239.915C178.127 239.311 177.849 238.686 177.653 238.048C177.346 237.057 177.293 233.673 179.663 235.289C180.97 236.18 180.763 238.861 180.683 240.191Z" fill="#263238"/>
<path d="M177.122 249.579C178.847 248.039 179.845 245.806 181.005 243.852C181.125 243.649 180.953 243.439 180.761 243.396C180.761 243.353 180.736 243.312 180.68 243.319C178.433 243.622 175.905 244.712 174.149 246.164C173.065 247.061 172.107 248.805 173.298 250.055C174.425 251.236 176.115 250.478 177.122 249.579ZM174.961 249.851C172.093 249.788 174.103 247.066 174.929 246.437C175.459 246.032 176.049 245.685 176.629 245.358C177.844 244.671 179.134 244.17 180.407 243.612C179.778 244.537 179.234 245.508 178.64 246.455C177.932 247.583 176.541 249.885 174.961 249.851Z" fill="#263238"/>
<path d="M175.622 236.244L157.148 258.142L101.422 218.461L95.9347 214.552C95.9347 214.552 94.3551 215.587 91.9799 216.863C88.6811 218.634 83.8511 220.869 79.5961 221.443C72.4576 222.411 61.714 222.167 55.8065 214.063C50.8309 207.24 52.5328 198.437 52.5328 198.437L60.3968 195.173C60.3968 195.173 79.099 179.972 91.0975 179.653C96.1938 179.512 103.564 183.463 110.384 187.58C117.198 191.691 175.622 236.244 175.622 236.244Z" fill="#263238"/>
<path d="M95.9347 214.551C95.9347 214.551 94.3551 215.587 91.9799 216.863C87.8705 211.82 79.1513 202.645 78.8872 202.319L95.9347 214.551Z" fill="#37474F"/>
<path d="M67.2441 190.092C66.1282 190.847 65.0473 191.65 63.9459 192.426C62.8628 193.189 61.7447 193.904 60.7139 194.739C59.6652 195.588 58.67 196.496 57.6803 197.413C57.2027 197.855 56.729 198.301 56.2675 198.759C55.8099 199.213 55.2984 199.668 54.917 200.189C54.8814 200.238 54.9509 200.297 54.9976 200.268C55.5303 199.935 56.0107 199.476 56.4955 199.078C57.0192 198.649 57.5363 198.213 58.0578 197.781C59.0631 196.947 60.0878 196.137 61.0908 195.3C62.0872 194.47 63.0124 193.558 63.9993 192.717C65.0562 191.816 66.1688 190.979 67.2652 190.127C67.2863 190.111 67.2669 190.076 67.2441 190.092Z" fill="#37474F"/>
<path d="M169.917 234.136C168.797 235.315 167.761 236.584 166.716 237.829C165.667 239.079 164.625 240.335 163.59 241.596C161.519 244.119 159.431 246.631 157.395 249.182C156.276 250.584 155.172 251.997 154.13 253.457C154.084 253.522 154.187 253.597 154.241 253.54C156.465 251.154 158.502 248.604 160.569 246.083C162.639 243.557 164.703 241.024 166.735 238.467C167.847 237.068 168.992 235.676 170.017 234.212C170.057 234.152 169.965 234.085 169.917 234.136Z" fill="#37474F"/>
<path d="M128.036 237.347C125.207 235.062 118.768 230.589 115.833 228.441C112.913 226.305 109.995 224.163 107.029 222.09C106.178 221.495 105.319 220.911 104.461 220.326C103.605 219.742 102.713 219.201 101.874 218.595C101.825 218.559 101.78 218.641 101.828 218.676C102.598 219.242 103.324 219.876 104.08 220.463C104.803 221.023 105.519 221.591 106.247 222.143C107.668 223.223 109.104 224.282 110.537 225.345C113.444 227.501 116.372 229.63 119.332 231.713C121.012 232.895 126.188 236.395 127.907 237.521C128.008 237.587 128.133 237.425 128.036 237.347Z" fill="#37474F"/>
<path d="M146.335 213.855C143.722 211.635 137.758 207.358 135.017 205.303C132.244 203.223 129.486 201.125 126.702 199.06C123.939 197.012 121.178 194.964 118.416 192.916C115.738 190.931 113.074 188.913 110.242 187.15C108.693 186.185 107.102 185.288 105.466 184.478C103.876 183.692 102.224 182.891 100.521 182.388C100.47 182.373 100.441 182.447 100.486 182.473C101.882 183.276 103.351 183.955 104.765 184.73C106.163 185.496 107.539 186.301 108.892 187.144C111.703 188.895 114.353 190.878 117.017 192.843C122.547 196.923 128.066 201.02 133.637 205.045C136.754 207.298 142.966 211.949 146.207 214.024C146.309 214.089 146.428 213.933 146.335 213.855Z" fill="#37474F"/>
</svg>
